G04 #@! TF.FileFunction,Legend,Bot*
%FSLAX46Y46*%
G04 Gerber Fmt 4.6, Leading zero omitted, Abs format (unit mm)*
G04 Created by KiCad (PCBNEW 4.0.2-stable) date 14/05/2016 22:57:01*
%MOMM*%
G01*
G04 APERTURE LIST*
%ADD10C,0.100000*%
%ADD11C,0.150000*%
G04 APERTURE END LIST*
D10*
D11*
X149400000Y-184850000D02*
X101600000Y-184850000D01*
X101600000Y-184850000D02*
X101600000Y-115150000D01*
X101600000Y-115150000D02*
X149400000Y-115150000D01*
X149400000Y-115150000D02*
X149400000Y-184850000D01*
X100400000Y-184850000D02*
X52600000Y-184850000D01*
X52600000Y-184850000D02*
X52600000Y-115150000D01*
X52600000Y-115150000D02*
X100400000Y-115150000D01*
X100400000Y-115150000D02*
X100400000Y-184850000D01*
X198400000Y-184850000D02*
X150600000Y-184850000D01*
X150600000Y-184850000D02*
X150600000Y-115150000D01*
X150600000Y-115150000D02*
X198400000Y-115150000D01*
X198400000Y-115150000D02*
X198400000Y-184850000D01*
X247400000Y-184850000D02*
X199600000Y-184850000D01*
X199600000Y-184850000D02*
X199600000Y-115150000D01*
X199600000Y-115150000D02*
X247400000Y-115150000D01*
X247400000Y-115150000D02*
X247400000Y-184850000D01*
X140549657Y-42866378D02*
X141281356Y-49828031D01*
X141281356Y-49828031D02*
X137800530Y-50193881D01*
X137800530Y-50193881D02*
X137068831Y-43232228D01*
X144225349Y-51529622D02*
X143284592Y-42578925D01*
X143284592Y-42578925D02*
X134333895Y-43519681D01*
X134333895Y-43519681D02*
X135274651Y-52470378D01*
X135274651Y-52470378D02*
X144225349Y-51529622D01*
X107938075Y-51066302D02*
X110785231Y-57461120D01*
X110785231Y-57461120D02*
X107587822Y-58884698D01*
X107587822Y-58884698D02*
X104740666Y-52489880D01*
X114110955Y-58169685D02*
X110450325Y-49947776D01*
X110450325Y-49947776D02*
X102228416Y-53608406D01*
X102228416Y-53608406D02*
X105889045Y-61830315D01*
X105889045Y-61830315D02*
X114110955Y-58169685D01*
X71232675Y-76677321D02*
X76434689Y-81361235D01*
X76434689Y-81361235D02*
X74092732Y-83962242D01*
X74092732Y-83962242D02*
X68890718Y-79278328D01*
X79761088Y-80655848D02*
X73072784Y-74633673D01*
X73072784Y-74633673D02*
X67050609Y-81321976D01*
X67050609Y-81321976D02*
X73738912Y-87344152D01*
X73738912Y-87344152D02*
X79761088Y-80655848D01*
X48231271Y-115054498D02*
X54888667Y-117217617D01*
X54888667Y-117217617D02*
X53807107Y-120546315D01*
X53807107Y-120546315D02*
X47149712Y-118383196D01*
X57640576Y-115220246D02*
X49081068Y-112439093D01*
X49081068Y-112439093D02*
X46299915Y-120998601D01*
X46299915Y-120998601D02*
X54859424Y-123779754D01*
X54859424Y-123779754D02*
X57640576Y-115220246D01*
X42866378Y-159450343D02*
X49828031Y-158718644D01*
X49828031Y-158718644D02*
X50193881Y-162199470D01*
X50193881Y-162199470D02*
X43232228Y-162931169D01*
X51529622Y-155774651D02*
X42578925Y-156715408D01*
X42578925Y-156715408D02*
X43519681Y-165666105D01*
X43519681Y-165666105D02*
X52470378Y-164725349D01*
X52470378Y-164725349D02*
X51529622Y-155774651D01*
X56080771Y-202234456D02*
X62142949Y-198734456D01*
X62142949Y-198734456D02*
X63892949Y-201765544D01*
X63892949Y-201765544D02*
X57830771Y-205265544D01*
X62500000Y-195352886D02*
X54705771Y-199852886D01*
X54705771Y-199852886D02*
X59205771Y-207647114D01*
X59205771Y-207647114D02*
X67000000Y-203147114D01*
X67000000Y-203147114D02*
X62500000Y-195352886D01*
X85294153Y-236002529D02*
X89408650Y-230339410D01*
X89408650Y-230339410D02*
X92240209Y-232396658D01*
X92240209Y-232396658D02*
X88125712Y-238059777D01*
X88359424Y-227104966D02*
X83069356Y-234386119D01*
X83069356Y-234386119D02*
X90350509Y-239676187D01*
X90350509Y-239676187D02*
X95640576Y-232395034D01*
X95640576Y-232395034D02*
X88359424Y-227104966D01*
X125917036Y-254939483D02*
X127372418Y-248092450D01*
X127372418Y-248092450D02*
X130795935Y-248820141D01*
X130795935Y-248820141D02*
X129340553Y-255667174D01*
X125098336Y-245564397D02*
X123227131Y-254367726D01*
X123227131Y-254367726D02*
X132030459Y-256238931D01*
X132030459Y-256238931D02*
X133901664Y-247435603D01*
X133901664Y-247435603D02*
X125098336Y-245564397D01*
X170659447Y-255417174D02*
X169204065Y-248570141D01*
X169204065Y-248570141D02*
X172627582Y-247842450D01*
X172627582Y-247842450D02*
X174082964Y-254689483D01*
X166098336Y-247185603D02*
X167969541Y-255988931D01*
X167969541Y-255988931D02*
X176772869Y-254117726D01*
X176772869Y-254117726D02*
X174901664Y-245314397D01*
X174901664Y-245314397D02*
X166098336Y-247185603D01*
X211874288Y-238059777D02*
X207759791Y-232396658D01*
X207759791Y-232396658D02*
X210591350Y-230339410D01*
X210591350Y-230339410D02*
X214705847Y-236002529D01*
X204359424Y-232395034D02*
X209649491Y-239676187D01*
X209649491Y-239676187D02*
X216930644Y-234386119D01*
X216930644Y-234386119D02*
X211640576Y-227104966D01*
X211640576Y-227104966D02*
X204359424Y-232395034D01*
X242169229Y-205265544D02*
X236107051Y-201765544D01*
X236107051Y-201765544D02*
X237857051Y-198734456D01*
X237857051Y-198734456D02*
X243919229Y-202234456D01*
X233000000Y-203147114D02*
X240794229Y-207647114D01*
X240794229Y-207647114D02*
X245294229Y-199852886D01*
X245294229Y-199852886D02*
X237500000Y-195352886D01*
X237500000Y-195352886D02*
X233000000Y-203147114D01*
X256767772Y-162931169D02*
X249806119Y-162199470D01*
X249806119Y-162199470D02*
X250171969Y-158718644D01*
X250171969Y-158718644D02*
X257133622Y-159450343D01*
X247529622Y-164725349D02*
X256480319Y-165666105D01*
X256480319Y-165666105D02*
X257421075Y-156715408D01*
X257421075Y-156715408D02*
X248470378Y-155774651D01*
X248470378Y-155774651D02*
X247529622Y-164725349D01*
X252850288Y-118383196D02*
X246192893Y-120546315D01*
X246192893Y-120546315D02*
X245111333Y-117217617D01*
X245111333Y-117217617D02*
X251768729Y-115054498D01*
X245140576Y-123779754D02*
X253700085Y-120998601D01*
X253700085Y-120998601D02*
X250918932Y-112439093D01*
X250918932Y-112439093D02*
X242359424Y-115220246D01*
X242359424Y-115220246D02*
X245140576Y-123779754D01*
X231109282Y-79278328D02*
X225907268Y-83962242D01*
X225907268Y-83962242D02*
X223565311Y-81361235D01*
X223565311Y-81361235D02*
X228767325Y-76677321D01*
X226261088Y-87344152D02*
X232949391Y-81321976D01*
X232949391Y-81321976D02*
X226927216Y-74633673D01*
X226927216Y-74633673D02*
X220238912Y-80655848D01*
X220238912Y-80655848D02*
X226261088Y-87344152D01*
X195259334Y-52489880D02*
X192412178Y-58884698D01*
X192412178Y-58884698D02*
X189214769Y-57461120D01*
X189214769Y-57461120D02*
X192061925Y-51066302D01*
X194110955Y-61830315D02*
X197771584Y-53608406D01*
X197771584Y-53608406D02*
X189549675Y-49947776D01*
X189549675Y-49947776D02*
X185889045Y-58169685D01*
X185889045Y-58169685D02*
X194110955Y-61830315D01*
X151750000Y-42500000D02*
X151750000Y-49500000D01*
X151750000Y-49500000D02*
X148250000Y-49500000D01*
X148250000Y-49500000D02*
X148250000Y-42500000D01*
X154500000Y-51500000D02*
X154500000Y-42500000D01*
X154500000Y-42500000D02*
X145500000Y-42500000D01*
X145500000Y-42500000D02*
X145500000Y-51500000D01*
X145500000Y-51500000D02*
X154500000Y-51500000D01*
X118383196Y-47149712D02*
X120546315Y-53807107D01*
X120546315Y-53807107D02*
X117217617Y-54888667D01*
X117217617Y-54888667D02*
X115054498Y-48231271D01*
X123779754Y-54859424D02*
X120998601Y-46299915D01*
X120998601Y-46299915D02*
X112439093Y-49081068D01*
X112439093Y-49081068D02*
X115220246Y-57640576D01*
X115220246Y-57640576D02*
X123779754Y-54859424D01*
X79278328Y-68890718D02*
X83962242Y-74092732D01*
X83962242Y-74092732D02*
X81361235Y-76434689D01*
X81361235Y-76434689D02*
X76677321Y-71232675D01*
X87344152Y-73738912D02*
X81321976Y-67050609D01*
X81321976Y-67050609D02*
X74633673Y-73072784D01*
X74633673Y-73072784D02*
X80655848Y-79761088D01*
X80655848Y-79761088D02*
X87344152Y-73738912D01*
X52489880Y-104740666D02*
X58884698Y-107587822D01*
X58884698Y-107587822D02*
X57461120Y-110785231D01*
X57461120Y-110785231D02*
X51066302Y-107938075D01*
X61830315Y-105889045D02*
X53608406Y-102228416D01*
X53608406Y-102228416D02*
X49947776Y-110450325D01*
X49947776Y-110450325D02*
X58169685Y-114110955D01*
X58169685Y-114110955D02*
X61830315Y-105889045D01*
X42500000Y-148250000D02*
X49500000Y-148250000D01*
X49500000Y-148250000D02*
X49500000Y-151750000D01*
X49500000Y-151750000D02*
X42500000Y-151750000D01*
X51500000Y-145500000D02*
X42500000Y-145500000D01*
X42500000Y-145500000D02*
X42500000Y-154500000D01*
X42500000Y-154500000D02*
X51500000Y-154500000D01*
X51500000Y-154500000D02*
X51500000Y-145500000D01*
X51066302Y-192061925D02*
X57461120Y-189214769D01*
X57461120Y-189214769D02*
X58884698Y-192412178D01*
X58884698Y-192412178D02*
X52489880Y-195259334D01*
X58169685Y-185889045D02*
X49947776Y-189549675D01*
X49947776Y-189549675D02*
X53608406Y-197771584D01*
X53608406Y-197771584D02*
X61830315Y-194110955D01*
X61830315Y-194110955D02*
X58169685Y-185889045D01*
X76677321Y-228767325D02*
X81361235Y-223565311D01*
X81361235Y-223565311D02*
X83962242Y-225907268D01*
X83962242Y-225907268D02*
X79278328Y-231109282D01*
X80655848Y-220238912D02*
X74633673Y-226927216D01*
X74633673Y-226927216D02*
X81321976Y-232949391D01*
X81321976Y-232949391D02*
X87344152Y-226261088D01*
X87344152Y-226261088D02*
X80655848Y-220238912D01*
X115054498Y-251768729D02*
X117217617Y-245111333D01*
X117217617Y-245111333D02*
X120546315Y-246192893D01*
X120546315Y-246192893D02*
X118383196Y-252850288D01*
X115220246Y-242359424D02*
X112439093Y-250918932D01*
X112439093Y-250918932D02*
X120998601Y-253700085D01*
X120998601Y-253700085D02*
X123779754Y-245140576D01*
X123779754Y-245140576D02*
X115220246Y-242359424D01*
X159450343Y-257133622D02*
X158718644Y-250171969D01*
X158718644Y-250171969D02*
X162199470Y-249806119D01*
X162199470Y-249806119D02*
X162931169Y-256767772D01*
X155774651Y-248470378D02*
X156715408Y-257421075D01*
X156715408Y-257421075D02*
X165666105Y-256480319D01*
X165666105Y-256480319D02*
X164725349Y-247529622D01*
X164725349Y-247529622D02*
X155774651Y-248470378D01*
X202234456Y-243919229D02*
X198734456Y-237857051D01*
X198734456Y-237857051D02*
X201765544Y-236107051D01*
X201765544Y-236107051D02*
X205265544Y-242169229D01*
X195352886Y-237500000D02*
X199852886Y-245294229D01*
X199852886Y-245294229D02*
X207647114Y-240794229D01*
X207647114Y-240794229D02*
X203147114Y-233000000D01*
X203147114Y-233000000D02*
X195352886Y-237500000D01*
X236002529Y-214705847D02*
X230339410Y-210591350D01*
X230339410Y-210591350D02*
X232396658Y-207759791D01*
X232396658Y-207759791D02*
X238059777Y-211874288D01*
X227104966Y-211640576D02*
X234386119Y-216930644D01*
X234386119Y-216930644D02*
X239676187Y-209649491D01*
X239676187Y-209649491D02*
X232395034Y-204359424D01*
X232395034Y-204359424D02*
X227104966Y-211640576D01*
X254689483Y-174082964D02*
X247842450Y-172627582D01*
X247842450Y-172627582D02*
X248570141Y-169204065D01*
X248570141Y-169204065D02*
X255417174Y-170659447D01*
X245314397Y-174901664D02*
X254117726Y-176772869D01*
X254117726Y-176772869D02*
X255988931Y-167969541D01*
X255988931Y-167969541D02*
X247185603Y-166098336D01*
X247185603Y-166098336D02*
X245314397Y-174901664D01*
X255667174Y-129340553D02*
X248820141Y-130795935D01*
X248820141Y-130795935D02*
X248092450Y-127372418D01*
X248092450Y-127372418D02*
X254939483Y-125917036D01*
X247435603Y-133901664D02*
X256238931Y-132030459D01*
X256238931Y-132030459D02*
X254367726Y-123227131D01*
X254367726Y-123227131D02*
X245564397Y-125098336D01*
X245564397Y-125098336D02*
X247435603Y-133901664D01*
X238059777Y-88125712D02*
X232396658Y-92240209D01*
X232396658Y-92240209D02*
X230339410Y-89408650D01*
X230339410Y-89408650D02*
X236002529Y-85294153D01*
X232395034Y-95640576D02*
X239676187Y-90350509D01*
X239676187Y-90350509D02*
X234386119Y-83069356D01*
X234386119Y-83069356D02*
X227104966Y-88359424D01*
X227104966Y-88359424D02*
X232395034Y-95640576D01*
X205265544Y-57830771D02*
X201765544Y-63892949D01*
X201765544Y-63892949D02*
X198734456Y-62142949D01*
X198734456Y-62142949D02*
X202234456Y-56080771D01*
X203147114Y-67000000D02*
X207647114Y-59205771D01*
X207647114Y-59205771D02*
X199852886Y-54705771D01*
X199852886Y-54705771D02*
X195352886Y-62500000D01*
X195352886Y-62500000D02*
X203147114Y-67000000D01*
X162931169Y-43232228D02*
X162199470Y-50193881D01*
X162199470Y-50193881D02*
X158718644Y-49828031D01*
X158718644Y-49828031D02*
X159450343Y-42866378D01*
X164725349Y-52470378D02*
X165666105Y-43519681D01*
X165666105Y-43519681D02*
X156715408Y-42578925D01*
X156715408Y-42578925D02*
X155774651Y-51529622D01*
X155774651Y-51529622D02*
X164725349Y-52470378D01*
X129340553Y-44332826D02*
X130795935Y-51179859D01*
X130795935Y-51179859D02*
X127372418Y-51907550D01*
X127372418Y-51907550D02*
X125917036Y-45060517D01*
X133901664Y-52564397D02*
X132030459Y-43761069D01*
X132030459Y-43761069D02*
X123227131Y-45632274D01*
X123227131Y-45632274D02*
X125098336Y-54435603D01*
X125098336Y-54435603D02*
X133901664Y-52564397D01*
X88125712Y-61940223D02*
X92240209Y-67603342D01*
X92240209Y-67603342D02*
X89408650Y-69660590D01*
X89408650Y-69660590D02*
X85294153Y-63997471D01*
X95640576Y-67604966D02*
X90350509Y-60323813D01*
X90350509Y-60323813D02*
X83069356Y-65613881D01*
X83069356Y-65613881D02*
X88359424Y-72895034D01*
X88359424Y-72895034D02*
X95640576Y-67604966D01*
X57830771Y-94734456D02*
X63892949Y-98234456D01*
X63892949Y-98234456D02*
X62142949Y-101265544D01*
X62142949Y-101265544D02*
X56080771Y-97765544D01*
X67000000Y-96852886D02*
X59205771Y-92352886D01*
X59205771Y-92352886D02*
X54705771Y-100147114D01*
X54705771Y-100147114D02*
X62500000Y-104647114D01*
X62500000Y-104647114D02*
X67000000Y-96852886D01*
X43232228Y-137068831D02*
X50193881Y-137800530D01*
X50193881Y-137800530D02*
X49828031Y-141281356D01*
X49828031Y-141281356D02*
X42866378Y-140549657D01*
X52470378Y-135274651D02*
X43519681Y-134333895D01*
X43519681Y-134333895D02*
X42578925Y-143284592D01*
X42578925Y-143284592D02*
X51529622Y-144225349D01*
X51529622Y-144225349D02*
X52470378Y-135274651D01*
X47149712Y-181616804D02*
X53807107Y-179453685D01*
X53807107Y-179453685D02*
X54888667Y-182782383D01*
X54888667Y-182782383D02*
X48231271Y-184945502D01*
X54859424Y-176220246D02*
X46299915Y-179001399D01*
X46299915Y-179001399D02*
X49081068Y-187560907D01*
X49081068Y-187560907D02*
X57640576Y-184779754D01*
X57640576Y-184779754D02*
X54859424Y-176220246D01*
X68890718Y-220721672D02*
X74092732Y-216037758D01*
X74092732Y-216037758D02*
X76434689Y-218638765D01*
X76434689Y-218638765D02*
X71232675Y-223322679D01*
X73738912Y-212655848D02*
X67050609Y-218678024D01*
X67050609Y-218678024D02*
X73072784Y-225366327D01*
X73072784Y-225366327D02*
X79761088Y-219344152D01*
X79761088Y-219344152D02*
X73738912Y-212655848D01*
X104740666Y-247510120D02*
X107587822Y-241115302D01*
X107587822Y-241115302D02*
X110785231Y-242538880D01*
X110785231Y-242538880D02*
X107938075Y-248933698D01*
X105889045Y-238169685D02*
X102228416Y-246391594D01*
X102228416Y-246391594D02*
X110450325Y-250052224D01*
X110450325Y-250052224D02*
X114110955Y-241830315D01*
X114110955Y-241830315D02*
X105889045Y-238169685D01*
X148250000Y-257500000D02*
X148250000Y-250500000D01*
X148250000Y-250500000D02*
X151750000Y-250500000D01*
X151750000Y-250500000D02*
X151750000Y-257500000D01*
X145500000Y-248500000D02*
X145500000Y-257500000D01*
X145500000Y-257500000D02*
X154500000Y-257500000D01*
X154500000Y-257500000D02*
X154500000Y-248500000D01*
X154500000Y-248500000D02*
X145500000Y-248500000D01*
X192061925Y-248933698D02*
X189214769Y-242538880D01*
X189214769Y-242538880D02*
X192412178Y-241115302D01*
X192412178Y-241115302D02*
X195259334Y-247510120D01*
X185889045Y-241830315D02*
X189549675Y-250052224D01*
X189549675Y-250052224D02*
X197771584Y-246391594D01*
X197771584Y-246391594D02*
X194110955Y-238169685D01*
X194110955Y-238169685D02*
X185889045Y-241830315D01*
X228767325Y-223322679D02*
X223565311Y-218638765D01*
X223565311Y-218638765D02*
X225907268Y-216037758D01*
X225907268Y-216037758D02*
X231109282Y-220721672D01*
X220238912Y-219344152D02*
X226927216Y-225366327D01*
X226927216Y-225366327D02*
X232949391Y-218678024D01*
X232949391Y-218678024D02*
X226261088Y-212655848D01*
X226261088Y-212655848D02*
X220238912Y-219344152D01*
X251768729Y-184945502D02*
X245111333Y-182782383D01*
X245111333Y-182782383D02*
X246192893Y-179453685D01*
X246192893Y-179453685D02*
X252850288Y-181616804D01*
X242359424Y-184779754D02*
X250918932Y-187560907D01*
X250918932Y-187560907D02*
X253700085Y-179001399D01*
X253700085Y-179001399D02*
X245140576Y-176220246D01*
X245140576Y-176220246D02*
X242359424Y-184779754D01*
X257133622Y-140549657D02*
X250171969Y-141281356D01*
X250171969Y-141281356D02*
X249806119Y-137800530D01*
X249806119Y-137800530D02*
X256767772Y-137068831D01*
X248470378Y-144225349D02*
X257421075Y-143284592D01*
X257421075Y-143284592D02*
X256480319Y-134333895D01*
X256480319Y-134333895D02*
X247529622Y-135274651D01*
X247529622Y-135274651D02*
X248470378Y-144225349D01*
X243919229Y-97765544D02*
X237857051Y-101265544D01*
X237857051Y-101265544D02*
X236107051Y-98234456D01*
X236107051Y-98234456D02*
X242169229Y-94734456D01*
X237500000Y-104647114D02*
X245294229Y-100147114D01*
X245294229Y-100147114D02*
X240794229Y-92352886D01*
X240794229Y-92352886D02*
X233000000Y-96852886D01*
X233000000Y-96852886D02*
X237500000Y-104647114D01*
X214705847Y-63997471D02*
X210591350Y-69660590D01*
X210591350Y-69660590D02*
X207759791Y-67603342D01*
X207759791Y-67603342D02*
X211874288Y-61940223D01*
X211640576Y-72895034D02*
X216930644Y-65613881D01*
X216930644Y-65613881D02*
X209649491Y-60323813D01*
X209649491Y-60323813D02*
X204359424Y-67604966D01*
X204359424Y-67604966D02*
X211640576Y-72895034D01*
X174082964Y-45060517D02*
X172627582Y-51907550D01*
X172627582Y-51907550D02*
X169204065Y-51179859D01*
X169204065Y-51179859D02*
X170659447Y-44332826D01*
X174901664Y-54435603D02*
X176772869Y-45632274D01*
X176772869Y-45632274D02*
X167969541Y-43761069D01*
X167969541Y-43761069D02*
X166098336Y-52564397D01*
X166098336Y-52564397D02*
X174901664Y-54435603D01*
X97765544Y-56080771D02*
X101265544Y-62142949D01*
X101265544Y-62142949D02*
X98234456Y-63892949D01*
X98234456Y-63892949D02*
X94734456Y-57830771D01*
X104647114Y-62500000D02*
X100147114Y-54705771D01*
X100147114Y-54705771D02*
X92352886Y-59205771D01*
X92352886Y-59205771D02*
X96852886Y-67000000D01*
X96852886Y-67000000D02*
X104647114Y-62500000D01*
X63997471Y-85544153D02*
X69660590Y-89658650D01*
X69660590Y-89658650D02*
X67603342Y-92490209D01*
X67603342Y-92490209D02*
X61940223Y-88375712D01*
X72895034Y-88609424D02*
X65613881Y-83319356D01*
X65613881Y-83319356D02*
X60323813Y-90600509D01*
X60323813Y-90600509D02*
X67604966Y-95890576D01*
X67604966Y-95890576D02*
X72895034Y-88609424D01*
X45310517Y-125917036D02*
X52157550Y-127372418D01*
X52157550Y-127372418D02*
X51429859Y-130795935D01*
X51429859Y-130795935D02*
X44582826Y-129340553D01*
X54685603Y-125098336D02*
X45882274Y-123227131D01*
X45882274Y-123227131D02*
X44011069Y-132030459D01*
X44011069Y-132030459D02*
X52814397Y-133901664D01*
X52814397Y-133901664D02*
X54685603Y-125098336D01*
X44332826Y-170659447D02*
X51179859Y-169204065D01*
X51179859Y-169204065D02*
X51907550Y-172627582D01*
X51907550Y-172627582D02*
X45060517Y-174082964D01*
X52564397Y-166098336D02*
X43761069Y-167969541D01*
X43761069Y-167969541D02*
X45632274Y-176772869D01*
X45632274Y-176772869D02*
X54435603Y-174901664D01*
X54435603Y-174901664D02*
X52564397Y-166098336D01*
X61940223Y-211874288D02*
X67603342Y-207759791D01*
X67603342Y-207759791D02*
X69660590Y-210591350D01*
X69660590Y-210591350D02*
X63997471Y-214705847D01*
X67604966Y-204359424D02*
X60323813Y-209649491D01*
X60323813Y-209649491D02*
X65613881Y-216930644D01*
X65613881Y-216930644D02*
X72895034Y-211640576D01*
X72895034Y-211640576D02*
X67604966Y-204359424D01*
X94734456Y-242169229D02*
X98234456Y-236107051D01*
X98234456Y-236107051D02*
X101265544Y-237857051D01*
X101265544Y-237857051D02*
X97765544Y-243919229D01*
X96852886Y-233000000D02*
X92352886Y-240794229D01*
X92352886Y-240794229D02*
X100147114Y-245294229D01*
X100147114Y-245294229D02*
X104647114Y-237500000D01*
X104647114Y-237500000D02*
X96852886Y-233000000D01*
X137068831Y-256767772D02*
X137800530Y-249806119D01*
X137800530Y-249806119D02*
X141281356Y-250171969D01*
X141281356Y-250171969D02*
X140549657Y-257133622D01*
X135274651Y-247529622D02*
X134333895Y-256480319D01*
X134333895Y-256480319D02*
X143284592Y-257421075D01*
X143284592Y-257421075D02*
X144225349Y-248470378D01*
X144225349Y-248470378D02*
X135274651Y-247529622D01*
X181616804Y-252850288D02*
X179453685Y-246192893D01*
X179453685Y-246192893D02*
X182782383Y-245111333D01*
X182782383Y-245111333D02*
X184945502Y-251768729D01*
X176220246Y-245140576D02*
X179001399Y-253700085D01*
X179001399Y-253700085D02*
X187560907Y-250918932D01*
X187560907Y-250918932D02*
X184779754Y-242359424D01*
X184779754Y-242359424D02*
X176220246Y-245140576D01*
X220721672Y-231109282D02*
X216037758Y-225907268D01*
X216037758Y-225907268D02*
X218638765Y-223565311D01*
X218638765Y-223565311D02*
X223322679Y-228767325D01*
X212655848Y-226261088D02*
X218678024Y-232949391D01*
X218678024Y-232949391D02*
X225366327Y-226927216D01*
X225366327Y-226927216D02*
X219344152Y-220238912D01*
X219344152Y-220238912D02*
X212655848Y-226261088D01*
X247510120Y-195259334D02*
X241115302Y-192412178D01*
X241115302Y-192412178D02*
X242538880Y-189214769D01*
X242538880Y-189214769D02*
X248933698Y-192061925D01*
X238169685Y-194110955D02*
X246391594Y-197771584D01*
X246391594Y-197771584D02*
X250052224Y-189549675D01*
X250052224Y-189549675D02*
X241830315Y-185889045D01*
X241830315Y-185889045D02*
X238169685Y-194110955D01*
X257500000Y-151750000D02*
X250500000Y-151750000D01*
X250500000Y-151750000D02*
X250500000Y-148250000D01*
X250500000Y-148250000D02*
X257500000Y-148250000D01*
X248500000Y-154500000D02*
X257500000Y-154500000D01*
X257500000Y-154500000D02*
X257500000Y-145500000D01*
X257500000Y-145500000D02*
X248500000Y-145500000D01*
X248500000Y-145500000D02*
X248500000Y-154500000D01*
X248933698Y-107938075D02*
X242538880Y-110785231D01*
X242538880Y-110785231D02*
X241115302Y-107587822D01*
X241115302Y-107587822D02*
X247510120Y-104740666D01*
X241830315Y-114110955D02*
X250052224Y-110450325D01*
X250052224Y-110450325D02*
X246391594Y-102228416D01*
X246391594Y-102228416D02*
X238169685Y-105889045D01*
X238169685Y-105889045D02*
X241830315Y-114110955D01*
X223322679Y-71232675D02*
X218638765Y-76434689D01*
X218638765Y-76434689D02*
X216037758Y-74092732D01*
X216037758Y-74092732D02*
X220721672Y-68890718D01*
X219344152Y-79761088D02*
X225366327Y-73072784D01*
X225366327Y-73072784D02*
X218678024Y-67050609D01*
X218678024Y-67050609D02*
X212655848Y-73738912D01*
X212655848Y-73738912D02*
X219344152Y-79761088D01*
X184945502Y-48231271D02*
X182782383Y-54888667D01*
X182782383Y-54888667D02*
X179453685Y-53807107D01*
X179453685Y-53807107D02*
X181616804Y-47149712D01*
X184779754Y-57640576D02*
X187560907Y-49081068D01*
X187560907Y-49081068D02*
X179001399Y-46299915D01*
X179001399Y-46299915D02*
X176220246Y-54859424D01*
X176220246Y-54859424D02*
X184779754Y-57640576D01*
M02*
