M48
;DRILL file {KiCad 4.0.2-stable} date 14/05/2016 22:57:04
;FORMAT={-:-/ absolute / metric / decimal}
FMAT,2
METRIC,TZ
T1C0.300
T2C0.650
T3C0.750
T4C0.800
T5C1.016
T6C2.000
%
G90
G05
M71
T1
X57.8Y-148.8
X58.Y-158.4
X58.5Y-139.2
X59.5Y-167.8
X60.2Y-129.7
X61.7Y-177.3
X62.7Y-120.3
X65.2Y-186.1
X66.2Y-111.5
X69.4Y-194.9
X70.8Y-102.8
X72.3Y-147.15
X73.3Y-147.2
X74.3Y-147.3
X74.3Y-152.15
X74.6Y-203.1
X74.85Y-129.6
X74.9Y-155.1
X75.6Y-149.1
X75.6Y-150.9
X75.8Y-171.95
X76.1Y-153.3
X76.1Y-157.7
X76.2Y-94.7
X76.45Y-163.7
X76.5Y-138.15
X76.5Y-146.4
X76.5Y-150.
X77.4Y-149.1
X77.4Y-150.9
X79.3Y-155.1
X79.3Y-163.7
X79.3Y-171.95
X80.4Y-210.6
X81.Y-129.6
X81.Y-138.15
X81.Y-144.25
X81.Y-145.45
X81.Y-146.4
X82.3Y-146.5
X82.4Y-87.4
X87.2Y-217.7
X89.2Y-80.7
X89.25Y-153.3
X94.6Y-223.7
X96.9Y-74.802
X102.5Y-229.2
X105.4Y-69.8
X111.1Y-233.8
X114.Y-65.6
X117.35Y-118.5
X117.35Y-140.45
X118.1Y-117.65
X120.Y-237.2
X120.55Y-117.65
X121.55Y-118.5
X121.75Y-138.4
X121.75Y-139.35
X121.75Y-140.3
X122.8Y-62.1
X123.45Y-152.15
X124.6Y-149.1
X124.6Y-150.9
X125.2Y-153.4
X125.2Y-157.7
X125.5Y-150.
X126.4Y-149.1
X126.4Y-150.9
X128.3Y-153.8
X128.5Y-116.75
X129.2Y-239.9
X129.25Y-117.65
X129.3Y-118.7
X129.95Y-150.75
X129.95Y-151.85
X129.95Y-153.05
X129.95Y-154.15
X130.25Y-184.25
X130.8Y-87.3
X130.8Y-99.6
X132.2Y-59.8
X132.2Y-147.1
X132.55Y-156.8
X133.7Y-184.25
X135.75Y-160.
X138.1Y-164.05
X138.35Y-100.9
X138.4Y-173.9
X138.45Y-118.4
X138.45Y-139.35
X138.5Y-116.4
X138.5Y-117.4
X138.5Y-138.4
X138.8Y-241.7
X139.55Y-185.1
X140.1Y-170.5
X140.25Y-140.05
X140.6Y-129.7
X140.65Y-181.1
X140.75Y-145.25
X140.75Y-149.25
X140.75Y-153.75
X140.75Y-157.75
X141.Y-105.6
X141.4Y-170.2
X141.5Y-115.65
X141.5Y-116.65
X141.5Y-118.4
X141.65Y-148.55
X141.8Y-58.3
X142.3Y-100.9
X142.6Y-170.2
X142.9Y-106.5
X144.Y-115.5
X144.Y-116.6
X144.Y-117.65
X144.1Y-129.9
X144.5Y-140.85
X144.5Y-142.1
X145.225Y-134.225
X145.3Y-129.9
X145.5Y-192.55
X145.95Y-172.35
X146.5Y-129.9
X147.1Y-172.8
X147.35Y-238.35
X147.45Y-192.5
X147.5Y-142.1
X147.7Y-129.9
X147.8Y-188.1
X147.9Y-190.7
X148.Y-152.5
X148.Y-170.1
X148.05Y-151.
X148.7Y-172.8
X148.75Y-165.7
X148.9Y-129.9
X149.2Y-170.1
X149.25Y-140.75
X149.4Y-148.5
X150.Y-171.55
X150.2Y-112.05
X150.2Y-115.45
X150.75Y-159.25
X151.15Y-204.1
X151.15Y-209.05
X151.3Y-129.9
X151.5Y-142.1
X151.5Y-147.5
X151.6Y-57.9
X152.3Y-148.95
X152.5Y-129.9
X152.8Y-170.1
X153.Y-147.5
X153.45Y-191.55
X153.55Y-173.4
X153.7Y-129.9
X154.Y-170.1
X154.45Y-147.
X154.5Y-140.8
X154.5Y-142.1
X154.65Y-165.7
X154.65Y-191.55
X154.9Y-129.9
X155.Y-159.25
X155.05Y-114.7
X155.1Y-111.75
X155.1Y-113.7
X155.15Y-112.75
X155.2Y-170.1
X156.4Y-170.1
X156.55Y-112.75
X156.55Y-113.7
X156.6Y-114.7
X156.75Y-180.25
X157.3Y-111.75
X158.1Y-242.
X158.7Y-167.05
X159.05Y-142.5
X159.25Y-145.25
X159.25Y-150.75
X159.25Y-154.75
X159.25Y-158.25
X160.1Y-135.
X160.8Y-100.45
X161.1Y-58.5
X161.3Y-135.
X162.Y-167.05
X163.3Y-108.25
X163.75Y-165.
X164.65Y-108.15
X167.275Y-108.175
X167.6Y-240.7
X168.Y-152.5
X168.Y-153.5
X168.7Y-108.6
X170.1Y-144.35
X170.1Y-145.55
X170.1Y-146.75
X170.1Y-147.95
X170.15Y-106.9
X170.7Y-60.1
X170.75Y-118.5
X171.55Y-117.8
X171.7Y-165.
X172.35Y-117.1
X173.6Y-149.1
X173.6Y-150.9
X174.2Y-153.4
X174.2Y-157.7
X174.5Y-150.
X175.4Y-149.1
X175.4Y-150.9
X176.9Y-238.3
X177.25Y-153.4
X180.Y-62.9
X185.9Y-234.9
X188.9Y-66.6
X194.6Y-230.8
X197.8Y-71.1
X200.6Y-179.95
X202.9Y-225.7
X205.6Y-76.5
X210.4Y-219.7
X212.6Y-82.6
X217.5Y-212.8
X219.1Y-89.4
X220.5Y-144.6
X220.5Y-146.9
X221.5Y-145.5
X221.5Y-146.9
X222.1Y-129.95
X222.25Y-156.55
X222.6Y-149.1
X222.6Y-150.9
X223.35Y-145.
X223.4Y-205.6
X223.45Y-136.7
X223.5Y-150.
X223.5Y-158.5
X223.5Y-161.55
X223.5Y-169.8
X224.4Y-149.1
X224.4Y-150.9
X225.2Y-97.
X226.25Y-161.55
X226.25Y-169.8
X226.3Y-158.5
X227.95Y-128.5
X228.Y-136.7
X228.1Y-145.
X228.9Y-197.6
X230.7Y-105.3
X233.4Y-188.9
X234.9Y-114.
X237.1Y-180.
X238.2Y-123.
X239.529Y-170.529
X240.6Y-132.5
X241.5Y-161.2
X241.7Y-151.45
X241.9Y-141.9
T2
X51.5Y-150.
X51.5Y-153.5
X51.634Y-143.231
X52.Y-139.75
X52.Y-160.25
X52.366Y-163.731
X53.022Y-132.924
X53.5Y-170.5
X53.75Y-129.5
X54.228Y-173.924
X55.168Y-122.829
X56.25Y-119.5
X56.25Y-180.5
X57.332Y-183.829
X58.576Y-113.197
X60.Y-110.
X60.Y-190.
X61.424Y-193.197
X63.Y-103.781
X64.75Y-100.75
X64.75Y-199.25
X66.5Y-202.281
X68.193Y-95.082
X70.25Y-92.25
X70.25Y-208.
X72.307Y-210.832
X74.408Y-86.601
X76.75Y-84.
X76.75Y-216.
X79.092Y-218.601
X81.399Y-79.092
X84.Y-76.75
X84.Y-223.25
X86.601Y-225.592
X89.168Y-72.307
X92.Y-70.25
X92.Y-229.75
X94.832Y-231.807
X97.719Y-66.5
X100.75Y-64.75
X100.75Y-235.25
X103.781Y-237.
X106.803Y-61.424
X110.Y-60.
X110.Y-240.
X113.197Y-241.424
X116.171Y-57.332
X119.5Y-56.25
X119.5Y-243.75
X122.829Y-244.832
X126.076Y-54.228
X129.5Y-53.5
X129.5Y-246.5
X132.924Y-247.228
X136.269Y-52.366
X139.75Y-52.
X139.75Y-248.
X143.231Y-248.366
X146.5Y-51.5
X150.Y-51.5
X150.Y-248.5
X153.5Y-248.5
X156.769Y-51.634
X160.25Y-52.
X160.25Y-248.
X163.731Y-247.634
X167.076Y-52.772
X170.5Y-53.5
X170.5Y-246.25
X173.924Y-245.522
X177.171Y-55.168
X180.5Y-56.25
X180.5Y-243.75
X183.829Y-242.668
X186.803Y-58.576
X190.Y-60.
X190.Y-240.
X193.197Y-238.576
X196.219Y-63.
X199.25Y-64.75
X199.25Y-235.25
X202.281Y-233.5
X205.168Y-68.193
X208.Y-70.25
X208.Y-229.75
X210.832Y-227.693
X213.399Y-74.408
X216.Y-76.75
X216.Y-223.25
X218.601Y-220.908
X220.908Y-81.399
X223.25Y-84.
X223.25Y-216.
X225.592Y-213.399
X227.693Y-89.168
X229.75Y-92.
X229.75Y-208.
X231.807Y-205.168
X233.5Y-97.719
X235.25Y-100.75
X235.25Y-199.25
X237.Y-196.219
X238.576Y-106.803
X240.Y-110.
X240.Y-190.
X241.424Y-186.803
X242.668Y-116.171
X243.75Y-119.5
X243.75Y-180.5
X244.832Y-177.171
X245.772Y-126.076
X246.25Y-170.5
X246.5Y-129.5
X246.978Y-167.076
X247.634Y-136.269
X248.Y-139.75
X248.Y-160.25
X248.366Y-156.769
X248.5Y-146.5
X248.5Y-150.
T3
X71.42Y-119.9
X71.42Y-180.1
X73.96Y-119.9
X73.96Y-180.1
X76.5Y-119.9
X76.5Y-180.1
X79.04Y-119.9
X79.04Y-180.1
X81.58Y-119.9
X81.58Y-180.1
X120.42Y-119.9
X120.42Y-180.1
X122.96Y-119.9
X122.96Y-180.1
X125.5Y-119.9
X125.5Y-180.1
X128.04Y-119.9
X128.04Y-180.1
X130.58Y-119.9
X130.58Y-180.1
X169.42Y-119.9
X169.42Y-180.1
X171.96Y-119.9
X171.96Y-180.1
X174.5Y-119.9
X174.5Y-180.1
X177.04Y-119.9
X177.04Y-180.1
X179.58Y-119.9
X179.58Y-180.1
X218.42Y-119.9
X218.42Y-180.1
X220.96Y-119.9
X220.96Y-180.1
X223.5Y-119.9
X223.5Y-180.1
X226.04Y-119.9
X226.04Y-180.1
X228.58Y-119.9
X228.58Y-180.1
T4
X148.8Y-200.1
X151.3Y-200.1
T5
X117.05Y-142.45
X117.05Y-144.99
X117.05Y-147.53
X117.05Y-150.07
X117.05Y-152.61
X117.05Y-155.15
X117.05Y-157.69
X119.59Y-142.45
X119.59Y-144.99
X119.59Y-147.53
X119.59Y-150.07
X119.59Y-152.61
X119.59Y-155.15
X119.59Y-157.69
X148.4Y-73.
X150.94Y-73.
X168.4Y-82.7
X168.4Y-85.24
X168.4Y-87.78
X168.4Y-90.32
T6
X150.Y-214.5
X150.Y-220.
X150.Y-225.5
T0
M30
