G04 #@! TF.FileFunction,Legend,Top*
%FSLAX46Y46*%
G04 Gerber Fmt 4.6, Leading zero omitted, Abs format (unit mm)*
G04 Created by KiCad (PCBNEW 4.0.2-stable) date 14/05/2016 22:57:01*
%MOMM*%
G01*
G04 APERTURE LIST*
%ADD10C,0.100000*%
%ADD11C,0.150000*%
G04 APERTURE END LIST*
D10*
D11*
X139344000Y-180924000D02*
X139344000Y-183972000D01*
X139344000Y-183972000D02*
X146456000Y-183972000D01*
X146456000Y-183972000D02*
X146456000Y-180924000D01*
X139344000Y-177876000D02*
X139344000Y-177114000D01*
X139344000Y-177114000D02*
X140868000Y-174828000D01*
X140868000Y-174828000D02*
X144932000Y-174828000D01*
X144932000Y-174828000D02*
X146456000Y-177114000D01*
X146456000Y-177114000D02*
X146456000Y-177876000D01*
X148100000Y-175250000D02*
X148100000Y-174550000D01*
X149300000Y-174550000D02*
X149300000Y-175250000D01*
X144050000Y-173300000D02*
X144750000Y-173300000D01*
X144750000Y-174500000D02*
X144050000Y-174500000D01*
X140850000Y-174500000D02*
X140150000Y-174500000D01*
X140150000Y-173300000D02*
X140850000Y-173300000D01*
X141600000Y-103150000D02*
X141600000Y-103850000D01*
X140400000Y-103850000D02*
X140400000Y-103150000D01*
X148300000Y-132350000D02*
X148300000Y-131650000D01*
X149500000Y-131650000D02*
X149500000Y-132350000D01*
X174800000Y-155250000D02*
X174800000Y-155950000D01*
X173600000Y-155950000D02*
X173600000Y-155250000D01*
X223800000Y-155250000D02*
X223800000Y-155950000D01*
X222600000Y-155950000D02*
X222600000Y-155250000D01*
X143500000Y-132350000D02*
X143500000Y-131650000D01*
X144700000Y-131650000D02*
X144700000Y-132350000D01*
X145900000Y-132350000D02*
X145900000Y-131650000D01*
X147100000Y-131650000D02*
X147100000Y-132350000D01*
X153100000Y-132350000D02*
X153100000Y-131650000D01*
X154300000Y-131650000D02*
X154300000Y-132350000D01*
X159500000Y-137450000D02*
X159500000Y-136750000D01*
X160700000Y-136750000D02*
X160700000Y-137450000D01*
X167650000Y-143750000D02*
X168350000Y-143750000D01*
X168350000Y-144950000D02*
X167650000Y-144950000D01*
X165650000Y-151900000D02*
X166350000Y-151900000D01*
X166350000Y-153100000D02*
X165650000Y-153100000D01*
X157000000Y-167650000D02*
X157000000Y-168350000D01*
X155800000Y-168350000D02*
X155800000Y-167650000D01*
X143200000Y-167750000D02*
X143200000Y-168450000D01*
X142000000Y-168450000D02*
X142000000Y-167750000D01*
X138050000Y-161500000D02*
X138050000Y-162200000D01*
X136850000Y-162200000D02*
X136850000Y-161500000D01*
X132400000Y-154750000D02*
X131700000Y-154750000D01*
X131700000Y-153550000D02*
X132400000Y-153550000D01*
X134700000Y-148300000D02*
X134000000Y-148300000D01*
X134000000Y-147100000D02*
X134700000Y-147100000D01*
X154600000Y-167650000D02*
X154600000Y-168350000D01*
X153400000Y-168350000D02*
X153400000Y-167650000D01*
X151900000Y-132350000D02*
X151900000Y-131650000D01*
X153100000Y-131650000D02*
X153100000Y-132350000D01*
X167650000Y-146150000D02*
X168350000Y-146150000D01*
X168350000Y-147350000D02*
X167650000Y-147350000D01*
X149800000Y-167650000D02*
X149800000Y-168350000D01*
X148600000Y-168350000D02*
X148600000Y-167650000D01*
X132400000Y-152450000D02*
X131700000Y-152450000D01*
X131700000Y-151250000D02*
X132400000Y-151250000D01*
X144700000Y-132350000D02*
X144700000Y-131650000D01*
X145900000Y-131650000D02*
X145900000Y-132350000D01*
X147100000Y-132350000D02*
X147100000Y-131650000D01*
X148300000Y-131650000D02*
X148300000Y-132350000D01*
X154300000Y-132350000D02*
X154300000Y-131650000D01*
X155500000Y-131650000D02*
X155500000Y-132350000D01*
X160700000Y-137450000D02*
X160700000Y-136750000D01*
X161900000Y-136750000D02*
X161900000Y-137450000D01*
X167650000Y-144950000D02*
X168350000Y-144950000D01*
X168350000Y-146150000D02*
X167650000Y-146150000D01*
X165650000Y-152900000D02*
X166350000Y-152900000D01*
X166350000Y-154100000D02*
X165650000Y-154100000D01*
X155800000Y-167650000D02*
X155800000Y-168350000D01*
X154600000Y-168350000D02*
X154600000Y-167650000D01*
X142000000Y-167750000D02*
X142000000Y-168450000D01*
X140800000Y-168450000D02*
X140800000Y-167750000D01*
X139250000Y-161500000D02*
X139250000Y-162200000D01*
X138050000Y-162200000D02*
X138050000Y-161500000D01*
X132400000Y-153650000D02*
X131700000Y-153650000D01*
X131700000Y-152450000D02*
X132400000Y-152450000D01*
X134700000Y-147200000D02*
X134000000Y-147200000D01*
X134000000Y-146000000D02*
X134700000Y-146000000D01*
X153400000Y-167650000D02*
X153400000Y-168350000D01*
X152200000Y-168350000D02*
X152200000Y-167650000D01*
X150700000Y-132350000D02*
X150700000Y-131650000D01*
X151900000Y-131650000D02*
X151900000Y-132350000D01*
X167650000Y-147350000D02*
X168350000Y-147350000D01*
X168350000Y-148550000D02*
X167650000Y-148550000D01*
X148600000Y-167650000D02*
X148600000Y-168350000D01*
X147400000Y-168350000D02*
X147400000Y-167650000D01*
X132400000Y-151350000D02*
X131700000Y-151350000D01*
X131700000Y-150150000D02*
X132400000Y-150150000D01*
X149650000Y-185100000D02*
X150350000Y-185100000D01*
X150350000Y-186300000D02*
X149650000Y-186300000D01*
X146500000Y-175250000D02*
X146500000Y-174550000D01*
X147700000Y-174550000D02*
X147700000Y-175250000D01*
X76700000Y-155250000D02*
X76700000Y-155950000D01*
X75500000Y-155950000D02*
X75500000Y-155250000D01*
X125800000Y-155250000D02*
X125800000Y-155950000D01*
X124600000Y-155950000D02*
X124600000Y-155250000D01*
X171221210Y-61547460D02*
X171437522Y-60881720D01*
X172578790Y-61252540D02*
X172362478Y-61918280D01*
X205419917Y-77758622D02*
X205888309Y-77238421D01*
X206780083Y-78041378D02*
X206311691Y-78561579D01*
X229943385Y-106684453D02*
X230587738Y-106410941D01*
X231056615Y-107515547D02*
X230412262Y-107789059D01*
X240550000Y-142700000D02*
X241250000Y-142700000D01*
X241250000Y-143900000D02*
X240550000Y-143900000D01*
X235824301Y-180309515D02*
X236463783Y-180594231D01*
X235975699Y-181690485D02*
X235336217Y-181405769D01*
X216311691Y-212538421D02*
X216780083Y-213058622D01*
X215888309Y-213861579D02*
X215419917Y-213341378D01*
X184962478Y-234081720D02*
X185178790Y-234747460D01*
X184037522Y-235118280D02*
X183821210Y-234452540D01*
X147933298Y-241014634D02*
X147860128Y-241710800D01*
X146666702Y-241585366D02*
X146739872Y-240889200D01*
X110994615Y-232196891D02*
X110644615Y-232803109D01*
X109605385Y-232203109D02*
X109955385Y-231596891D01*
X81035827Y-209279685D02*
X80469515Y-209691135D01*
X79764173Y-208720315D02*
X80330485Y-208308865D01*
X62867099Y-176114119D02*
X62182395Y-176259658D01*
X61932901Y-175085881D02*
X62617605Y-174940342D01*
X59717605Y-138659658D02*
X59032901Y-138514119D01*
X59282395Y-137340342D02*
X59967099Y-137485881D01*
X72130485Y-102891135D02*
X71564173Y-102479685D01*
X72269515Y-101508865D02*
X72835827Y-101920315D01*
X98055385Y-75203109D02*
X97705385Y-74596891D01*
X98744615Y-73996891D02*
X99094615Y-74603109D01*
X161640342Y-59817605D02*
X161785881Y-59132901D01*
X162959658Y-59382395D02*
X162814119Y-60067099D01*
X197708865Y-72430485D02*
X198120315Y-71864173D01*
X199091135Y-72569515D02*
X198679685Y-73135827D01*
X224896891Y-98255385D02*
X225503109Y-97905385D01*
X226103109Y-98944615D02*
X225496891Y-99294615D01*
X239489200Y-133539872D02*
X240185366Y-133466702D01*
X240310800Y-134660128D02*
X239614634Y-134733298D01*
X238452540Y-171221210D02*
X239118280Y-171437522D01*
X238747460Y-172578790D02*
X238081720Y-172362478D01*
X222141378Y-205319917D02*
X222661579Y-205788309D01*
X221858622Y-206680083D02*
X221338421Y-206211691D01*
X193505769Y-229836217D02*
X193790485Y-230475699D01*
X192694231Y-230963783D02*
X192409515Y-230324301D01*
X157400000Y-240650000D02*
X157400000Y-241350000D01*
X156200000Y-241350000D02*
X156200000Y-240650000D01*
X119990485Y-235824301D02*
X119705769Y-236463783D01*
X118609515Y-235975699D02*
X118894231Y-235336217D01*
X87561579Y-216311691D02*
X87041378Y-216780083D01*
X86238421Y-215888309D02*
X86758622Y-215419917D01*
X66218280Y-185062478D02*
X65552540Y-185278790D01*
X65181720Y-184137522D02*
X65847460Y-183921210D01*
X58985366Y-148133298D02*
X58289200Y-148060128D01*
X58414634Y-146866702D02*
X59110800Y-146939872D01*
X67503109Y-111194615D02*
X66896891Y-110844615D01*
X67496891Y-109805385D02*
X68103109Y-110155385D01*
X90520315Y-81135827D02*
X90108865Y-80569515D01*
X91079685Y-79864173D02*
X91491135Y-80430485D01*
X123685881Y-62767099D02*
X123540342Y-62082395D01*
X124714119Y-61832901D02*
X124859658Y-62517605D01*
X152266702Y-58885366D02*
X152339872Y-58189200D01*
X153533298Y-58314634D02*
X153460128Y-59010800D01*
X189105385Y-67903109D02*
X189455385Y-67296891D01*
X190494615Y-67896891D02*
X190144615Y-68503109D01*
X218964173Y-90620315D02*
X219530485Y-90208865D01*
X220235827Y-91179685D02*
X219669515Y-91591135D01*
X237132901Y-124085881D02*
X237817605Y-123940342D01*
X238067099Y-125114119D02*
X237382395Y-125259658D01*
X240282395Y-161740342D02*
X240967099Y-161885881D01*
X240717605Y-163059658D02*
X240032901Y-162914119D01*
X227669515Y-197508865D02*
X228235827Y-197920315D01*
X227530485Y-198891135D02*
X226964173Y-198479685D01*
X201644615Y-224996891D02*
X201994615Y-225603109D01*
X200955385Y-226203109D02*
X200605385Y-225596891D01*
X166660128Y-239789200D02*
X166733298Y-240485366D01*
X165539872Y-240610800D02*
X165466702Y-239914634D01*
X128778790Y-238452540D02*
X128562478Y-239118280D01*
X127421210Y-238747460D02*
X127637522Y-238081720D01*
X94880083Y-222341378D02*
X94411691Y-222861579D01*
X93519917Y-222058622D02*
X93988309Y-221538421D01*
X70263783Y-193705769D02*
X69624301Y-193990485D01*
X69136217Y-192894231D02*
X69775699Y-192609515D01*
X58750000Y-157500000D02*
X58050000Y-157500000D01*
X58050000Y-156300000D02*
X58750000Y-156300000D01*
X63975699Y-120090485D02*
X63336217Y-119805769D01*
X63824301Y-118709515D02*
X64463783Y-118994231D01*
X83688309Y-87661579D02*
X83219917Y-87141378D01*
X84111691Y-86338421D02*
X84580083Y-86858622D01*
X114837522Y-66118280D02*
X114621210Y-65452540D01*
X115762478Y-65081720D02*
X115978790Y-65747460D01*
X142600000Y-59150000D02*
X142600000Y-58450000D01*
X143800000Y-58450000D02*
X143800000Y-59150000D01*
X180309515Y-64275699D02*
X180594231Y-63636217D01*
X181690485Y-64124301D02*
X181405769Y-64763783D01*
X212438421Y-83788309D02*
X212958622Y-83319917D01*
X213761579Y-84211691D02*
X213241378Y-84680083D01*
X233981720Y-115037522D02*
X234647460Y-114821210D01*
X235018280Y-115962478D02*
X234352540Y-116178790D01*
X240914634Y-152066702D02*
X241610800Y-152139872D01*
X241485366Y-153333298D02*
X240789200Y-153260128D01*
X232296891Y-189105385D02*
X232903109Y-189455385D01*
X232303109Y-190494615D02*
X231696891Y-190144615D01*
X209179685Y-219064173D02*
X209591135Y-219630485D01*
X208620315Y-220335827D02*
X208208865Y-219769515D01*
X176014119Y-237232901D02*
X176159658Y-237917605D01*
X174985881Y-238167099D02*
X174840342Y-237482395D01*
X138359658Y-240282395D02*
X138214119Y-240967099D01*
X137040342Y-240717605D02*
X137185881Y-240032901D01*
X102591135Y-227669515D02*
X102179685Y-228235827D01*
X101208865Y-227530485D02*
X101620315Y-226964173D01*
X75203109Y-201944615D02*
X74596891Y-202294615D01*
X73996891Y-201255385D02*
X74603109Y-200905385D01*
X60610800Y-166960128D02*
X59914634Y-167033298D01*
X59789200Y-165839872D02*
X60485366Y-165766702D01*
X61447460Y-129178790D02*
X60781720Y-128962478D01*
X61152540Y-127821210D02*
X61818280Y-128037522D01*
X77458622Y-94880083D02*
X76938421Y-94411691D01*
X77741378Y-93519917D02*
X78261579Y-93988309D01*
X106494231Y-70163783D02*
X106209515Y-69524301D01*
X107305769Y-69036217D02*
X107590485Y-69675699D01*
X132839872Y-60510800D02*
X132766702Y-59814634D01*
X133960128Y-59689200D02*
X134033298Y-60385366D01*
X170021210Y-70147460D02*
X170237522Y-69481720D01*
X171378790Y-69852540D02*
X171162478Y-70518280D01*
X178778790Y-63452540D02*
X178562478Y-64118280D01*
X177421210Y-63747460D02*
X177637522Y-63081720D01*
X201319917Y-84858622D02*
X201788309Y-84338421D01*
X202680083Y-85141378D02*
X202211691Y-85661579D01*
X211580083Y-82741378D02*
X211111691Y-83261579D01*
X210219917Y-82458622D02*
X210688309Y-81938421D01*
X223143385Y-111384453D02*
X223787738Y-111110941D01*
X224256615Y-112215547D02*
X223612262Y-112489059D01*
X233563783Y-113605769D02*
X232924301Y-113890485D01*
X232436217Y-112794231D02*
X233075699Y-112509515D01*
X232150000Y-144400000D02*
X232850000Y-144400000D01*
X232850000Y-145600000D02*
X232150000Y-145600000D01*
X241150000Y-150700000D02*
X240450000Y-150700000D01*
X240450000Y-149500000D02*
X241150000Y-149500000D01*
X227150000Y-182300000D02*
X227850000Y-182300000D01*
X227850000Y-183500000D02*
X227150000Y-183500000D01*
X232575699Y-187690485D02*
X231936217Y-187405769D01*
X232424301Y-186309515D02*
X233063783Y-186594231D01*
X209411691Y-207538421D02*
X209880083Y-208058622D01*
X208988309Y-208861579D02*
X208519917Y-208341378D01*
X210088309Y-218261579D02*
X209619917Y-217741378D01*
X210511691Y-216938421D02*
X210980083Y-217458622D01*
X180662478Y-226881720D02*
X180878790Y-227547460D01*
X179737522Y-227918280D02*
X179521210Y-227252540D01*
X177237522Y-236718280D02*
X177021210Y-236052540D01*
X178162478Y-235681720D02*
X178378790Y-236347460D01*
X147033298Y-232914634D02*
X146960128Y-233610800D01*
X145766702Y-233485366D02*
X145839872Y-232789200D01*
X139866702Y-240285366D02*
X139939872Y-239589200D01*
X141133298Y-239714634D02*
X141060128Y-240410800D01*
X113494615Y-224396891D02*
X113144615Y-225003109D01*
X112105385Y-224403109D02*
X112455385Y-223796891D01*
X103905385Y-228403109D02*
X104255385Y-227796891D01*
X105294615Y-228396891D02*
X104944615Y-229003109D01*
X86435827Y-203179685D02*
X85869515Y-203591135D01*
X85164173Y-202620315D02*
X85730485Y-202208865D01*
X76064173Y-203020315D02*
X76630485Y-202608865D01*
X77335827Y-203579685D02*
X76769515Y-203991135D01*
X70267099Y-172714119D02*
X69582395Y-172859658D01*
X69332901Y-171685881D02*
X70017605Y-171540342D01*
X60732901Y-168385881D02*
X61417605Y-168240342D01*
X61667099Y-169414119D02*
X60982395Y-169559658D01*
X67917605Y-138659658D02*
X67232901Y-138514119D01*
X67482395Y-137340342D02*
X68167099Y-137485881D01*
X60982395Y-130740342D02*
X61667099Y-130885881D01*
X61417605Y-132059658D02*
X60732901Y-131914119D01*
X79430485Y-106091135D02*
X78864173Y-105679685D01*
X79569515Y-104708865D02*
X80135827Y-105120315D01*
X76469515Y-96308865D02*
X77035827Y-96720315D01*
X76330485Y-97691135D02*
X75764173Y-97279685D01*
X103555385Y-81103109D02*
X103205385Y-80496891D01*
X104244615Y-79896891D02*
X104594615Y-80503109D01*
X105044615Y-70796891D02*
X105394615Y-71403109D01*
X104355385Y-72003109D02*
X104005385Y-71396891D01*
X161540342Y-68117605D02*
X161685881Y-67432901D01*
X162859658Y-67682395D02*
X162714119Y-68367099D01*
X169259658Y-60882395D02*
X169114119Y-61567099D01*
X167940342Y-61317605D02*
X168085881Y-60632901D01*
X194406860Y-80054647D02*
X194798295Y-79474321D01*
X195793140Y-80145353D02*
X195401705Y-80725679D01*
X204391135Y-76869515D02*
X203979685Y-77435827D01*
X203008865Y-76730485D02*
X203420315Y-76164173D01*
X218596891Y-103855385D02*
X219203109Y-103505385D01*
X219803109Y-104544615D02*
X219196891Y-104894615D01*
X229203109Y-104844615D02*
X228596891Y-105194615D01*
X227996891Y-104155385D02*
X228603109Y-103805385D01*
X231589200Y-136039872D02*
X232285366Y-135966702D01*
X232410800Y-137160128D02*
X231714634Y-137233298D01*
X240710800Y-141160128D02*
X240014634Y-141233298D01*
X239889200Y-140039872D02*
X240585366Y-139966702D01*
X230152540Y-170121210D02*
X230818280Y-170337522D01*
X230447460Y-171478790D02*
X229781720Y-171262478D01*
X236447460Y-178878790D02*
X235781720Y-178662478D01*
X236152540Y-177521210D02*
X236818280Y-177737522D01*
X214841378Y-201219917D02*
X215361579Y-201688309D01*
X214558622Y-202580083D02*
X214038421Y-202111691D01*
X217058622Y-211580083D02*
X216538421Y-211111691D01*
X217341378Y-210219917D02*
X217861579Y-210688309D01*
X188405769Y-223336217D02*
X188690485Y-223975699D01*
X187594231Y-224463783D02*
X187309515Y-223824301D01*
X186094231Y-233563783D02*
X185809515Y-232924301D01*
X186905769Y-232436217D02*
X187190485Y-233075699D01*
X155600000Y-232650000D02*
X155600000Y-233350000D01*
X154400000Y-233350000D02*
X154400000Y-232650000D01*
X149400000Y-240850000D02*
X149400000Y-240150000D01*
X150600000Y-240150000D02*
X150600000Y-240850000D01*
X121690485Y-227824301D02*
X121405769Y-228463783D01*
X120309515Y-227975699D02*
X120594231Y-227336217D01*
X112609515Y-232875699D02*
X112894231Y-232236217D01*
X113990485Y-232724301D02*
X113705769Y-233363783D01*
X92261579Y-209611691D02*
X91741378Y-210080083D01*
X90938421Y-209188309D02*
X91458622Y-208719917D01*
X81938421Y-210288309D02*
X82458622Y-209819917D01*
X83261579Y-210711691D02*
X82741378Y-211180083D01*
X72700000Y-183250000D02*
X72000000Y-183250000D01*
X72000000Y-182050000D02*
X72700000Y-182050000D01*
X63181720Y-177737522D02*
X63847460Y-177521210D01*
X64218280Y-178662478D02*
X63552540Y-178878790D01*
X67185366Y-147333298D02*
X66489200Y-147260128D01*
X66614634Y-146066702D02*
X67310800Y-146139872D01*
X59614634Y-140166702D02*
X60310800Y-140239872D01*
X60185366Y-141433298D02*
X59489200Y-141360128D01*
X75403109Y-113694615D02*
X74796891Y-113344615D01*
X75396891Y-112305385D02*
X76003109Y-112655385D01*
X71496891Y-104105385D02*
X72103109Y-104455385D01*
X71503109Y-105494615D02*
X70896891Y-105144615D01*
X96620315Y-86435827D02*
X96208865Y-85869515D01*
X97179685Y-85164173D02*
X97591135Y-85730485D01*
X96879685Y-76164173D02*
X97291135Y-76730485D01*
X96320315Y-77435827D02*
X95908865Y-76869515D01*
X127185881Y-69967099D02*
X127040342Y-69282395D01*
X128214119Y-69032901D02*
X128359658Y-69717605D01*
X131614119Y-60732901D02*
X131759658Y-61417605D01*
X130585881Y-61667099D02*
X130440342Y-60982395D01*
X153166702Y-67185366D02*
X153239872Y-66489200D01*
X154433298Y-66614634D02*
X154360128Y-67310800D01*
X160133298Y-59214634D02*
X160060128Y-59910800D01*
X158866702Y-59785366D02*
X158939872Y-59089200D01*
X186605385Y-75603109D02*
X186955385Y-74996891D01*
X187994615Y-75596891D02*
X187644615Y-76203109D01*
X196294615Y-71396891D02*
X195944615Y-72003109D01*
X194905385Y-71403109D02*
X195255385Y-70796891D01*
X213264173Y-96620315D02*
X213830485Y-96208865D01*
X214535827Y-97179685D02*
X213969515Y-97591135D01*
X224035827Y-96779685D02*
X223469515Y-97191135D01*
X222764173Y-96220315D02*
X223330485Y-95808865D01*
X229532901Y-127485881D02*
X230217605Y-127340342D01*
X230467099Y-128514119D02*
X229782395Y-128659658D01*
X239367099Y-131614119D02*
X238682395Y-131759658D01*
X238432901Y-130585881D02*
X239117605Y-130440342D01*
X231682395Y-161640342D02*
X232367099Y-161785881D01*
X232117605Y-162959658D02*
X231432901Y-162814119D01*
X238817605Y-169659658D02*
X238132901Y-169514119D01*
X238382395Y-168340342D02*
X239067099Y-168485881D01*
X219969515Y-194108865D02*
X220535827Y-194520315D01*
X219830485Y-195491135D02*
X219264173Y-195079685D01*
X222830485Y-204291135D02*
X222264173Y-203879685D01*
X222969515Y-202908865D02*
X223535827Y-203320315D01*
X196044615Y-218796891D02*
X196394615Y-219403109D01*
X195355385Y-220003109D02*
X195005385Y-219396891D01*
X194655385Y-229203109D02*
X194305385Y-228596891D01*
X195344615Y-227996891D02*
X195694615Y-228603109D01*
X163960128Y-231789200D02*
X164033298Y-232485366D01*
X162839872Y-232610800D02*
X162766702Y-231914634D01*
X158639872Y-240810800D02*
X158566702Y-240114634D01*
X159760128Y-239989200D02*
X159833298Y-240685366D01*
X129678790Y-230252540D02*
X129462478Y-230918280D01*
X128321210Y-230547460D02*
X128537522Y-229881720D01*
X121021210Y-236247460D02*
X121237522Y-235581720D01*
X122378790Y-235952540D02*
X122162478Y-236618280D01*
X98880083Y-215241378D02*
X98411691Y-215761579D01*
X97519917Y-214958622D02*
X97988309Y-214438421D01*
X88619917Y-217158622D02*
X89088309Y-216638421D01*
X89980083Y-217441378D02*
X89511691Y-217961579D01*
X76863783Y-188705769D02*
X76224301Y-188990485D01*
X75736217Y-187894231D02*
X76375699Y-187609515D01*
X66636217Y-186494231D02*
X67275699Y-186209515D01*
X67763783Y-187305769D02*
X67124301Y-187590485D01*
X67650000Y-155700000D02*
X66950000Y-155700000D01*
X66950000Y-154500000D02*
X67650000Y-154500000D01*
X58950000Y-149600000D02*
X59650000Y-149600000D01*
X59650000Y-150800000D02*
X58950000Y-150800000D01*
X72950000Y-118800000D02*
X72250000Y-118800000D01*
X72250000Y-117600000D02*
X72950000Y-117600000D01*
X66924301Y-112809515D02*
X67563783Y-113094231D01*
X67075699Y-114190485D02*
X66436217Y-113905769D01*
X90288309Y-92261579D02*
X89819917Y-91741378D01*
X90711691Y-90938421D02*
X91180083Y-91458622D01*
X89211691Y-81938421D02*
X89680083Y-82458622D01*
X88788309Y-83261579D02*
X88319917Y-82741378D01*
X119037522Y-73018280D02*
X118821210Y-72352540D01*
X119962478Y-71981720D02*
X120178790Y-72647460D01*
X122362478Y-63181720D02*
X122578790Y-63847460D01*
X121437522Y-64218280D02*
X121221210Y-63552540D01*
X144400000Y-67350000D02*
X144400000Y-66650000D01*
X145600000Y-66650000D02*
X145600000Y-67350000D01*
X150700000Y-58950000D02*
X150700000Y-59650000D01*
X149500000Y-59650000D02*
X149500000Y-58950000D01*
X178509515Y-72375699D02*
X178794231Y-71736217D01*
X179890485Y-72224301D02*
X179605769Y-72863783D01*
X187690485Y-67024301D02*
X187405769Y-67663783D01*
X186309515Y-67175699D02*
X186594231Y-66536217D01*
X207338421Y-90488309D02*
X207858622Y-90019917D01*
X208661579Y-90911691D02*
X208141378Y-91380083D01*
X218161579Y-89311691D02*
X217641378Y-89780083D01*
X216838421Y-88888309D02*
X217358622Y-88419917D01*
X226650000Y-117200000D02*
X227350000Y-117200000D01*
X227350000Y-118400000D02*
X226650000Y-118400000D01*
X236818280Y-122362478D02*
X236152540Y-122578790D01*
X235781720Y-121437522D02*
X236447460Y-121221210D01*
X232514634Y-152866702D02*
X233210800Y-152939872D01*
X233085366Y-154133298D02*
X232389200Y-154060128D01*
X240485366Y-160033298D02*
X239789200Y-159960128D01*
X239914634Y-158766702D02*
X240610800Y-158839872D01*
X224296891Y-186605385D02*
X224903109Y-186955385D01*
X224303109Y-187994615D02*
X223696891Y-187644615D01*
X228203109Y-196294615D02*
X227596891Y-195944615D01*
X228196891Y-194905385D02*
X228803109Y-195255385D01*
X202879685Y-213364173D02*
X203291135Y-213930485D01*
X202320315Y-214635827D02*
X201908865Y-214069515D01*
X202920315Y-224135827D02*
X202508865Y-223569515D01*
X203479685Y-222864173D02*
X203891135Y-223430485D01*
X172514119Y-229832901D02*
X172659658Y-230517605D01*
X171485881Y-230767099D02*
X171340342Y-230082395D01*
X168185881Y-239067099D02*
X168040342Y-238382395D01*
X169214119Y-238132901D02*
X169359658Y-238817605D01*
X138459658Y-232082395D02*
X138314119Y-232767099D01*
X137140342Y-232517605D02*
X137285881Y-231832901D01*
X130240342Y-239017605D02*
X130385881Y-238332901D01*
X131559658Y-238582395D02*
X131414119Y-239267099D01*
X105791135Y-220169515D02*
X105379685Y-220735827D01*
X104408865Y-220030485D02*
X104820315Y-219464173D01*
X95908865Y-223130485D02*
X96320315Y-222564173D01*
X97291135Y-223269515D02*
X96879685Y-223835827D01*
X81103109Y-196444615D02*
X80496891Y-196794615D01*
X79896891Y-195755385D02*
X80503109Y-195405385D01*
X70996891Y-194955385D02*
X71603109Y-194605385D01*
X72203109Y-195644615D02*
X71596891Y-195994615D01*
X68510800Y-164360128D02*
X67814634Y-164433298D01*
X67689200Y-163239872D02*
X68385366Y-163166702D01*
X59289200Y-159139872D02*
X59985366Y-159066702D01*
X60110800Y-160260128D02*
X59414634Y-160333298D01*
X69647460Y-129978790D02*
X68981720Y-129762478D01*
X69352540Y-128621210D02*
X70018280Y-128837522D01*
X63552540Y-121521210D02*
X64218280Y-121737522D01*
X63847460Y-122878790D02*
X63181720Y-122662478D01*
X84658622Y-98880083D02*
X84138421Y-98411691D01*
X84941378Y-97519917D02*
X85461579Y-97988309D01*
X82541378Y-88819917D02*
X83061579Y-89288309D01*
X82258622Y-90180083D02*
X81738421Y-89711691D01*
X111394231Y-76563783D02*
X111109515Y-75924301D01*
X112205769Y-75436217D02*
X112490485Y-76075699D01*
X113605769Y-66536217D02*
X113890485Y-67175699D01*
X112794231Y-67663783D02*
X112509515Y-67024301D01*
X135539872Y-68210800D02*
X135466702Y-67514634D01*
X136660128Y-67389200D02*
X136733298Y-68085366D01*
X140960128Y-59389200D02*
X141033298Y-60085366D01*
X139839872Y-60210800D02*
X139766702Y-59514634D01*
X164125000Y-106300000D02*
X164125000Y-105300000D01*
X165475000Y-105300000D02*
X165475000Y-106300000D01*
X162425000Y-106300000D02*
X162425000Y-105300000D01*
X163775000Y-105300000D02*
X163775000Y-106300000D01*
X141300000Y-184425000D02*
X142300000Y-184425000D01*
X142300000Y-185775000D02*
X141300000Y-185775000D01*
X161475000Y-97700000D02*
X161475000Y-98700000D01*
X160125000Y-98700000D02*
X160125000Y-97700000D01*
X164425000Y-162200000D02*
X164425000Y-163200000D01*
X163075000Y-163200000D02*
X163075000Y-162200000D01*
X139125000Y-132500000D02*
X139125000Y-131500000D01*
X140475000Y-131500000D02*
X140475000Y-132500000D01*
X138600000Y-87675000D02*
X137600000Y-87675000D01*
X137600000Y-86325000D02*
X138600000Y-86325000D01*
X140725000Y-132500000D02*
X140725000Y-131500000D01*
X142075000Y-131500000D02*
X142075000Y-132500000D01*
X77175000Y-176200000D02*
X77175000Y-177200000D01*
X75825000Y-177200000D02*
X75825000Y-176200000D01*
X79675000Y-176200000D02*
X79675000Y-177200000D01*
X78325000Y-177200000D02*
X78325000Y-176200000D01*
X143225000Y-168600000D02*
X143225000Y-167600000D01*
X144575000Y-167600000D02*
X144575000Y-168600000D01*
X74675000Y-122700000D02*
X74675000Y-123700000D01*
X73325000Y-123700000D02*
X73325000Y-122700000D01*
X78325000Y-123700000D02*
X78325000Y-122700000D01*
X79675000Y-122700000D02*
X79675000Y-123700000D01*
X146025000Y-168600000D02*
X146025000Y-167600000D01*
X147375000Y-167600000D02*
X147375000Y-168600000D01*
X72075000Y-122700000D02*
X72075000Y-123700000D01*
X70725000Y-123700000D02*
X70725000Y-122700000D01*
X80925000Y-123700000D02*
X80925000Y-122700000D01*
X82275000Y-122700000D02*
X82275000Y-123700000D01*
X73325000Y-177200000D02*
X73325000Y-176200000D01*
X74675000Y-176200000D02*
X74675000Y-177200000D01*
X75825000Y-123700000D02*
X75825000Y-122700000D01*
X77175000Y-122700000D02*
X77175000Y-123700000D01*
X144625000Y-168600000D02*
X144625000Y-167600000D01*
X145975000Y-167600000D02*
X145975000Y-168600000D01*
X139425000Y-168700000D02*
X139425000Y-167700000D01*
X140775000Y-167700000D02*
X140775000Y-168700000D01*
X136625000Y-168700000D02*
X136625000Y-167700000D01*
X137975000Y-167700000D02*
X137975000Y-168700000D01*
X126075000Y-176200000D02*
X126075000Y-177200000D01*
X124725000Y-177200000D02*
X124725000Y-176200000D01*
X138025000Y-168700000D02*
X138025000Y-167700000D01*
X139375000Y-167700000D02*
X139375000Y-168700000D01*
X128675000Y-176200000D02*
X128675000Y-177200000D01*
X127325000Y-177200000D02*
X127325000Y-176200000D01*
X123675000Y-122700000D02*
X123675000Y-123700000D01*
X122325000Y-123700000D02*
X122325000Y-122700000D01*
X127425000Y-123700000D02*
X127425000Y-122700000D01*
X128775000Y-122700000D02*
X128775000Y-123700000D01*
X121075000Y-122700000D02*
X121075000Y-123700000D01*
X119725000Y-123700000D02*
X119725000Y-122700000D01*
X129925000Y-123700000D02*
X129925000Y-122700000D01*
X131275000Y-122700000D02*
X131275000Y-123700000D01*
X122225000Y-177200000D02*
X122225000Y-176200000D01*
X123575000Y-176200000D02*
X123575000Y-177200000D01*
X124825000Y-123700000D02*
X124825000Y-122700000D01*
X126175000Y-122700000D02*
X126175000Y-123700000D01*
X168325000Y-106300000D02*
X168325000Y-105300000D01*
X169675000Y-105300000D02*
X169675000Y-106300000D01*
X165825000Y-106300000D02*
X165825000Y-105300000D01*
X167175000Y-105300000D02*
X167175000Y-106300000D01*
X175175000Y-176200000D02*
X175175000Y-177200000D01*
X173825000Y-177200000D02*
X173825000Y-176200000D01*
X177675000Y-176200000D02*
X177675000Y-177200000D01*
X176325000Y-177200000D02*
X176325000Y-176200000D01*
X172675000Y-122700000D02*
X172675000Y-123700000D01*
X171325000Y-123700000D02*
X171325000Y-122700000D01*
X176425000Y-123700000D02*
X176425000Y-122700000D01*
X177775000Y-122700000D02*
X177775000Y-123700000D01*
X170075000Y-122700000D02*
X170075000Y-123700000D01*
X168725000Y-123700000D02*
X168725000Y-122700000D01*
X178925000Y-123700000D02*
X178925000Y-122700000D01*
X180275000Y-122700000D02*
X180275000Y-123700000D01*
X171325000Y-177200000D02*
X171325000Y-176200000D01*
X172675000Y-176200000D02*
X172675000Y-177200000D01*
X173925000Y-123700000D02*
X173925000Y-122700000D01*
X175275000Y-122700000D02*
X175275000Y-123700000D01*
X224175000Y-176200000D02*
X224175000Y-177200000D01*
X222825000Y-177200000D02*
X222825000Y-176200000D01*
X226675000Y-176200000D02*
X226675000Y-177200000D01*
X225325000Y-177200000D02*
X225325000Y-176200000D01*
X221675000Y-122700000D02*
X221675000Y-123700000D01*
X220325000Y-123700000D02*
X220325000Y-122700000D01*
X225425000Y-123700000D02*
X225425000Y-122700000D01*
X226775000Y-122700000D02*
X226775000Y-123700000D01*
X219075000Y-122700000D02*
X219075000Y-123700000D01*
X217725000Y-123700000D02*
X217725000Y-122700000D01*
X227925000Y-123700000D02*
X227925000Y-122700000D01*
X229275000Y-122700000D02*
X229275000Y-123700000D01*
X220325000Y-177200000D02*
X220325000Y-176200000D01*
X221675000Y-176200000D02*
X221675000Y-177200000D01*
X222825000Y-123700000D02*
X222825000Y-122700000D01*
X224175000Y-122700000D02*
X224175000Y-123700000D01*
X146175000Y-185700000D02*
X146175000Y-186700000D01*
X144825000Y-186700000D02*
X144825000Y-185700000D01*
X144825000Y-190800000D02*
X144825000Y-189800000D01*
X146175000Y-189800000D02*
X146175000Y-190800000D01*
X172796472Y-65833058D02*
X172487455Y-66784115D01*
X171203528Y-66366942D02*
X171512545Y-65415885D01*
X176033058Y-65403528D02*
X176984115Y-65712545D01*
X176566942Y-66996472D02*
X175615885Y-66687455D01*
X205536188Y-82080091D02*
X204867057Y-82823236D01*
X203863812Y-81919909D02*
X204532943Y-81176764D01*
X208480091Y-83263812D02*
X209223236Y-83932943D01*
X208319909Y-84936188D02*
X207576764Y-84267057D01*
X228123996Y-110625975D02*
X227203491Y-111016706D01*
X226676004Y-109774025D02*
X227596509Y-109383294D01*
X230413275Y-112968680D02*
X230820012Y-113882225D01*
X229586725Y-114431320D02*
X229179988Y-113517775D01*
X237200000Y-145675000D02*
X236200000Y-145675000D01*
X236200000Y-144325000D02*
X237200000Y-144325000D01*
X238475000Y-148700000D02*
X238475000Y-149700000D01*
X237125000Y-149700000D02*
X237125000Y-148700000D01*
X231600000Y-182375000D02*
X230600000Y-182375000D01*
X230600000Y-181025000D02*
X231600000Y-181025000D01*
X231120012Y-184817775D02*
X230713275Y-185731320D01*
X229479988Y-185182225D02*
X229886725Y-184268680D01*
X211732943Y-212023236D02*
X211063812Y-211280091D01*
X212067057Y-210376764D02*
X212736188Y-211119909D01*
X210023236Y-214967057D02*
X209280091Y-215636188D01*
X208376764Y-214632943D02*
X209119909Y-213963812D01*
X181012545Y-231884115D02*
X180703528Y-230933058D01*
X181987455Y-230515885D02*
X182296472Y-231466942D01*
X178484115Y-233687455D02*
X177533058Y-233996472D01*
X177115885Y-232712545D02*
X178066942Y-232403528D01*
X145276433Y-237526704D02*
X145380962Y-236532182D01*
X146723567Y-236673296D02*
X146619038Y-237667818D01*
X142526704Y-238023567D02*
X141532182Y-237919038D01*
X141673296Y-236576433D02*
X142667818Y-236680962D01*
X109965433Y-227995513D02*
X110465433Y-227129487D01*
X111634567Y-227804487D02*
X111134567Y-228670513D01*
X107195513Y-227434567D02*
X106329487Y-226934567D01*
X107004487Y-225765433D02*
X107870513Y-226265433D01*
X81798736Y-205047806D02*
X82607753Y-204460021D01*
X83401264Y-205552194D02*
X82592247Y-206139979D01*
X79447806Y-203401264D02*
X78860021Y-202592247D01*
X79952194Y-201798736D02*
X80539979Y-202607753D01*
X65270586Y-172543706D02*
X66248733Y-172335795D01*
X66529414Y-173656294D02*
X65551267Y-173864205D01*
X63643706Y-170129414D02*
X63435795Y-169151267D01*
X64756294Y-168870586D02*
X64964205Y-169848733D01*
X63451267Y-136435795D02*
X64429414Y-136643706D01*
X64148733Y-137964205D02*
X63170586Y-137756294D01*
X62935795Y-133548733D02*
X63143706Y-132570586D01*
X64464205Y-132851267D02*
X64256294Y-133829414D01*
X76292247Y-102260021D02*
X77101264Y-102847806D01*
X76307753Y-103939979D02*
X75498736Y-103352194D01*
X77260021Y-99507753D02*
X77847806Y-98698736D01*
X78939979Y-99492247D02*
X78352194Y-100301264D01*
X102234567Y-76329487D02*
X102734567Y-77195513D01*
X101565433Y-77870513D02*
X101065433Y-77004487D01*
X104329487Y-74065433D02*
X105195513Y-73565433D01*
X105870513Y-74734567D02*
X105004487Y-75234567D01*
X163764205Y-63651267D02*
X163556294Y-64629414D01*
X162235795Y-64348733D02*
X162443706Y-63370586D01*
X166851267Y-63135795D02*
X167829414Y-63343706D01*
X167548733Y-64664205D02*
X166570586Y-64456294D01*
X198239197Y-76762936D02*
X197680004Y-77591974D01*
X196560803Y-76837064D02*
X197119996Y-76008026D01*
X201192247Y-77660021D02*
X202001264Y-78247806D01*
X201207753Y-79339979D02*
X200398736Y-78752194D01*
X223470513Y-102534567D02*
X222604487Y-103034567D01*
X221929487Y-101865433D02*
X222795513Y-101365433D01*
X226134567Y-104429487D02*
X226634567Y-105295513D01*
X225465433Y-105970513D02*
X224965433Y-105104487D01*
X236567818Y-136819038D02*
X235573296Y-136923567D01*
X235432182Y-135580962D02*
X236426704Y-135476433D01*
X237819038Y-139632182D02*
X237923567Y-140626704D01*
X236580962Y-140767818D02*
X236476433Y-139773296D01*
X234366942Y-172896472D02*
X233415885Y-172587455D01*
X233833058Y-171303528D02*
X234784115Y-171612545D01*
X234596472Y-176033058D02*
X234287455Y-176984115D01*
X233003528Y-176566942D02*
X233312545Y-175615885D01*
X217619909Y-205436188D02*
X216876764Y-204767057D01*
X217780091Y-203763812D02*
X218523236Y-204432943D01*
X216436188Y-208480091D02*
X215767057Y-209223236D01*
X214763812Y-208319909D02*
X215432943Y-207576764D01*
X189286725Y-228331320D02*
X188879988Y-227417775D01*
X190113275Y-226868680D02*
X190520012Y-227782225D01*
X187031320Y-230413275D02*
X186117775Y-230820012D01*
X185568680Y-229586725D02*
X186482225Y-229179988D01*
X154325000Y-237400000D02*
X154325000Y-236400000D01*
X155675000Y-236400000D02*
X155675000Y-237400000D01*
X151300000Y-238375000D02*
X150300000Y-238375000D01*
X150300000Y-237025000D02*
X151300000Y-237025000D01*
X118579988Y-231682225D02*
X118986725Y-230768680D01*
X120220012Y-231317775D02*
X119813275Y-232231320D01*
X115482225Y-231520012D02*
X114568680Y-231113275D01*
X115117775Y-229879988D02*
X116031320Y-230286725D01*
X87776764Y-211932943D02*
X88519909Y-211263812D01*
X89423236Y-212267057D02*
X88680091Y-212936188D01*
X85232943Y-210323236D02*
X84563812Y-209580091D01*
X85567057Y-208676764D02*
X86236188Y-209419909D01*
X68015885Y-181312545D02*
X68966942Y-181003528D01*
X69384115Y-182287455D02*
X68433058Y-182596472D01*
X66212545Y-178984115D02*
X65903528Y-178033058D01*
X67187455Y-177615885D02*
X67496472Y-178566942D01*
X62473296Y-145576433D02*
X63467818Y-145680962D01*
X63326704Y-147023567D02*
X62332182Y-146919038D01*
X61876433Y-142626704D02*
X61980962Y-141632182D01*
X63323567Y-141773296D02*
X63219038Y-142767818D01*
X71804487Y-110165433D02*
X72670513Y-110665433D01*
X71995513Y-111834567D02*
X71129487Y-111334567D01*
X72565433Y-107295513D02*
X73065433Y-106429487D01*
X74234567Y-107104487D02*
X73734567Y-107970513D01*
X94752194Y-81798736D02*
X95339979Y-82607753D01*
X94247806Y-83401264D02*
X93660021Y-82592247D01*
X96698736Y-79447806D02*
X97507753Y-78860021D01*
X98301264Y-79952194D02*
X97492247Y-80539979D01*
X127356294Y-64970586D02*
X127564205Y-65948733D01*
X126243706Y-66229414D02*
X126035795Y-65251267D01*
X130070586Y-63643706D02*
X131048733Y-63435795D01*
X131329414Y-64756294D02*
X130351267Y-64964205D01*
X154923567Y-62473296D02*
X154819038Y-63467818D01*
X153476433Y-63326704D02*
X153580962Y-62332182D01*
X157973296Y-61576433D02*
X158967818Y-61680962D01*
X158826704Y-63023567D02*
X157832182Y-62919038D01*
X190134567Y-72104487D02*
X189634567Y-72970513D01*
X188465433Y-72295513D02*
X188965433Y-71429487D01*
X193304487Y-72465433D02*
X194170513Y-72965433D01*
X193495513Y-74134567D02*
X192629487Y-73634567D01*
X218001264Y-94852194D02*
X217192247Y-95439979D01*
X216398736Y-94347806D02*
X217207753Y-93760021D01*
X220752194Y-96698736D02*
X221339979Y-97507753D01*
X220247806Y-98301264D02*
X219660021Y-97492247D01*
X234529414Y-127656294D02*
X233551267Y-127864205D01*
X233270586Y-126543706D02*
X234248733Y-126335795D01*
X236256294Y-130370586D02*
X236464205Y-131348733D01*
X235143706Y-131629414D02*
X234935795Y-130651267D01*
X236248733Y-163964205D02*
X235270586Y-163756294D01*
X235551267Y-162435795D02*
X236529414Y-162643706D01*
X236664205Y-167151267D02*
X236456294Y-168129414D01*
X235135795Y-167848733D02*
X235343706Y-166870586D01*
X223107753Y-198039979D02*
X222298736Y-197452194D01*
X223092247Y-196360021D02*
X223901264Y-196947806D01*
X222039979Y-200992247D02*
X221452194Y-201801264D01*
X220360021Y-201007753D02*
X220947806Y-200198736D01*
X197365433Y-223670513D02*
X196865433Y-222804487D01*
X198034567Y-222129487D02*
X198534567Y-222995513D01*
X195270513Y-226034567D02*
X194404487Y-226534567D01*
X193729487Y-225365433D02*
X194595513Y-224865433D01*
X163180962Y-236667818D02*
X163076433Y-235673296D01*
X164419038Y-235532182D02*
X164523567Y-236526704D01*
X160567818Y-238119038D02*
X159573296Y-238223567D01*
X159432182Y-236880962D02*
X160426704Y-236776433D01*
X126903528Y-234466942D02*
X127212545Y-233515885D01*
X128496472Y-233933058D02*
X128187455Y-234884115D01*
X123966942Y-234596472D02*
X123015885Y-234287455D01*
X123433058Y-233003528D02*
X124384115Y-233312545D01*
X94663812Y-218019909D02*
X95332943Y-217276764D01*
X96336188Y-218180091D02*
X95667057Y-218923236D01*
X91919909Y-216836188D02*
X91176764Y-216167057D01*
X92080091Y-215163812D02*
X92823236Y-215832943D01*
X71868680Y-189586725D02*
X72782225Y-189179988D01*
X73331320Y-190413275D02*
X72417775Y-190820012D01*
X69786725Y-187431320D02*
X69379988Y-186517775D01*
X70613275Y-185968680D02*
X71020012Y-186882225D01*
X62700000Y-154425000D02*
X63700000Y-154425000D01*
X63700000Y-155775000D02*
X62700000Y-155775000D01*
X61525000Y-151800000D02*
X61525000Y-150800000D01*
X62875000Y-150800000D02*
X62875000Y-151800000D01*
X68117775Y-118679988D02*
X69031320Y-119086725D01*
X68482225Y-120320012D02*
X67568680Y-119913275D01*
X68279988Y-115782225D02*
X68686725Y-114868680D01*
X69920012Y-115417775D02*
X69513275Y-116331320D01*
X87967057Y-87876764D02*
X88636188Y-88619909D01*
X87632943Y-89523236D02*
X86963812Y-88780091D01*
X89276764Y-85132943D02*
X90019909Y-84463812D01*
X90923236Y-85467057D02*
X90180091Y-86136188D01*
X118687455Y-68015885D02*
X118996472Y-68966942D01*
X117712545Y-69384115D02*
X117403528Y-68433058D01*
X121115885Y-66112545D02*
X122066942Y-65803528D01*
X122484115Y-67087455D02*
X121533058Y-67396472D01*
X145675000Y-62500000D02*
X145675000Y-63500000D01*
X144325000Y-63500000D02*
X144325000Y-62500000D01*
X148600000Y-61425000D02*
X149600000Y-61425000D01*
X149600000Y-62775000D02*
X148600000Y-62775000D01*
X181620012Y-68517775D02*
X181213275Y-69431320D01*
X179979988Y-68882225D02*
X180386725Y-67968680D01*
X184717775Y-68379988D02*
X185631320Y-68786725D01*
X185082225Y-70020012D02*
X184168680Y-69613275D01*
X212023236Y-88067057D02*
X211280091Y-88736188D01*
X210376764Y-87732943D02*
X211119909Y-87063812D01*
X214767057Y-89576764D02*
X215436188Y-90319909D01*
X214432943Y-91223236D02*
X213763812Y-90480091D01*
X231500000Y-118475000D02*
X230500000Y-118475000D01*
X230500000Y-117125000D02*
X231500000Y-117125000D01*
X233687455Y-121415885D02*
X233996472Y-122366942D01*
X232712545Y-122784115D02*
X232403528Y-121833058D01*
X237226704Y-154623567D02*
X236232182Y-154519038D01*
X236373296Y-153176433D02*
X237367818Y-153280962D01*
X237923567Y-157873296D02*
X237819038Y-158867818D01*
X236476433Y-158726704D02*
X236580962Y-157732182D01*
X227895513Y-190134567D02*
X227029487Y-189634567D01*
X227704487Y-188465433D02*
X228570513Y-188965433D01*
X226934567Y-193304487D02*
X226434567Y-194170513D01*
X225265433Y-193495513D02*
X225765433Y-192629487D01*
X204747806Y-218101264D02*
X204160021Y-217292247D01*
X205252194Y-216498736D02*
X205839979Y-217307753D01*
X203001264Y-220752194D02*
X202192247Y-221339979D01*
X201398736Y-220247806D02*
X202207753Y-219660021D01*
X172343706Y-234829414D02*
X172135795Y-233851267D01*
X173456294Y-233570586D02*
X173664205Y-234548733D01*
X169629414Y-236156294D02*
X168651267Y-236364205D01*
X168370586Y-235043706D02*
X169348733Y-234835795D01*
X136135795Y-236548733D02*
X136343706Y-235570586D01*
X137664205Y-235851267D02*
X137456294Y-236829414D01*
X132948733Y-237064205D02*
X131970586Y-236856294D01*
X132251267Y-235535795D02*
X133229414Y-235743706D01*
X101960021Y-223407753D02*
X102547806Y-222598736D01*
X103639979Y-223392247D02*
X103052194Y-224201264D01*
X99207753Y-222539979D02*
X98398736Y-221952194D01*
X99192247Y-220860021D02*
X100001264Y-221447806D01*
X76329487Y-197765433D02*
X77195513Y-197265433D01*
X77870513Y-198434567D02*
X77004487Y-198934567D01*
X74265433Y-195670513D02*
X73765433Y-194804487D01*
X74934567Y-194129487D02*
X75434567Y-194995513D01*
X63532182Y-163580962D02*
X64526704Y-163476433D01*
X64667818Y-164819038D02*
X63673296Y-164923567D01*
X62080962Y-160967818D02*
X61976433Y-159973296D01*
X63319038Y-159832182D02*
X63423567Y-160826704D01*
X65433058Y-127303528D02*
X66384115Y-127612545D01*
X65966942Y-128896472D02*
X65015885Y-128587455D01*
X65303528Y-124266942D02*
X65612545Y-123315885D01*
X66896472Y-123733058D02*
X66587455Y-124684115D01*
X81880091Y-94763812D02*
X82623236Y-95432943D01*
X81719909Y-96436188D02*
X80976764Y-95767057D01*
X82963812Y-92019909D02*
X83632943Y-91276764D01*
X84636188Y-92180091D02*
X83967057Y-92923236D01*
X110513275Y-71668680D02*
X110920012Y-72582225D01*
X109686725Y-73131320D02*
X109279988Y-72217775D01*
X112668680Y-69586725D02*
X113582225Y-69179988D01*
X114131320Y-70413275D02*
X113217775Y-70820012D01*
X136319038Y-63232182D02*
X136423567Y-64226704D01*
X135080962Y-64367818D02*
X134976433Y-63373296D01*
X139032182Y-62080962D02*
X140026704Y-61976433D01*
X140167818Y-63319038D02*
X139173296Y-63423567D01*
X173631061Y-60103731D02*
X173960417Y-59895601D01*
X173960417Y-59895601D02*
X174103354Y-59784472D01*
X174103354Y-59784472D02*
X173841196Y-60591310D01*
X173761575Y-58567746D02*
X173205078Y-60280465D01*
X173761575Y-58567746D02*
X174379990Y-58768681D01*
X178042166Y-59958594D02*
X177485670Y-61671314D01*
X178042166Y-59958594D02*
X177423751Y-59757659D01*
X208253817Y-77477825D02*
X208639352Y-77421649D01*
X208639352Y-77421649D02*
X208815131Y-77378265D01*
X208815131Y-77378265D02*
X208247468Y-78008720D01*
X208997788Y-76127717D02*
X207792778Y-77466017D01*
X208997788Y-76127717D02*
X209481011Y-76562812D01*
X212342594Y-79139393D02*
X211137583Y-80477693D01*
X212342594Y-79139393D02*
X211859371Y-78704298D01*
X232643921Y-107445952D02*
X233018974Y-107551445D01*
X233018974Y-107551445D02*
X233197202Y-107583308D01*
X233197202Y-107583308D02*
X232422187Y-107928367D01*
X233872711Y-106515168D02*
X232227544Y-107247644D01*
X233872711Y-106515168D02*
X234137188Y-107109192D01*
X235703384Y-110626926D02*
X234058217Y-111359402D01*
X235703384Y-110626926D02*
X235438908Y-110032903D01*
X242699340Y-144600080D02*
X242999060Y-144849000D01*
X242999060Y-144849000D02*
X243148920Y-144950600D01*
X243148920Y-144950600D02*
X242300560Y-144950600D01*
X244200480Y-144249560D02*
X242399620Y-144249560D01*
X244200480Y-144249560D02*
X244200480Y-144899800D01*
X244200480Y-148750440D02*
X242399620Y-148750440D01*
X244200480Y-148750440D02*
X244200480Y-148100200D01*
X236889455Y-182882721D02*
X237062018Y-183232028D01*
X237062018Y-183232028D02*
X237157597Y-183385798D01*
X237157597Y-183385798D02*
X236382582Y-183040738D01*
X238403384Y-183173074D02*
X236758217Y-182440598D01*
X238403384Y-183173074D02*
X238138908Y-183767097D01*
X236572711Y-187284832D02*
X234927544Y-186552356D01*
X236572711Y-187284832D02*
X236837188Y-186690808D01*
X216177648Y-215379586D02*
X216193216Y-215768881D01*
X216193216Y-215768881D02*
X216217989Y-215948233D01*
X216217989Y-215948233D02*
X215650325Y-215317778D01*
X217442594Y-216260607D02*
X216237583Y-214922307D01*
X217442594Y-216260607D02*
X216959371Y-216695702D01*
X214097788Y-219272283D02*
X212892778Y-217933983D01*
X214097788Y-219272283D02*
X214581011Y-218837188D01*
X183744924Y-236622053D02*
X183600806Y-236984025D01*
X183600806Y-236984025D02*
X183550487Y-237157946D01*
X183550487Y-237157946D02*
X183288330Y-236351108D01*
X184542166Y-237941406D02*
X183985670Y-236228686D01*
X184542166Y-237941406D02*
X183923751Y-238142341D01*
X180261575Y-239332254D02*
X179705078Y-237619535D01*
X180261575Y-239332254D02*
X180879990Y-239131319D01*
X145810487Y-242899035D02*
X145531601Y-243171094D01*
X145531601Y-243171094D02*
X145414893Y-243309513D01*
X145414893Y-243309513D02*
X145503571Y-242465800D01*
X146002175Y-244428591D02*
X146190416Y-242637596D01*
X146002175Y-244428591D02*
X145355497Y-244360622D01*
X141525951Y-243958121D02*
X141714192Y-242167126D01*
X141525951Y-243958121D02*
X142172629Y-244026089D01*
X108345709Y-233076183D02*
X107980278Y-233211288D01*
X107980278Y-233211288D02*
X107817360Y-233290271D01*
X107817360Y-233290271D02*
X108241540Y-232555570D01*
X107898698Y-234551469D02*
X108799128Y-232991878D01*
X107898698Y-234551469D02*
X107335574Y-234226349D01*
X104000822Y-232301029D02*
X104901252Y-230741438D01*
X104000822Y-232301029D02*
X104563946Y-232626149D01*
X78179082Y-209019123D02*
X77790292Y-208993913D01*
X77790292Y-208993913D02*
X77609334Y-208999802D01*
X77609334Y-208999802D02*
X78295672Y-208501149D01*
X77170665Y-210185047D02*
X78627591Y-209126528D01*
X77170665Y-210185047D02*
X76788464Y-209658992D01*
X74525114Y-206543759D02*
X75982040Y-205485240D01*
X74525114Y-206543759D02*
X74907316Y-207069814D01*
X60291291Y-174716683D02*
X59946367Y-174535517D01*
X59946367Y-174535517D02*
X59778658Y-174467295D01*
X59778658Y-174467295D02*
X60608479Y-174290911D01*
X58895831Y-175371647D02*
X60657338Y-174997228D01*
X58895831Y-175371647D02*
X58760639Y-174735617D01*
X57960046Y-170969123D02*
X59721553Y-170594703D01*
X57960046Y-170969123D02*
X58095238Y-171605153D01*
X58001260Y-136400122D02*
X57759842Y-136094326D01*
X57759842Y-136094326D02*
X57634381Y-135963789D01*
X57634381Y-135963789D02*
X58464202Y-136140172D01*
X56460046Y-136430877D02*
X58221553Y-136805297D01*
X56460046Y-136430877D02*
X56595238Y-135794847D01*
X57395831Y-132028353D02*
X59157338Y-132402772D01*
X57395831Y-132028353D02*
X57260639Y-132664383D01*
X71445592Y-100055013D02*
X71349425Y-99677461D01*
X71349425Y-99677461D02*
X71287905Y-99507179D01*
X71287905Y-99507179D02*
X71974243Y-100005833D01*
X70025114Y-99456241D02*
X71482040Y-100514760D01*
X70025114Y-99456241D02*
X70407316Y-98930186D01*
X72670665Y-95814953D02*
X74127591Y-96873472D01*
X72670665Y-95814953D02*
X72288464Y-96341008D01*
X98654951Y-72323737D02*
X98720662Y-71939712D01*
X98720662Y-71939712D02*
X98733720Y-71759129D01*
X98733720Y-71759129D02*
X99157900Y-72493830D01*
X97600822Y-71198971D02*
X98501252Y-72758562D01*
X97600822Y-71198971D02*
X98163946Y-70873851D01*
X101498698Y-68948531D02*
X102399128Y-70508122D01*
X101498698Y-68948531D02*
X100935574Y-69273651D01*
X163899878Y-58101260D02*
X164205674Y-57859842D01*
X164205674Y-57859842D02*
X164336211Y-57734381D01*
X164336211Y-57734381D02*
X164159828Y-58564202D01*
X163869123Y-56560046D02*
X163494703Y-58321553D01*
X163869123Y-56560046D02*
X164505153Y-56695238D01*
X168271647Y-57495831D02*
X167897228Y-59257338D01*
X168271647Y-57495831D02*
X167635617Y-57360639D01*
X200544987Y-71845592D02*
X200922539Y-71749425D01*
X200922539Y-71749425D02*
X201092821Y-71687905D01*
X201092821Y-71687905D02*
X200594167Y-72374243D01*
X201143759Y-70425114D02*
X200085240Y-71882040D01*
X201143759Y-70425114D02*
X201669814Y-70807316D01*
X204785047Y-73070665D02*
X203726528Y-74527591D01*
X204785047Y-73070665D02*
X204258992Y-72688464D01*
X227676263Y-98854951D02*
X228060288Y-98920662D01*
X228060288Y-98920662D02*
X228240871Y-98933720D01*
X228240871Y-98933720D02*
X227506170Y-99357900D01*
X228801029Y-97800822D02*
X227241438Y-98701252D01*
X228801029Y-97800822D02*
X229126149Y-98363946D01*
X231051469Y-101698698D02*
X229491878Y-102599128D01*
X231051469Y-101698698D02*
X230726349Y-101135574D01*
X241801844Y-135131463D02*
X242125941Y-135347690D01*
X242125941Y-135347690D02*
X242285600Y-135433069D01*
X242285600Y-135433069D02*
X241441887Y-135521746D01*
X243258121Y-134625951D02*
X241467126Y-134814192D01*
X243258121Y-134625951D02*
X243326089Y-135272629D01*
X243728591Y-139102175D02*
X241937596Y-139290416D01*
X243728591Y-139102175D02*
X243660622Y-138455497D01*
X239896269Y-173631061D02*
X240104399Y-173960417D01*
X240104399Y-173960417D02*
X240215528Y-174103354D01*
X240215528Y-174103354D02*
X239408690Y-173841196D01*
X241432254Y-173761575D02*
X239719535Y-173205078D01*
X241432254Y-173761575D02*
X241231319Y-174379990D01*
X240041406Y-178042166D02*
X238328686Y-177485670D01*
X240041406Y-178042166D02*
X240242341Y-177423751D01*
X222422175Y-208253817D02*
X222478351Y-208639352D01*
X222478351Y-208639352D02*
X222521735Y-208815131D01*
X222521735Y-208815131D02*
X221891280Y-208247468D01*
X223772283Y-208997788D02*
X222433983Y-207792778D01*
X223772283Y-208997788D02*
X223337188Y-209481011D01*
X220760607Y-212342594D02*
X219422307Y-211137583D01*
X220760607Y-212342594D02*
X221195702Y-211859371D01*
X192554048Y-232643921D02*
X192448555Y-233018974D01*
X192448555Y-233018974D02*
X192416692Y-233197202D01*
X192416692Y-233197202D02*
X192071633Y-232422187D01*
X193484832Y-233872711D02*
X192752356Y-232227544D01*
X193484832Y-233872711D02*
X192890808Y-234137188D01*
X189373074Y-235703384D02*
X188640598Y-234058217D01*
X189373074Y-235703384D02*
X189967097Y-235438908D01*
X155399920Y-242699340D02*
X155151000Y-242999060D01*
X155151000Y-242999060D02*
X155049400Y-243148920D01*
X155049400Y-243148920D02*
X155049400Y-242300560D01*
X155750440Y-244200480D02*
X155750440Y-242399620D01*
X155750440Y-244200480D02*
X155100200Y-244200480D01*
X151249560Y-244200480D02*
X151249560Y-242399620D01*
X151249560Y-244200480D02*
X151899800Y-244200480D01*
X117417279Y-236989455D02*
X117067972Y-237162018D01*
X117067972Y-237162018D02*
X116914202Y-237257597D01*
X116914202Y-237257597D02*
X117259262Y-236482582D01*
X117126926Y-238503384D02*
X117859402Y-236858217D01*
X117126926Y-238503384D02*
X116532903Y-238238908D01*
X113015168Y-236672711D02*
X113747644Y-235027544D01*
X113015168Y-236672711D02*
X113609192Y-236937188D01*
X84620414Y-216277648D02*
X84231119Y-216293216D01*
X84231119Y-216293216D02*
X84051767Y-216317989D01*
X84051767Y-216317989D02*
X84682222Y-215750325D01*
X83739393Y-217542594D02*
X85077693Y-216337583D01*
X83739393Y-217542594D02*
X83304298Y-217059371D01*
X80727717Y-214197788D02*
X82066017Y-212992778D01*
X80727717Y-214197788D02*
X81162812Y-214681011D01*
X63477947Y-183944924D02*
X63115975Y-183800806D01*
X63115975Y-183800806D02*
X62942054Y-183750487D01*
X62942054Y-183750487D02*
X63748892Y-183488330D01*
X62158594Y-184742166D02*
X63871314Y-184185670D01*
X62158594Y-184742166D02*
X61957659Y-184123751D01*
X60767746Y-180461575D02*
X62480465Y-179905078D01*
X60767746Y-180461575D02*
X60968681Y-181079990D01*
X57000965Y-146010487D02*
X56728906Y-145731601D01*
X56728906Y-145731601D02*
X56590487Y-145614893D01*
X56590487Y-145614893D02*
X57434200Y-145703571D01*
X55471409Y-146202175D02*
X57262404Y-146390416D01*
X55471409Y-146202175D02*
X55539378Y-145555497D01*
X55941879Y-141725951D02*
X57732874Y-141914192D01*
X55941879Y-141725951D02*
X55873911Y-142372629D01*
X66723817Y-108445709D02*
X66588712Y-108080278D01*
X66588712Y-108080278D02*
X66509729Y-107917360D01*
X66509729Y-107917360D02*
X67244430Y-108341540D01*
X65248531Y-107998698D02*
X66808122Y-108899128D01*
X65248531Y-107998698D02*
X65573651Y-107435574D01*
X67498971Y-104100822D02*
X69058562Y-105001252D01*
X67498971Y-104100822D02*
X67173851Y-104663946D01*
X90780877Y-78179082D02*
X90806087Y-77790292D01*
X90806087Y-77790292D02*
X90800198Y-77609334D01*
X90800198Y-77609334D02*
X91298851Y-78295672D01*
X89614953Y-77170665D02*
X90673472Y-78627591D01*
X89614953Y-77170665D02*
X90141008Y-76788464D01*
X93256241Y-74525114D02*
X94314760Y-75982040D01*
X93256241Y-74525114D02*
X92730186Y-74907316D01*
X125183317Y-60191291D02*
X125364483Y-59846367D01*
X125364483Y-59846367D02*
X125432705Y-59678658D01*
X125432705Y-59678658D02*
X125609089Y-60508479D01*
X124528353Y-58795831D02*
X124902772Y-60557338D01*
X124528353Y-58795831D02*
X125164383Y-58660639D01*
X128930877Y-57860046D02*
X129305297Y-59621553D01*
X128930877Y-57860046D02*
X128294847Y-57995238D01*
X154389513Y-57100965D02*
X154668399Y-56828906D01*
X154668399Y-56828906D02*
X154785107Y-56690487D01*
X154785107Y-56690487D02*
X154696429Y-57534200D01*
X154197825Y-55571409D02*
X154009584Y-57362404D01*
X154197825Y-55571409D02*
X154844503Y-55639378D01*
X158674049Y-56041879D02*
X158485808Y-57832874D01*
X158674049Y-56041879D02*
X158027371Y-55973911D01*
X191854291Y-67023817D02*
X192219722Y-66888712D01*
X192219722Y-66888712D02*
X192382640Y-66809729D01*
X192382640Y-66809729D02*
X191958460Y-67544430D01*
X192301302Y-65548531D02*
X191400872Y-67108122D01*
X192301302Y-65548531D02*
X192864426Y-65873651D01*
X196199178Y-67798971D02*
X195298748Y-69358562D01*
X196199178Y-67798971D02*
X195636054Y-67473851D01*
X221720918Y-90880877D02*
X222109708Y-90906087D01*
X222109708Y-90906087D02*
X222290666Y-90900198D01*
X222290666Y-90900198D02*
X221604328Y-91398851D01*
X222729335Y-89714953D02*
X221272409Y-90773472D01*
X222729335Y-89714953D02*
X223111536Y-90241008D01*
X225374886Y-93356241D02*
X223917960Y-94414760D01*
X225374886Y-93356241D02*
X224992684Y-92830186D01*
X239608709Y-125483317D02*
X239953633Y-125664483D01*
X239953633Y-125664483D02*
X240121342Y-125732705D01*
X240121342Y-125732705D02*
X239291521Y-125909089D01*
X241004169Y-124828353D02*
X239242662Y-125202772D01*
X241004169Y-124828353D02*
X241139361Y-125464383D01*
X241939954Y-129230877D02*
X240178447Y-129605297D01*
X241939954Y-129230877D02*
X241804762Y-128594847D01*
X241898740Y-164099878D02*
X242140158Y-164405674D01*
X242140158Y-164405674D02*
X242265619Y-164536211D01*
X242265619Y-164536211D02*
X241435798Y-164359828D01*
X243439954Y-164069123D02*
X241678447Y-163694703D01*
X243439954Y-164069123D02*
X243304762Y-164705153D01*
X242504169Y-168471647D02*
X240742662Y-168097228D01*
X242504169Y-168471647D02*
X242639361Y-167835617D01*
X228154408Y-200344987D02*
X228250575Y-200722539D01*
X228250575Y-200722539D02*
X228312095Y-200892821D01*
X228312095Y-200892821D02*
X227625757Y-200394167D01*
X229574886Y-200943759D02*
X228117960Y-199885240D01*
X229574886Y-200943759D02*
X229192684Y-201469814D01*
X226929335Y-204585047D02*
X225472409Y-203526528D01*
X226929335Y-204585047D02*
X227311536Y-204058992D01*
X201045049Y-227776263D02*
X200979338Y-228160288D01*
X200979338Y-228160288D02*
X200966280Y-228340871D01*
X200966280Y-228340871D02*
X200542100Y-227606170D01*
X202099178Y-228901029D02*
X201198748Y-227341438D01*
X202099178Y-228901029D02*
X201536054Y-229226149D01*
X198201302Y-231151469D02*
X197300872Y-229591878D01*
X198201302Y-231151469D02*
X198764426Y-230826349D01*
X164868537Y-241801844D02*
X164652310Y-242125941D01*
X164652310Y-242125941D02*
X164566931Y-242285600D01*
X164566931Y-242285600D02*
X164478254Y-241441887D01*
X165374049Y-243258121D02*
X165185808Y-241467126D01*
X165374049Y-243258121D02*
X164727371Y-243326089D01*
X160897825Y-243728591D02*
X160709584Y-241937596D01*
X160897825Y-243728591D02*
X161544503Y-243660622D01*
X126268939Y-239896269D02*
X125939583Y-240104399D01*
X125939583Y-240104399D02*
X125796646Y-240215528D01*
X125796646Y-240215528D02*
X126058804Y-239408690D01*
X126138425Y-241432254D02*
X126694922Y-239719535D01*
X126138425Y-241432254D02*
X125520010Y-241231319D01*
X121857834Y-240041406D02*
X122414330Y-238328686D01*
X121857834Y-240041406D02*
X122476249Y-240242341D01*
X91946183Y-222722175D02*
X91560648Y-222778351D01*
X91560648Y-222778351D02*
X91384869Y-222821735D01*
X91384869Y-222821735D02*
X91952532Y-222191280D01*
X91202212Y-224072283D02*
X92407222Y-222733983D01*
X91202212Y-224072283D02*
X90718989Y-223637188D01*
X87857406Y-221060607D02*
X89062417Y-219722307D01*
X87857406Y-221060607D02*
X88340629Y-221495702D01*
X67456079Y-192754048D02*
X67081026Y-192648555D01*
X67081026Y-192648555D02*
X66902798Y-192616692D01*
X66902798Y-192616692D02*
X67677813Y-192271633D01*
X66227289Y-193684832D02*
X67872456Y-192952356D01*
X66227289Y-193684832D02*
X65962812Y-193090808D01*
X64396616Y-189573074D02*
X66041783Y-188840598D01*
X64396616Y-189573074D02*
X64661092Y-190167097D01*
X57200660Y-155599920D02*
X56900940Y-155351000D01*
X56900940Y-155351000D02*
X56751080Y-155249400D01*
X56751080Y-155249400D02*
X57599440Y-155249400D01*
X55699520Y-155950440D02*
X57500380Y-155950440D01*
X55699520Y-155950440D02*
X55699520Y-155300200D01*
X55699520Y-151449560D02*
X57500380Y-151449560D01*
X55699520Y-151449560D02*
X55699520Y-152099800D01*
X62810545Y-117517279D02*
X62637982Y-117167972D01*
X62637982Y-117167972D02*
X62542403Y-117014202D01*
X62542403Y-117014202D02*
X63317418Y-117359262D01*
X61296616Y-117226926D02*
X62941783Y-117959402D01*
X61296616Y-117226926D02*
X61561092Y-116632903D01*
X63127289Y-113115168D02*
X64772456Y-113847644D01*
X63127289Y-113115168D02*
X62862812Y-113709192D01*
X83622352Y-84720414D02*
X83606784Y-84331119D01*
X83606784Y-84331119D02*
X83582011Y-84151767D01*
X83582011Y-84151767D02*
X84149675Y-84782222D01*
X82357406Y-83839393D02*
X83562417Y-85177693D01*
X82357406Y-83839393D02*
X82840629Y-83404298D01*
X85702212Y-80827717D02*
X86907222Y-82166017D01*
X85702212Y-80827717D02*
X85218989Y-81262812D01*
X115955076Y-63377947D02*
X116099194Y-63015975D01*
X116099194Y-63015975D02*
X116149513Y-62842054D01*
X116149513Y-62842054D02*
X116411670Y-63648892D01*
X115157834Y-62058594D02*
X115714330Y-63771314D01*
X115157834Y-62058594D02*
X115776249Y-61857659D01*
X119438425Y-60667746D02*
X119994922Y-62380465D01*
X119438425Y-60667746D02*
X118820010Y-60868681D01*
X144600080Y-57300660D02*
X144849000Y-57000940D01*
X144849000Y-57000940D02*
X144950600Y-56851080D01*
X144950600Y-56851080D02*
X144950600Y-57699440D01*
X144249560Y-55799520D02*
X144249560Y-57600380D01*
X144249560Y-55799520D02*
X144899800Y-55799520D01*
X148750440Y-55799520D02*
X148750440Y-57600380D01*
X148750440Y-55799520D02*
X148100200Y-55799520D01*
X182882721Y-63110545D02*
X183232028Y-62937982D01*
X183232028Y-62937982D02*
X183385798Y-62842403D01*
X183385798Y-62842403D02*
X183040738Y-63617418D01*
X183173074Y-61596616D02*
X182440598Y-63241783D01*
X183173074Y-61596616D02*
X183767097Y-61861092D01*
X187284832Y-63427289D02*
X186552356Y-65072456D01*
X187284832Y-63427289D02*
X186690808Y-63162812D01*
X215279586Y-83722352D02*
X215668881Y-83706784D01*
X215668881Y-83706784D02*
X215848233Y-83682011D01*
X215848233Y-83682011D02*
X215217778Y-84249675D01*
X216160607Y-82457406D02*
X214822307Y-83662417D01*
X216160607Y-82457406D02*
X216595702Y-82940629D01*
X219172283Y-85802212D02*
X217833983Y-87007222D01*
X219172283Y-85802212D02*
X218737188Y-85318989D01*
X236622053Y-116255076D02*
X236984025Y-116399194D01*
X236984025Y-116399194D02*
X237157946Y-116449513D01*
X237157946Y-116449513D02*
X236351108Y-116711670D01*
X237941406Y-115457834D02*
X236228686Y-116014330D01*
X237941406Y-115457834D02*
X238142341Y-116076249D01*
X239332254Y-119738425D02*
X237619535Y-120294922D01*
X239332254Y-119738425D02*
X239131319Y-119120010D01*
X242799035Y-154189513D02*
X243071094Y-154468399D01*
X243071094Y-154468399D02*
X243209513Y-154585107D01*
X243209513Y-154585107D02*
X242365800Y-154496429D01*
X244328591Y-153997825D02*
X242537596Y-153809584D01*
X244328591Y-153997825D02*
X244260622Y-154644503D01*
X243858121Y-158474049D02*
X242067126Y-158285808D01*
X243858121Y-158474049D02*
X243926089Y-157827371D01*
X232976183Y-191854291D02*
X233111288Y-192219722D01*
X233111288Y-192219722D02*
X233190271Y-192382640D01*
X233190271Y-192382640D02*
X232455570Y-191958460D01*
X234451469Y-192301302D02*
X232891878Y-191400872D01*
X234451469Y-192301302D02*
X234126349Y-192864426D01*
X232201029Y-196199178D02*
X230641438Y-195298748D01*
X232201029Y-196199178D02*
X232526149Y-195636054D01*
X208919123Y-221920918D02*
X208893913Y-222309708D01*
X208893913Y-222309708D02*
X208899802Y-222490666D01*
X208899802Y-222490666D02*
X208401149Y-221804328D01*
X210085047Y-222929335D02*
X209026528Y-221472409D01*
X210085047Y-222929335D02*
X209558992Y-223311536D01*
X206443759Y-225574886D02*
X205385240Y-224117960D01*
X206443759Y-225574886D02*
X206969814Y-225192684D01*
X174516683Y-239708709D02*
X174335517Y-240053633D01*
X174335517Y-240053633D02*
X174267295Y-240221342D01*
X174267295Y-240221342D02*
X174090911Y-239391521D01*
X175171647Y-241104169D02*
X174797228Y-239342662D01*
X175171647Y-241104169D02*
X174535617Y-241239361D01*
X170769123Y-242039954D02*
X170394703Y-240278447D01*
X170769123Y-242039954D02*
X171405153Y-241904762D01*
X136100122Y-241898740D02*
X135794326Y-242140158D01*
X135794326Y-242140158D02*
X135663789Y-242265619D01*
X135663789Y-242265619D02*
X135840172Y-241435798D01*
X136130877Y-243439954D02*
X136505297Y-241678447D01*
X136130877Y-243439954D02*
X135494847Y-243304762D01*
X131728353Y-242504169D02*
X132102772Y-240742662D01*
X131728353Y-242504169D02*
X132364383Y-242639361D01*
X99755013Y-228254408D02*
X99377461Y-228350575D01*
X99377461Y-228350575D02*
X99207179Y-228412095D01*
X99207179Y-228412095D02*
X99705833Y-227725757D01*
X99156241Y-229674886D02*
X100214760Y-228217960D01*
X99156241Y-229674886D02*
X98630186Y-229292684D01*
X95514953Y-227029335D02*
X96573472Y-225572409D01*
X95514953Y-227029335D02*
X96041008Y-227411536D01*
X72323737Y-201345049D02*
X71939712Y-201279338D01*
X71939712Y-201279338D02*
X71759129Y-201266280D01*
X71759129Y-201266280D02*
X72493830Y-200842100D01*
X71198971Y-202399178D02*
X72758562Y-201498748D01*
X71198971Y-202399178D02*
X70873851Y-201836054D01*
X68948531Y-198501302D02*
X70508122Y-197600872D01*
X68948531Y-198501302D02*
X69273651Y-199064426D01*
X58298156Y-165268537D02*
X57974059Y-165052310D01*
X57974059Y-165052310D02*
X57814400Y-164966931D01*
X57814400Y-164966931D02*
X58658113Y-164878254D01*
X56841879Y-165774049D02*
X58632874Y-165585808D01*
X56841879Y-165774049D02*
X56773911Y-165127371D01*
X56371409Y-161297825D02*
X58162404Y-161109584D01*
X56371409Y-161297825D02*
X56439378Y-161944503D01*
X60003731Y-126668939D02*
X59795601Y-126339583D01*
X59795601Y-126339583D02*
X59684472Y-126196646D01*
X59684472Y-126196646D02*
X60491310Y-126458804D01*
X58467746Y-126538425D02*
X60180465Y-127094922D01*
X58467746Y-126538425D02*
X58668681Y-125920010D01*
X59858594Y-122257834D02*
X61571314Y-122814330D01*
X59858594Y-122257834D02*
X59657659Y-122876249D01*
X77177825Y-92046183D02*
X77121649Y-91660648D01*
X77121649Y-91660648D02*
X77078265Y-91484869D01*
X77078265Y-91484869D02*
X77708720Y-92052532D01*
X75827717Y-91302212D02*
X77166017Y-92507222D01*
X75827717Y-91302212D02*
X76262812Y-90818989D01*
X78839393Y-87957406D02*
X80177693Y-89162417D01*
X78839393Y-87957406D02*
X78404298Y-88440629D01*
X107345952Y-67356079D02*
X107451445Y-66981026D01*
X107451445Y-66981026D02*
X107483308Y-66802798D01*
X107483308Y-66802798D02*
X107828367Y-67577813D01*
X106415168Y-66127289D02*
X107147644Y-67772456D01*
X106415168Y-66127289D02*
X107009192Y-65862812D01*
X110526926Y-64296616D02*
X111259402Y-65941783D01*
X110526926Y-64296616D02*
X109932903Y-64561092D01*
X134631463Y-58198156D02*
X134847690Y-57874059D01*
X134847690Y-57874059D02*
X134933069Y-57714400D01*
X134933069Y-57714400D02*
X135021746Y-58558113D01*
X134125951Y-56741879D02*
X134314192Y-58532874D01*
X134125951Y-56741879D02*
X134772629Y-56673911D01*
X138602175Y-56271409D02*
X138790416Y-58062404D01*
X138602175Y-56271409D02*
X137955497Y-56339378D01*
X180153890Y-60338193D02*
X180462907Y-59387136D01*
X178846110Y-58861807D02*
X178537093Y-59812864D01*
X214097108Y-80340333D02*
X214766238Y-79597189D01*
X213502892Y-78459667D02*
X212833762Y-79202811D01*
X236788953Y-112479882D02*
X237702499Y-112073145D01*
X237011047Y-110520118D02*
X236097501Y-110926855D01*
X244500000Y-150950000D02*
X245500000Y-150950000D01*
X245500000Y-149250000D02*
X244500000Y-149250000D01*
X235597501Y-189373145D02*
X236511047Y-189779882D01*
X237202499Y-188226855D02*
X236288953Y-187820118D01*
X212133762Y-220997189D02*
X212802892Y-221740333D01*
X214066238Y-220602811D02*
X213397108Y-219859667D01*
X177937093Y-240087136D02*
X178246110Y-241038193D01*
X179862907Y-240512864D02*
X179553890Y-239561807D01*
X139006921Y-243713890D02*
X138902392Y-244708412D01*
X140593079Y-244886110D02*
X140697608Y-243891588D01*
X101813878Y-231141987D02*
X101313878Y-232008013D01*
X102786122Y-232858013D02*
X103286122Y-231991987D01*
X72904891Y-204718443D02*
X72095874Y-205306228D01*
X73095109Y-206681557D02*
X73904126Y-206093772D01*
X57312349Y-168664619D02*
X56334201Y-168872530D01*
X56687651Y-170535381D02*
X57665799Y-170327470D01*
X57765799Y-129572530D02*
X56787651Y-129364619D01*
X56434201Y-131027470D02*
X57412349Y-131235381D01*
X74004126Y-93906228D02*
X73195109Y-93318443D01*
X72195874Y-94693772D02*
X73004891Y-95281557D01*
X103686122Y-67608013D02*
X103186122Y-66741987D01*
X101713878Y-67591987D02*
X102213878Y-68458013D01*
X170427470Y-57665799D02*
X170635381Y-56687651D01*
X168972530Y-56334201D02*
X168764619Y-57312349D01*
X206593772Y-74304126D02*
X207181557Y-73495109D01*
X205806228Y-72495874D02*
X205218443Y-73304891D01*
X232291987Y-103386122D02*
X233158013Y-102886122D01*
X232308013Y-101413878D02*
X231441987Y-101913878D01*
X244191588Y-141197608D02*
X245186110Y-141093079D01*
X245008412Y-139402392D02*
X244013890Y-139506921D01*
X239561807Y-180353890D02*
X240512864Y-180662907D01*
X241038193Y-179046110D02*
X240087136Y-178737093D01*
X219359667Y-214197108D02*
X220102811Y-214866238D01*
X221240333Y-213602892D02*
X220497189Y-212933762D01*
X187120118Y-236788953D02*
X187526855Y-237702499D01*
X189079882Y-237011047D02*
X188673145Y-236097501D01*
X148950000Y-244300000D02*
X148950000Y-245300000D01*
X150650000Y-245300000D02*
X150650000Y-244300000D01*
X110826855Y-235797501D02*
X110420118Y-236711047D01*
X111973145Y-237402499D02*
X112379882Y-236488953D01*
X79202811Y-212333762D02*
X78459667Y-213002892D01*
X79597189Y-214266238D02*
X80340333Y-213597108D01*
X59712864Y-178337093D02*
X58761807Y-178646110D01*
X59287136Y-180262907D02*
X60238193Y-179953890D01*
X56186110Y-139306921D02*
X55191588Y-139202392D01*
X55013890Y-140893079D02*
X56008412Y-140997608D01*
X68758013Y-102013878D02*
X67891987Y-101513878D01*
X67041987Y-102986122D02*
X67908013Y-103486122D01*
X95181557Y-73104891D02*
X94593772Y-72295874D01*
X93218443Y-73295109D02*
X93806228Y-74104126D01*
X131135381Y-57312349D02*
X130927470Y-56334201D01*
X129264619Y-56687651D02*
X129472530Y-57665799D01*
X160893079Y-55986110D02*
X160997608Y-54991588D01*
X159306921Y-54813890D02*
X159202392Y-55808412D01*
X198286122Y-68658013D02*
X198786122Y-67791987D01*
X197313878Y-66941987D02*
X196813878Y-67808013D01*
X226995109Y-95081557D02*
X227804126Y-94493772D01*
X226804891Y-93118443D02*
X225995874Y-93706228D01*
X242787651Y-131335381D02*
X243765799Y-131127470D01*
X243412349Y-129464619D02*
X242434201Y-129672530D01*
X242034201Y-170727470D02*
X243012349Y-170935381D01*
X243365799Y-169272530D02*
X242387651Y-169064619D01*
X225495874Y-206493772D02*
X226304891Y-207081557D01*
X227304126Y-205706228D02*
X226495109Y-205118443D01*
X196213878Y-232291987D02*
X196713878Y-233158013D01*
X198186122Y-232308013D02*
X197686122Y-231441987D01*
X158602392Y-244191588D02*
X158706921Y-245186110D01*
X160397608Y-245008412D02*
X160293079Y-244013890D01*
X119546110Y-239361807D02*
X119237093Y-240312864D01*
X120853890Y-240838193D02*
X121162907Y-239887136D01*
X86002892Y-219459667D02*
X85333762Y-220202811D01*
X86597108Y-221340333D02*
X87266238Y-220597189D01*
X63311047Y-187420118D02*
X62397501Y-187826855D01*
X63088953Y-189379882D02*
X64002499Y-188973145D01*
X55500000Y-149150000D02*
X54500000Y-149150000D01*
X54500000Y-150850000D02*
X55500000Y-150850000D01*
X64002499Y-110926855D02*
X63088953Y-110520118D01*
X62397501Y-112073145D02*
X63311047Y-112479882D01*
X87266238Y-79102811D02*
X86597108Y-78359667D01*
X85333762Y-79497189D02*
X86002892Y-80240333D01*
X121662907Y-59812864D02*
X121353890Y-58861807D01*
X119737093Y-59387136D02*
X120046110Y-60338193D01*
X150950000Y-55600000D02*
X150950000Y-54600000D01*
X149250000Y-54600000D02*
X149250000Y-55600000D01*
X189373145Y-64002499D02*
X189779882Y-63088953D01*
X188226855Y-62397501D02*
X187820118Y-63311047D01*
X220897189Y-87266238D02*
X221640333Y-86597108D01*
X220502811Y-85333762D02*
X219759667Y-86002892D01*
X240187136Y-121562907D02*
X241138193Y-121253890D01*
X240612864Y-119637093D02*
X239661807Y-119946110D01*
X243813890Y-160793079D02*
X244808412Y-160897608D01*
X244986110Y-159206921D02*
X243991588Y-159102392D01*
X230941987Y-198186122D02*
X231808013Y-198686122D01*
X232658013Y-197213878D02*
X231791987Y-196713878D01*
X204618443Y-227095109D02*
X205206228Y-227904126D01*
X206581557Y-226904891D02*
X205993772Y-226095874D01*
X168464619Y-242487651D02*
X168672530Y-243465799D01*
X170335381Y-243112349D02*
X170127470Y-242134201D01*
X129072530Y-242234201D02*
X128864619Y-243212349D01*
X130527470Y-243565799D02*
X130735381Y-242587651D01*
X93606228Y-225695874D02*
X93018443Y-226504891D01*
X94393772Y-227504126D02*
X94981557Y-226695109D01*
X67708013Y-196313878D02*
X66841987Y-196813878D01*
X67691987Y-198286122D02*
X68558013Y-197786122D01*
X55808412Y-159002392D02*
X54813890Y-159106921D01*
X54991588Y-160797608D02*
X55986110Y-160693079D01*
X60438193Y-120046110D02*
X59487136Y-119737093D01*
X58961807Y-121353890D02*
X59912864Y-121662907D01*
X80340333Y-86202892D02*
X79597189Y-85533762D01*
X78459667Y-86797108D02*
X79202811Y-87466238D01*
X112579882Y-63211047D02*
X112173145Y-62297501D01*
X110620118Y-62988953D02*
X111026855Y-63902499D01*
X140997608Y-55908412D02*
X140893079Y-54913890D01*
X139202392Y-55091588D02*
X139306921Y-56086110D01*
X74603553Y-152250000D02*
G75*
G03X74603553Y-152250000I-353553J0D01*
G01*
X74500000Y-152000000D02*
X74500000Y-148000000D01*
X74500000Y-148000000D02*
X78500000Y-148000000D01*
X78500000Y-148000000D02*
X78500000Y-152000000D01*
X78500000Y-152000000D02*
X74500000Y-152000000D01*
X123603553Y-152250000D02*
G75*
G03X123603553Y-152250000I-353553J0D01*
G01*
X123500000Y-152000000D02*
X123500000Y-148000000D01*
X123500000Y-148000000D02*
X127500000Y-148000000D01*
X127500000Y-148000000D02*
X127500000Y-152000000D01*
X127500000Y-152000000D02*
X123500000Y-152000000D01*
X221603553Y-152250000D02*
G75*
G03X221603553Y-152250000I-353553J0D01*
G01*
X221500000Y-152000000D02*
X221500000Y-148000000D01*
X221500000Y-148000000D02*
X225500000Y-148000000D01*
X225500000Y-148000000D02*
X225500000Y-152000000D01*
X225500000Y-152000000D02*
X221500000Y-152000000D01*
X172603553Y-152250000D02*
G75*
G03X172603553Y-152250000I-353553J0D01*
G01*
X172500000Y-152000000D02*
X172500000Y-148000000D01*
X172500000Y-148000000D02*
X176500000Y-148000000D01*
X176500000Y-148000000D02*
X176500000Y-152000000D01*
X176500000Y-152000000D02*
X172500000Y-152000000D01*
X139825000Y-139825000D02*
X139825000Y-140900000D01*
X160175000Y-139825000D02*
X160175000Y-140900000D01*
X160175000Y-160175000D02*
X160175000Y-159100000D01*
X139825000Y-160175000D02*
X139825000Y-159100000D01*
X139825000Y-139825000D02*
X140900000Y-139825000D01*
X139825000Y-160175000D02*
X140900000Y-160175000D01*
X160175000Y-160175000D02*
X159100000Y-160175000D01*
X160175000Y-139825000D02*
X159100000Y-139825000D01*
X139825000Y-140900000D02*
X138725000Y-140900000D01*
X155550000Y-189750000D02*
X152550000Y-189750000D01*
X155550000Y-185750000D02*
X155550000Y-190350000D01*
X155550000Y-190350000D02*
X152550000Y-190350000D01*
X152550000Y-190350000D02*
X152550000Y-185750000D01*
X152550000Y-185750000D02*
X155550000Y-185750000D01*
X147000000Y-183700000D02*
X147000000Y-177700000D01*
X147000000Y-177700000D02*
X153000000Y-177700000D01*
X153000000Y-177700000D02*
X153000000Y-183700000D01*
X153000000Y-183700000D02*
X147000000Y-183700000D01*
X120860000Y-158960000D02*
X120860000Y-141180000D01*
X115780000Y-143720000D02*
X115780000Y-158960000D01*
X120860000Y-158960000D02*
X115780000Y-158960000D01*
X120860000Y-141180000D02*
X118320000Y-141180000D01*
X117050000Y-140900000D02*
X115500000Y-140900000D01*
X118320000Y-141180000D02*
X118320000Y-143720000D01*
X118320000Y-143720000D02*
X115780000Y-143720000D01*
X115500000Y-140900000D02*
X115500000Y-142450000D01*
X167130000Y-83970000D02*
X167130000Y-91590000D01*
X169670000Y-83970000D02*
X169670000Y-91590000D01*
X169950000Y-81150000D02*
X169950000Y-82700000D01*
X167130000Y-91590000D02*
X169670000Y-91590000D01*
X169670000Y-83970000D02*
X167130000Y-83970000D01*
X166850000Y-82700000D02*
X166850000Y-81150000D01*
X166850000Y-81150000D02*
X169950000Y-81150000D01*
X149670000Y-71730000D02*
X152210000Y-71730000D01*
X146850000Y-71450000D02*
X148400000Y-71450000D01*
X149670000Y-71730000D02*
X149670000Y-74270000D01*
X148400000Y-74550000D02*
X146850000Y-74550000D01*
X146850000Y-74550000D02*
X146850000Y-71450000D01*
X149670000Y-74270000D02*
X152210000Y-74270000D01*
X152210000Y-74270000D02*
X152210000Y-71730000D01*
X148000000Y-228500000D02*
X148000000Y-211500000D01*
X148000000Y-211500000D02*
X152000000Y-211500000D01*
X152000000Y-211500000D02*
X152000000Y-228500000D01*
X152000000Y-228500000D02*
X148000000Y-228500000D01*
X134274755Y-93500000D02*
G75*
G03X134274755Y-93500000I-1274755J0D01*
G01*
X130000000Y-90500000D02*
X136000000Y-90500000D01*
X136000000Y-90500000D02*
X136000000Y-96500000D01*
X136000000Y-96500000D02*
X130000000Y-96500000D01*
X130000000Y-96500000D02*
X130000000Y-90500000D01*
X168274755Y-97900000D02*
G75*
G03X168274755Y-97900000I-1274755J0D01*
G01*
X170000000Y-100900000D02*
X164000000Y-100900000D01*
X164000000Y-100900000D02*
X164000000Y-94900000D01*
X164000000Y-94900000D02*
X170000000Y-94900000D01*
X170000000Y-94900000D02*
X170000000Y-100900000D01*
X142000000Y-84500000D02*
X158000000Y-84500000D01*
X142000000Y-100500000D02*
X158000000Y-100500000D01*
X158000000Y-100500000D02*
X158000000Y-76500000D01*
X158000000Y-76500000D02*
X142000000Y-76500000D01*
X142000000Y-76500000D02*
X142000000Y-100500000D01*
X150750000Y-134500000D02*
X150750000Y-137700000D01*
X150750000Y-137700000D02*
X148250000Y-137700000D01*
X148250000Y-137700000D02*
X148250000Y-134500000D01*
X148250000Y-134500000D02*
X150750000Y-134500000D01*
X149700000Y-186400000D02*
G75*
G03X149700000Y-186400000I-100000J0D01*
G01*
X150250000Y-186650000D02*
X149750000Y-186650000D01*
X150250000Y-189550000D02*
X150250000Y-186650000D01*
X149750000Y-189550000D02*
X150250000Y-189550000D01*
X149750000Y-186650000D02*
X149750000Y-189550000D01*
X143750000Y-104400000D02*
X143750000Y-103400000D01*
X142050000Y-103400000D02*
X142050000Y-104400000D01*
X149975000Y-202599000D02*
X149975000Y-197601000D01*
X149835000Y-202591000D02*
X149835000Y-197609000D01*
X149695000Y-202575000D02*
X149695000Y-200195000D01*
X149695000Y-200005000D02*
X149695000Y-197625000D01*
X149555000Y-202551000D02*
X149555000Y-200590000D01*
X149555000Y-199610000D02*
X149555000Y-197649000D01*
X149415000Y-202518000D02*
X149415000Y-200757000D01*
X149415000Y-199443000D02*
X149415000Y-197682000D01*
X149275000Y-202477000D02*
X149275000Y-200864000D01*
X149275000Y-199336000D02*
X149275000Y-197723000D01*
X149135000Y-202427000D02*
X149135000Y-200935000D01*
X149135000Y-199265000D02*
X149135000Y-197773000D01*
X148995000Y-202366000D02*
X148995000Y-200979000D01*
X148995000Y-199221000D02*
X148995000Y-197834000D01*
X148855000Y-202296000D02*
X148855000Y-200998000D01*
X148855000Y-199202000D02*
X148855000Y-197904000D01*
X148715000Y-202214000D02*
X148715000Y-200996000D01*
X148715000Y-199204000D02*
X148715000Y-197986000D01*
X148575000Y-202119000D02*
X148575000Y-200971000D01*
X148575000Y-199229000D02*
X148575000Y-198081000D01*
X148435000Y-202008000D02*
X148435000Y-200923000D01*
X148435000Y-199277000D02*
X148435000Y-198192000D01*
X148295000Y-201880000D02*
X148295000Y-200845000D01*
X148295000Y-199355000D02*
X148295000Y-198320000D01*
X148155000Y-201731000D02*
X148155000Y-200728000D01*
X148155000Y-199472000D02*
X148155000Y-198469000D01*
X148015000Y-201552000D02*
X148015000Y-200540000D01*
X148015000Y-199660000D02*
X148015000Y-198648000D01*
X147875000Y-201333000D02*
X147875000Y-198867000D01*
X147735000Y-201044000D02*
X147735000Y-199156000D01*
X147595000Y-200572000D02*
X147595000Y-199628000D01*
X149700000Y-200100000D02*
G75*
G03X149700000Y-200100000I-900000J0D01*
G01*
X152587500Y-200100000D02*
G75*
G03X152587500Y-200100000I-2537500J0D01*
G01*
X149500000Y-193350000D02*
X150500000Y-193350000D01*
X150500000Y-191650000D02*
X149500000Y-191650000D01*
X150350000Y-191300000D02*
X149650000Y-191300000D01*
X149650000Y-190100000D02*
X150350000Y-190100000D01*
X151500000Y-174150000D02*
X151500000Y-175150000D01*
X153200000Y-175150000D02*
X153200000Y-174150000D01*
M02*
