G04 #@! TF.FileFunction,Soldermask,Bot*
%FSLAX46Y46*%
G04 Gerber Fmt 4.6, Leading zero omitted, Abs format (unit mm)*
G04 Created by KiCad (PCBNEW 4.0.2-stable) date 14/05/2016 22:57:01*
%MOMM*%
G01*
G04 APERTURE LIST*
%ADD10C,0.100000*%
G04 APERTURE END LIST*
D10*
G36*
X150097157Y-247575612D02*
X150274857Y-247612088D01*
X150442083Y-247682383D01*
X150592475Y-247783824D01*
X150720296Y-247912540D01*
X150820681Y-248063633D01*
X150889809Y-248231351D01*
X150924907Y-248408610D01*
X150924907Y-248408626D01*
X150925040Y-248409299D01*
X150922147Y-248616494D01*
X150921995Y-248617162D01*
X150921995Y-248617181D01*
X150881962Y-248793387D01*
X150808177Y-248959110D01*
X150703611Y-249107343D01*
X150572247Y-249232440D01*
X150419078Y-249329643D01*
X150249960Y-249395240D01*
X150071308Y-249426741D01*
X149889946Y-249422942D01*
X149712774Y-249383988D01*
X149546544Y-249311364D01*
X149397586Y-249207836D01*
X149271573Y-249077345D01*
X149173305Y-248924863D01*
X149106526Y-248756198D01*
X149073779Y-248577776D01*
X149076312Y-248396394D01*
X149114028Y-248218954D01*
X149185491Y-248052217D01*
X149287978Y-247902540D01*
X149417581Y-247775623D01*
X149569378Y-247676290D01*
X149737567Y-247608337D01*
X149915758Y-247574345D01*
X150097157Y-247575612D01*
X150097157Y-247575612D01*
G37*
G36*
X153597157Y-247575612D02*
X153774857Y-247612088D01*
X153942083Y-247682383D01*
X154092475Y-247783824D01*
X154220296Y-247912540D01*
X154320681Y-248063633D01*
X154389809Y-248231351D01*
X154424907Y-248408610D01*
X154424907Y-248408626D01*
X154425040Y-248409299D01*
X154422147Y-248616494D01*
X154421995Y-248617162D01*
X154421995Y-248617181D01*
X154381962Y-248793387D01*
X154308177Y-248959110D01*
X154203611Y-249107343D01*
X154072247Y-249232440D01*
X153919078Y-249329643D01*
X153749960Y-249395240D01*
X153571308Y-249426741D01*
X153389946Y-249422942D01*
X153212774Y-249383988D01*
X153046544Y-249311364D01*
X152897586Y-249207836D01*
X152771573Y-249077345D01*
X152673305Y-248924863D01*
X152606526Y-248756198D01*
X152573779Y-248577776D01*
X152576312Y-248396394D01*
X152614028Y-248218954D01*
X152685491Y-248052217D01*
X152787978Y-247902540D01*
X152917581Y-247775623D01*
X153069378Y-247676290D01*
X153237567Y-247608337D01*
X153415758Y-247574345D01*
X153597157Y-247575612D01*
X153597157Y-247575612D01*
G37*
G36*
X143327984Y-247441462D02*
X143505684Y-247477938D01*
X143672910Y-247548233D01*
X143823302Y-247649674D01*
X143951123Y-247778390D01*
X144051508Y-247929483D01*
X144120636Y-248097201D01*
X144155734Y-248274460D01*
X144155734Y-248274476D01*
X144155867Y-248275149D01*
X144152974Y-248482344D01*
X144152822Y-248483012D01*
X144152822Y-248483031D01*
X144112789Y-248659237D01*
X144039004Y-248824960D01*
X143934438Y-248973193D01*
X143803074Y-249098290D01*
X143649905Y-249195493D01*
X143480787Y-249261090D01*
X143302135Y-249292591D01*
X143120773Y-249288792D01*
X142943601Y-249249838D01*
X142777371Y-249177214D01*
X142628413Y-249073686D01*
X142502400Y-248943195D01*
X142404132Y-248790713D01*
X142337353Y-248622048D01*
X142304606Y-248443626D01*
X142307139Y-248262244D01*
X142344855Y-248084804D01*
X142416318Y-247918067D01*
X142518805Y-247768390D01*
X142648408Y-247641473D01*
X142800205Y-247542140D01*
X142968394Y-247474187D01*
X143146585Y-247440195D01*
X143327984Y-247441462D01*
X143327984Y-247441462D01*
G37*
G36*
X139847157Y-247075612D02*
X140024857Y-247112088D01*
X140192083Y-247182383D01*
X140342475Y-247283824D01*
X140470296Y-247412540D01*
X140570681Y-247563633D01*
X140639809Y-247731351D01*
X140674907Y-247908610D01*
X140674907Y-247908626D01*
X140675040Y-247909299D01*
X140672147Y-248116494D01*
X140671995Y-248117162D01*
X140671995Y-248117181D01*
X140631962Y-248293387D01*
X140558177Y-248459110D01*
X140453611Y-248607343D01*
X140322247Y-248732440D01*
X140169078Y-248829643D01*
X139999960Y-248895240D01*
X139821308Y-248926741D01*
X139639946Y-248922942D01*
X139462774Y-248883988D01*
X139296544Y-248811364D01*
X139147586Y-248707836D01*
X139021573Y-248577345D01*
X138923305Y-248424863D01*
X138856526Y-248256198D01*
X138823779Y-248077776D01*
X138826312Y-247896394D01*
X138864028Y-247718954D01*
X138935491Y-247552217D01*
X139037978Y-247402540D01*
X139167581Y-247275623D01*
X139319378Y-247176290D01*
X139487567Y-247108337D01*
X139665758Y-247074345D01*
X139847157Y-247075612D01*
X139847157Y-247075612D01*
G37*
G36*
X160347157Y-247075612D02*
X160524857Y-247112088D01*
X160692083Y-247182383D01*
X160842475Y-247283824D01*
X160970296Y-247412540D01*
X161070681Y-247563633D01*
X161139809Y-247731351D01*
X161174907Y-247908610D01*
X161174907Y-247908626D01*
X161175040Y-247909299D01*
X161172147Y-248116494D01*
X161171995Y-248117162D01*
X161171995Y-248117181D01*
X161131962Y-248293387D01*
X161058177Y-248459110D01*
X160953611Y-248607343D01*
X160822247Y-248732440D01*
X160669078Y-248829643D01*
X160499960Y-248895240D01*
X160321308Y-248926741D01*
X160139946Y-248922942D01*
X159962774Y-248883988D01*
X159796544Y-248811364D01*
X159647586Y-248707836D01*
X159521573Y-248577345D01*
X159423305Y-248424863D01*
X159356526Y-248256198D01*
X159323779Y-248077776D01*
X159326312Y-247896394D01*
X159364028Y-247718954D01*
X159435491Y-247552217D01*
X159537978Y-247402540D01*
X159667581Y-247275623D01*
X159819378Y-247176290D01*
X159987567Y-247108337D01*
X160165758Y-247074345D01*
X160347157Y-247075612D01*
X160347157Y-247075612D01*
G37*
G36*
X163827984Y-246709762D02*
X164005684Y-246746238D01*
X164172910Y-246816533D01*
X164323302Y-246917974D01*
X164451123Y-247046690D01*
X164551508Y-247197783D01*
X164620636Y-247365501D01*
X164655734Y-247542760D01*
X164655734Y-247542776D01*
X164655867Y-247543449D01*
X164652974Y-247750644D01*
X164652822Y-247751312D01*
X164652822Y-247751331D01*
X164612789Y-247927537D01*
X164539004Y-248093260D01*
X164434438Y-248241493D01*
X164303074Y-248366590D01*
X164149905Y-248463793D01*
X163980787Y-248529390D01*
X163802135Y-248560891D01*
X163620773Y-248557092D01*
X163443601Y-248518138D01*
X163277371Y-248445514D01*
X163128413Y-248341986D01*
X163002400Y-248211495D01*
X162904132Y-248059013D01*
X162837353Y-247890348D01*
X162804606Y-247711926D01*
X162807139Y-247530544D01*
X162844855Y-247353104D01*
X162916318Y-247186367D01*
X163018805Y-247036690D01*
X163148408Y-246909773D01*
X163300205Y-246810440D01*
X163468394Y-246742487D01*
X163646585Y-246708495D01*
X163827984Y-246709762D01*
X163827984Y-246709762D01*
G37*
G36*
X133020674Y-246303303D02*
X133198374Y-246339779D01*
X133365600Y-246410074D01*
X133515992Y-246511515D01*
X133643813Y-246640231D01*
X133744198Y-246791324D01*
X133813326Y-246959042D01*
X133848424Y-247136301D01*
X133848424Y-247136317D01*
X133848557Y-247136990D01*
X133845664Y-247344185D01*
X133845512Y-247344853D01*
X133845512Y-247344872D01*
X133805479Y-247521078D01*
X133731694Y-247686801D01*
X133627128Y-247835034D01*
X133495764Y-247960131D01*
X133342595Y-248057334D01*
X133173477Y-248122931D01*
X132994825Y-248154432D01*
X132813463Y-248150633D01*
X132636291Y-248111679D01*
X132470061Y-248039055D01*
X132321103Y-247935527D01*
X132195090Y-247805036D01*
X132096822Y-247652554D01*
X132030043Y-247483889D01*
X131997296Y-247305467D01*
X131999829Y-247124085D01*
X132037545Y-246946645D01*
X132109008Y-246779908D01*
X132211495Y-246630231D01*
X132341098Y-246503314D01*
X132492895Y-246403981D01*
X132661084Y-246336028D01*
X132839275Y-246302036D01*
X133020674Y-246303303D01*
X133020674Y-246303303D01*
G37*
G36*
X129597157Y-245575612D02*
X129774857Y-245612088D01*
X129942083Y-245682383D01*
X130092475Y-245783824D01*
X130220296Y-245912540D01*
X130320681Y-246063633D01*
X130389809Y-246231351D01*
X130424907Y-246408610D01*
X130424907Y-246408626D01*
X130425040Y-246409299D01*
X130422147Y-246616494D01*
X130421995Y-246617162D01*
X130421995Y-246617181D01*
X130381962Y-246793387D01*
X130308177Y-246959110D01*
X130203611Y-247107343D01*
X130072247Y-247232440D01*
X129919078Y-247329643D01*
X129749960Y-247395240D01*
X129571308Y-247426741D01*
X129389946Y-247422942D01*
X129212774Y-247383988D01*
X129046544Y-247311364D01*
X128897586Y-247207836D01*
X128771573Y-247077345D01*
X128673305Y-246924863D01*
X128606526Y-246756198D01*
X128573779Y-246577776D01*
X128576312Y-246396394D01*
X128614028Y-246218954D01*
X128685491Y-246052217D01*
X128787978Y-245902540D01*
X128917581Y-245775623D01*
X129069378Y-245676290D01*
X129237567Y-245608337D01*
X129415758Y-245574345D01*
X129597157Y-245575612D01*
X129597157Y-245575612D01*
G37*
G36*
X170597157Y-245325612D02*
X170774857Y-245362088D01*
X170942083Y-245432383D01*
X171092475Y-245533824D01*
X171220296Y-245662540D01*
X171320681Y-245813633D01*
X171389809Y-245981351D01*
X171424907Y-246158610D01*
X171424907Y-246158626D01*
X171425040Y-246159299D01*
X171422147Y-246366494D01*
X171421995Y-246367162D01*
X171421995Y-246367181D01*
X171381962Y-246543387D01*
X171308177Y-246709110D01*
X171203611Y-246857343D01*
X171072247Y-246982440D01*
X170919078Y-247079643D01*
X170749960Y-247145240D01*
X170571308Y-247176741D01*
X170389946Y-247172942D01*
X170212774Y-247133988D01*
X170046544Y-247061364D01*
X169897586Y-246957836D01*
X169771573Y-246827345D01*
X169673305Y-246674863D01*
X169606526Y-246506198D01*
X169573779Y-246327776D01*
X169576312Y-246146394D01*
X169614028Y-245968954D01*
X169685491Y-245802217D01*
X169787978Y-245652540D01*
X169917581Y-245525623D01*
X170069378Y-245426290D01*
X170237567Y-245358337D01*
X170415758Y-245324345D01*
X170597157Y-245325612D01*
X170597157Y-245325612D01*
G37*
G36*
X174020674Y-244597921D02*
X174198374Y-244634397D01*
X174365600Y-244704692D01*
X174515992Y-244806133D01*
X174643813Y-244934849D01*
X174744198Y-245085942D01*
X174813326Y-245253660D01*
X174848424Y-245430919D01*
X174848424Y-245430935D01*
X174848557Y-245431608D01*
X174845664Y-245638803D01*
X174845512Y-245639471D01*
X174845512Y-245639490D01*
X174805479Y-245815696D01*
X174731694Y-245981419D01*
X174627128Y-246129652D01*
X174495764Y-246254749D01*
X174342595Y-246351952D01*
X174173477Y-246417549D01*
X173994825Y-246449050D01*
X173813463Y-246445251D01*
X173636291Y-246406297D01*
X173470061Y-246333673D01*
X173321103Y-246230145D01*
X173195090Y-246099654D01*
X173096822Y-245947172D01*
X173030043Y-245778507D01*
X172997296Y-245600085D01*
X172999829Y-245418703D01*
X173037545Y-245241263D01*
X173109008Y-245074526D01*
X173211495Y-244924849D01*
X173341098Y-244797932D01*
X173492895Y-244698599D01*
X173661084Y-244630646D01*
X173839275Y-244596654D01*
X174020674Y-244597921D01*
X174020674Y-244597921D01*
G37*
G36*
X122925855Y-243907171D02*
X123103555Y-243943647D01*
X123270781Y-244013942D01*
X123421173Y-244115383D01*
X123548994Y-244244099D01*
X123649379Y-244395192D01*
X123718507Y-244562910D01*
X123753605Y-244740169D01*
X123753605Y-244740185D01*
X123753738Y-244740858D01*
X123750845Y-244948053D01*
X123750693Y-244948721D01*
X123750693Y-244948740D01*
X123710660Y-245124946D01*
X123636875Y-245290669D01*
X123532309Y-245438902D01*
X123400945Y-245563999D01*
X123247776Y-245661202D01*
X123078658Y-245726799D01*
X122900006Y-245758300D01*
X122718644Y-245754501D01*
X122541472Y-245715547D01*
X122375242Y-245642923D01*
X122226284Y-245539395D01*
X122100271Y-245408904D01*
X122002003Y-245256422D01*
X121935224Y-245087757D01*
X121902477Y-244909335D01*
X121905010Y-244727953D01*
X121942726Y-244550513D01*
X122014189Y-244383776D01*
X122116676Y-244234099D01*
X122246279Y-244107182D01*
X122398076Y-244007849D01*
X122566265Y-243939896D01*
X122744456Y-243905904D01*
X122925855Y-243907171D01*
X122925855Y-243907171D01*
G37*
G36*
X119597157Y-242825612D02*
X119774857Y-242862088D01*
X119942083Y-242932383D01*
X120092475Y-243033824D01*
X120220296Y-243162540D01*
X120320681Y-243313633D01*
X120389809Y-243481351D01*
X120424907Y-243658610D01*
X120424907Y-243658626D01*
X120425040Y-243659299D01*
X120422147Y-243866494D01*
X120421995Y-243867162D01*
X120421995Y-243867181D01*
X120381962Y-244043387D01*
X120308177Y-244209110D01*
X120203611Y-244357343D01*
X120072247Y-244482440D01*
X119919078Y-244579643D01*
X119749960Y-244645240D01*
X119571308Y-244676741D01*
X119389946Y-244672942D01*
X119212774Y-244633988D01*
X119046544Y-244561364D01*
X118897586Y-244457836D01*
X118771573Y-244327345D01*
X118673305Y-244174863D01*
X118606526Y-244006198D01*
X118573779Y-243827776D01*
X118576312Y-243646394D01*
X118614028Y-243468954D01*
X118685491Y-243302217D01*
X118787978Y-243152540D01*
X118917581Y-243025623D01*
X119069378Y-242926290D01*
X119237567Y-242858337D01*
X119415758Y-242824345D01*
X119597157Y-242825612D01*
X119597157Y-242825612D01*
G37*
G36*
X180597157Y-242825612D02*
X180774857Y-242862088D01*
X180942083Y-242932383D01*
X181092475Y-243033824D01*
X181220296Y-243162540D01*
X181320681Y-243313633D01*
X181389809Y-243481351D01*
X181424907Y-243658610D01*
X181424907Y-243658626D01*
X181425040Y-243659299D01*
X181422147Y-243866494D01*
X181421995Y-243867162D01*
X181421995Y-243867181D01*
X181381962Y-244043387D01*
X181308177Y-244209110D01*
X181203611Y-244357343D01*
X181072247Y-244482440D01*
X180919078Y-244579643D01*
X180749960Y-244645240D01*
X180571308Y-244676741D01*
X180389946Y-244672942D01*
X180212774Y-244633988D01*
X180046544Y-244561364D01*
X179897586Y-244457836D01*
X179771573Y-244327345D01*
X179673305Y-244174863D01*
X179606526Y-244006198D01*
X179573779Y-243827776D01*
X179576312Y-243646394D01*
X179614028Y-243468954D01*
X179685491Y-243302217D01*
X179787978Y-243152540D01*
X179917581Y-243025623D01*
X180069378Y-242926290D01*
X180237567Y-242858337D01*
X180415758Y-242824345D01*
X180597157Y-242825612D01*
X180597157Y-242825612D01*
G37*
G36*
X183925855Y-241744053D02*
X184103555Y-241780529D01*
X184270781Y-241850824D01*
X184421173Y-241952265D01*
X184548994Y-242080981D01*
X184649379Y-242232074D01*
X184718507Y-242399792D01*
X184753605Y-242577051D01*
X184753605Y-242577067D01*
X184753738Y-242577740D01*
X184750845Y-242784935D01*
X184750693Y-242785603D01*
X184750693Y-242785622D01*
X184710660Y-242961828D01*
X184636875Y-243127551D01*
X184532309Y-243275784D01*
X184400945Y-243400881D01*
X184247776Y-243498084D01*
X184078658Y-243563681D01*
X183900006Y-243595182D01*
X183718644Y-243591383D01*
X183541472Y-243552429D01*
X183375242Y-243479805D01*
X183226284Y-243376277D01*
X183100271Y-243245786D01*
X183002003Y-243093304D01*
X182935224Y-242924639D01*
X182902477Y-242746217D01*
X182905010Y-242564835D01*
X182942726Y-242387395D01*
X183014189Y-242220658D01*
X183116676Y-242070981D01*
X183246279Y-241944064D01*
X183398076Y-241844731D01*
X183566265Y-241776778D01*
X183744456Y-241742786D01*
X183925855Y-241744053D01*
X183925855Y-241744053D01*
G37*
G36*
X113294566Y-240499190D02*
X113472266Y-240535666D01*
X113639492Y-240605961D01*
X113789884Y-240707402D01*
X113917705Y-240836118D01*
X114018090Y-240987211D01*
X114087218Y-241154929D01*
X114122316Y-241332188D01*
X114122316Y-241332204D01*
X114122449Y-241332877D01*
X114119556Y-241540072D01*
X114119404Y-241540740D01*
X114119404Y-241540759D01*
X114079371Y-241716965D01*
X114005586Y-241882688D01*
X113901020Y-242030921D01*
X113769656Y-242156018D01*
X113616487Y-242253221D01*
X113447369Y-242318818D01*
X113268717Y-242350319D01*
X113087355Y-242346520D01*
X112910183Y-242307566D01*
X112743953Y-242234942D01*
X112594995Y-242131414D01*
X112468982Y-242000923D01*
X112370714Y-241848441D01*
X112303935Y-241679776D01*
X112271188Y-241501354D01*
X112273721Y-241319972D01*
X112311437Y-241142532D01*
X112382900Y-240975795D01*
X112485387Y-240826118D01*
X112614990Y-240699201D01*
X112766787Y-240599868D01*
X112934976Y-240531915D01*
X113113167Y-240497923D01*
X113294566Y-240499190D01*
X113294566Y-240499190D01*
G37*
G36*
X110097157Y-239075612D02*
X110274857Y-239112088D01*
X110442083Y-239182383D01*
X110592475Y-239283824D01*
X110720296Y-239412540D01*
X110820681Y-239563633D01*
X110889809Y-239731351D01*
X110924907Y-239908610D01*
X110924907Y-239908626D01*
X110925040Y-239909299D01*
X110922147Y-240116494D01*
X110921995Y-240117162D01*
X110921995Y-240117181D01*
X110881962Y-240293387D01*
X110808177Y-240459110D01*
X110703611Y-240607343D01*
X110572247Y-240732440D01*
X110419078Y-240829643D01*
X110249960Y-240895240D01*
X110071308Y-240926741D01*
X109889946Y-240922942D01*
X109712774Y-240883988D01*
X109546544Y-240811364D01*
X109397586Y-240707836D01*
X109271573Y-240577345D01*
X109173305Y-240424863D01*
X109106526Y-240256198D01*
X109073779Y-240077776D01*
X109076312Y-239896394D01*
X109114028Y-239718954D01*
X109185491Y-239552217D01*
X109287978Y-239402540D01*
X109417581Y-239275623D01*
X109569378Y-239176290D01*
X109737567Y-239108337D01*
X109915758Y-239074345D01*
X110097157Y-239075612D01*
X110097157Y-239075612D01*
G37*
G36*
X190097157Y-239075612D02*
X190274857Y-239112088D01*
X190442083Y-239182383D01*
X190592475Y-239283824D01*
X190720296Y-239412540D01*
X190820681Y-239563633D01*
X190889809Y-239731351D01*
X190924907Y-239908610D01*
X190924907Y-239908626D01*
X190925040Y-239909299D01*
X190922147Y-240116494D01*
X190921995Y-240117162D01*
X190921995Y-240117181D01*
X190881962Y-240293387D01*
X190808177Y-240459110D01*
X190703611Y-240607343D01*
X190572247Y-240732440D01*
X190419078Y-240829643D01*
X190249960Y-240895240D01*
X190071308Y-240926741D01*
X189889946Y-240922942D01*
X189712774Y-240883988D01*
X189546544Y-240811364D01*
X189397586Y-240707836D01*
X189271573Y-240577345D01*
X189173305Y-240424863D01*
X189106526Y-240256198D01*
X189073779Y-240077776D01*
X189076312Y-239896394D01*
X189114028Y-239718954D01*
X189185491Y-239552217D01*
X189287978Y-239402540D01*
X189417581Y-239275623D01*
X189569378Y-239176290D01*
X189737567Y-239108337D01*
X189915758Y-239074345D01*
X190097157Y-239075612D01*
X190097157Y-239075612D01*
G37*
G36*
X193294566Y-237652034D02*
X193472266Y-237688510D01*
X193639492Y-237758805D01*
X193789884Y-237860246D01*
X193917705Y-237988962D01*
X194018090Y-238140055D01*
X194087218Y-238307773D01*
X194122316Y-238485032D01*
X194122316Y-238485048D01*
X194122449Y-238485721D01*
X194119556Y-238692916D01*
X194119404Y-238693584D01*
X194119404Y-238693603D01*
X194079371Y-238869809D01*
X194005586Y-239035532D01*
X193901020Y-239183765D01*
X193769656Y-239308862D01*
X193616487Y-239406065D01*
X193447369Y-239471662D01*
X193268717Y-239503163D01*
X193087355Y-239499364D01*
X192910183Y-239460410D01*
X192743953Y-239387786D01*
X192594995Y-239284258D01*
X192468982Y-239153767D01*
X192370714Y-239001285D01*
X192303935Y-238832620D01*
X192271188Y-238654198D01*
X192273721Y-238472816D01*
X192311437Y-238295376D01*
X192382900Y-238128639D01*
X192485387Y-237978962D01*
X192614990Y-237852045D01*
X192766787Y-237752712D01*
X192934976Y-237684759D01*
X193113167Y-237650767D01*
X193294566Y-237652034D01*
X193294566Y-237652034D01*
G37*
G36*
X103878246Y-236075612D02*
X104055946Y-236112088D01*
X104223172Y-236182383D01*
X104373564Y-236283824D01*
X104501385Y-236412540D01*
X104601770Y-236563633D01*
X104670898Y-236731351D01*
X104705996Y-236908610D01*
X104705996Y-236908626D01*
X104706129Y-236909299D01*
X104703236Y-237116494D01*
X104703084Y-237117162D01*
X104703084Y-237117181D01*
X104663051Y-237293387D01*
X104589266Y-237459110D01*
X104484700Y-237607343D01*
X104353336Y-237732440D01*
X104200167Y-237829643D01*
X104031049Y-237895240D01*
X103852397Y-237926741D01*
X103671035Y-237922942D01*
X103493863Y-237883988D01*
X103327633Y-237811364D01*
X103178675Y-237707836D01*
X103052662Y-237577345D01*
X102954394Y-237424863D01*
X102887615Y-237256198D01*
X102854868Y-237077776D01*
X102857401Y-236896394D01*
X102895117Y-236718954D01*
X102966580Y-236552217D01*
X103069067Y-236402540D01*
X103198670Y-236275623D01*
X103350467Y-236176290D01*
X103518656Y-236108337D01*
X103696847Y-236074345D01*
X103878246Y-236075612D01*
X103878246Y-236075612D01*
G37*
G36*
X100847157Y-234325612D02*
X101024857Y-234362088D01*
X101192083Y-234432383D01*
X101342475Y-234533824D01*
X101470296Y-234662540D01*
X101570681Y-234813633D01*
X101639809Y-234981351D01*
X101674907Y-235158610D01*
X101674907Y-235158626D01*
X101675040Y-235159299D01*
X101672147Y-235366494D01*
X101671995Y-235367162D01*
X101671995Y-235367181D01*
X101631962Y-235543387D01*
X101558177Y-235709110D01*
X101453611Y-235857343D01*
X101322247Y-235982440D01*
X101169078Y-236079643D01*
X100999960Y-236145240D01*
X100821308Y-236176741D01*
X100639946Y-236172942D01*
X100462774Y-236133988D01*
X100296544Y-236061364D01*
X100147586Y-235957836D01*
X100021573Y-235827345D01*
X99923305Y-235674863D01*
X99856526Y-235506198D01*
X99823779Y-235327776D01*
X99826312Y-235146394D01*
X99864028Y-234968954D01*
X99935491Y-234802217D01*
X100037978Y-234652540D01*
X100167581Y-234525623D01*
X100319378Y-234426290D01*
X100487567Y-234358337D01*
X100665758Y-234324345D01*
X100847157Y-234325612D01*
X100847157Y-234325612D01*
G37*
G36*
X199347157Y-234325612D02*
X199524857Y-234362088D01*
X199692083Y-234432383D01*
X199842475Y-234533824D01*
X199970296Y-234662540D01*
X200070681Y-234813633D01*
X200139809Y-234981351D01*
X200174907Y-235158610D01*
X200174907Y-235158626D01*
X200175040Y-235159299D01*
X200172147Y-235366494D01*
X200171995Y-235367162D01*
X200171995Y-235367181D01*
X200131962Y-235543387D01*
X200058177Y-235709110D01*
X199953611Y-235857343D01*
X199822247Y-235982440D01*
X199669078Y-236079643D01*
X199499960Y-236145240D01*
X199321308Y-236176741D01*
X199139946Y-236172942D01*
X198962774Y-236133988D01*
X198796544Y-236061364D01*
X198647586Y-235957836D01*
X198521573Y-235827345D01*
X198423305Y-235674863D01*
X198356526Y-235506198D01*
X198323779Y-235327776D01*
X198326312Y-235146394D01*
X198364028Y-234968954D01*
X198435491Y-234802217D01*
X198537978Y-234652540D01*
X198667581Y-234525623D01*
X198819378Y-234426290D01*
X198987567Y-234358337D01*
X199165758Y-234324345D01*
X199347157Y-234325612D01*
X199347157Y-234325612D01*
G37*
G36*
X202378246Y-232575612D02*
X202555946Y-232612088D01*
X202723172Y-232682383D01*
X202873564Y-232783824D01*
X203001385Y-232912540D01*
X203101770Y-233063633D01*
X203170898Y-233231351D01*
X203205996Y-233408610D01*
X203205996Y-233408626D01*
X203206129Y-233409299D01*
X203203236Y-233616494D01*
X203203084Y-233617162D01*
X203203084Y-233617181D01*
X203163051Y-233793387D01*
X203089266Y-233959110D01*
X202984700Y-234107343D01*
X202853336Y-234232440D01*
X202700167Y-234329643D01*
X202531049Y-234395240D01*
X202352397Y-234426741D01*
X202171035Y-234422942D01*
X201993863Y-234383988D01*
X201827633Y-234311364D01*
X201678675Y-234207836D01*
X201552662Y-234077345D01*
X201454394Y-233924863D01*
X201387615Y-233756198D01*
X201354868Y-233577776D01*
X201357401Y-233396394D01*
X201395117Y-233218954D01*
X201466580Y-233052217D01*
X201569067Y-232902540D01*
X201698670Y-232775623D01*
X201850467Y-232676290D01*
X202018656Y-232608337D01*
X202196847Y-232574345D01*
X202378246Y-232575612D01*
X202378246Y-232575612D01*
G37*
G36*
X94928716Y-230882860D02*
X95106416Y-230919336D01*
X95273642Y-230989631D01*
X95424034Y-231091072D01*
X95551855Y-231219788D01*
X95652240Y-231370881D01*
X95721368Y-231538599D01*
X95756466Y-231715858D01*
X95756466Y-231715874D01*
X95756599Y-231716547D01*
X95753706Y-231923742D01*
X95753554Y-231924410D01*
X95753554Y-231924429D01*
X95713521Y-232100635D01*
X95639736Y-232266358D01*
X95535170Y-232414591D01*
X95403806Y-232539688D01*
X95250637Y-232636891D01*
X95081519Y-232702488D01*
X94902867Y-232733989D01*
X94721505Y-232730190D01*
X94544333Y-232691236D01*
X94378103Y-232618612D01*
X94229145Y-232515084D01*
X94103132Y-232384593D01*
X94004864Y-232232111D01*
X93938085Y-232063446D01*
X93905338Y-231885024D01*
X93907871Y-231703642D01*
X93945587Y-231526202D01*
X94017050Y-231359465D01*
X94119537Y-231209788D01*
X94249140Y-231082871D01*
X94400937Y-230983538D01*
X94569126Y-230915585D01*
X94747317Y-230881593D01*
X94928716Y-230882860D01*
X94928716Y-230882860D01*
G37*
G36*
X208097157Y-228825612D02*
X208274857Y-228862088D01*
X208442083Y-228932383D01*
X208592475Y-229033824D01*
X208720296Y-229162540D01*
X208820681Y-229313633D01*
X208889809Y-229481351D01*
X208924907Y-229658610D01*
X208924907Y-229658626D01*
X208925040Y-229659299D01*
X208922147Y-229866494D01*
X208921995Y-229867162D01*
X208921995Y-229867181D01*
X208881962Y-230043387D01*
X208808177Y-230209110D01*
X208703611Y-230357343D01*
X208572247Y-230482440D01*
X208419078Y-230579643D01*
X208249960Y-230645240D01*
X208071308Y-230676741D01*
X207889946Y-230672942D01*
X207712774Y-230633988D01*
X207546544Y-230561364D01*
X207397586Y-230457836D01*
X207271573Y-230327345D01*
X207173305Y-230174863D01*
X207106526Y-230006198D01*
X207073779Y-229827776D01*
X207076312Y-229646394D01*
X207114028Y-229468954D01*
X207185491Y-229302217D01*
X207287978Y-229152540D01*
X207417581Y-229025623D01*
X207569378Y-228926290D01*
X207737567Y-228858337D01*
X207915758Y-228824345D01*
X208097157Y-228825612D01*
X208097157Y-228825612D01*
G37*
G36*
X92097157Y-228825612D02*
X92274857Y-228862088D01*
X92442083Y-228932383D01*
X92592475Y-229033824D01*
X92720296Y-229162540D01*
X92820681Y-229313633D01*
X92889809Y-229481351D01*
X92924907Y-229658610D01*
X92924907Y-229658626D01*
X92925040Y-229659299D01*
X92922147Y-229866494D01*
X92921995Y-229867162D01*
X92921995Y-229867181D01*
X92881962Y-230043387D01*
X92808177Y-230209110D01*
X92703611Y-230357343D01*
X92572247Y-230482440D01*
X92419078Y-230579643D01*
X92249960Y-230645240D01*
X92071308Y-230676741D01*
X91889946Y-230672942D01*
X91712774Y-230633988D01*
X91546544Y-230561364D01*
X91397586Y-230457836D01*
X91271573Y-230327345D01*
X91173305Y-230174863D01*
X91106526Y-230006198D01*
X91073779Y-229827776D01*
X91076312Y-229646394D01*
X91114028Y-229468954D01*
X91185491Y-229302217D01*
X91287978Y-229152540D01*
X91417581Y-229025623D01*
X91569378Y-228926290D01*
X91737567Y-228858337D01*
X91915758Y-228824345D01*
X92097157Y-228825612D01*
X92097157Y-228825612D01*
G37*
G36*
X210928716Y-226768364D02*
X211106416Y-226804840D01*
X211273642Y-226875135D01*
X211424034Y-226976576D01*
X211551855Y-227105292D01*
X211652240Y-227256385D01*
X211721368Y-227424103D01*
X211756466Y-227601362D01*
X211756466Y-227601378D01*
X211756599Y-227602051D01*
X211753706Y-227809246D01*
X211753554Y-227809914D01*
X211753554Y-227809933D01*
X211713521Y-227986139D01*
X211639736Y-228151862D01*
X211535170Y-228300095D01*
X211403806Y-228425192D01*
X211250637Y-228522395D01*
X211081519Y-228587992D01*
X210902867Y-228619493D01*
X210721505Y-228615694D01*
X210544333Y-228576740D01*
X210378103Y-228504116D01*
X210229145Y-228400588D01*
X210103132Y-228270097D01*
X210004864Y-228117615D01*
X209938085Y-227948950D01*
X209905338Y-227770528D01*
X209907871Y-227589146D01*
X209945587Y-227411706D01*
X210017050Y-227244969D01*
X210119537Y-227095292D01*
X210249140Y-226968375D01*
X210400937Y-226869042D01*
X210569126Y-226801089D01*
X210747317Y-226767097D01*
X210928716Y-226768364D01*
X210928716Y-226768364D01*
G37*
G36*
X150194314Y-223651229D02*
X150549711Y-223724181D01*
X150884164Y-223864772D01*
X151184944Y-224067651D01*
X151440587Y-224325085D01*
X151641358Y-224627271D01*
X151779614Y-224962703D01*
X151849946Y-225317909D01*
X151849946Y-225317925D01*
X151850079Y-225318598D01*
X151844293Y-225732988D01*
X151844141Y-225733656D01*
X151844141Y-225733675D01*
X151763919Y-226086775D01*
X151616350Y-226418221D01*
X151407222Y-226714678D01*
X151144489Y-226964876D01*
X150838157Y-227159279D01*
X150499914Y-227290475D01*
X150142616Y-227353477D01*
X149779892Y-227345878D01*
X149425550Y-227267971D01*
X149093091Y-227122723D01*
X148795175Y-226915667D01*
X148543150Y-226654687D01*
X148346614Y-226349724D01*
X148213057Y-226012396D01*
X148147564Y-225655552D01*
X148152629Y-225292787D01*
X148228061Y-224937909D01*
X148370986Y-224604439D01*
X148575959Y-224305085D01*
X148835172Y-224051245D01*
X149138752Y-223852588D01*
X149475137Y-223716679D01*
X149831517Y-223648695D01*
X150194314Y-223651229D01*
X150194314Y-223651229D01*
G37*
G36*
X86698164Y-224667569D02*
X86875864Y-224704045D01*
X87043090Y-224774340D01*
X87193482Y-224875781D01*
X87321303Y-225004497D01*
X87421688Y-225155590D01*
X87490816Y-225323308D01*
X87525914Y-225500567D01*
X87525914Y-225500583D01*
X87526047Y-225501256D01*
X87523154Y-225708451D01*
X87523002Y-225709119D01*
X87523002Y-225709138D01*
X87482969Y-225885344D01*
X87409184Y-226051067D01*
X87304618Y-226199300D01*
X87173254Y-226324397D01*
X87020085Y-226421600D01*
X86850967Y-226487197D01*
X86672315Y-226518698D01*
X86490953Y-226514899D01*
X86313781Y-226475945D01*
X86147551Y-226403321D01*
X85998593Y-226299793D01*
X85872580Y-226169302D01*
X85774312Y-226016820D01*
X85707533Y-225848155D01*
X85674786Y-225669733D01*
X85677319Y-225488351D01*
X85715035Y-225310911D01*
X85786498Y-225144174D01*
X85888985Y-224994497D01*
X86018588Y-224867580D01*
X86170385Y-224768247D01*
X86338574Y-224700294D01*
X86516765Y-224666302D01*
X86698164Y-224667569D01*
X86698164Y-224667569D01*
G37*
G36*
X84097157Y-222325612D02*
X84274857Y-222362088D01*
X84442083Y-222432383D01*
X84592475Y-222533824D01*
X84720296Y-222662540D01*
X84820681Y-222813633D01*
X84889809Y-222981351D01*
X84924907Y-223158610D01*
X84924907Y-223158626D01*
X84925040Y-223159299D01*
X84922147Y-223366494D01*
X84921995Y-223367162D01*
X84921995Y-223367181D01*
X84881962Y-223543387D01*
X84808177Y-223709110D01*
X84703611Y-223857343D01*
X84572247Y-223982440D01*
X84419078Y-224079643D01*
X84249960Y-224145240D01*
X84071308Y-224176741D01*
X83889946Y-224172942D01*
X83712774Y-224133988D01*
X83546544Y-224061364D01*
X83397586Y-223957836D01*
X83271573Y-223827345D01*
X83173305Y-223674863D01*
X83106526Y-223506198D01*
X83073779Y-223327776D01*
X83076312Y-223146394D01*
X83114028Y-222968954D01*
X83185491Y-222802217D01*
X83287978Y-222652540D01*
X83417581Y-222525623D01*
X83569378Y-222426290D01*
X83737567Y-222358337D01*
X83915758Y-222324345D01*
X84097157Y-222325612D01*
X84097157Y-222325612D01*
G37*
G36*
X216097157Y-222325612D02*
X216274857Y-222362088D01*
X216442083Y-222432383D01*
X216592475Y-222533824D01*
X216720296Y-222662540D01*
X216820681Y-222813633D01*
X216889809Y-222981351D01*
X216924907Y-223158610D01*
X216924907Y-223158626D01*
X216925040Y-223159299D01*
X216922147Y-223366494D01*
X216921995Y-223367162D01*
X216921995Y-223367181D01*
X216881962Y-223543387D01*
X216808177Y-223709110D01*
X216703611Y-223857343D01*
X216572247Y-223982440D01*
X216419078Y-224079643D01*
X216249960Y-224145240D01*
X216071308Y-224176741D01*
X215889946Y-224172942D01*
X215712774Y-224133988D01*
X215546544Y-224061364D01*
X215397586Y-223957836D01*
X215271573Y-223827345D01*
X215173305Y-223674863D01*
X215106526Y-223506198D01*
X215073779Y-223327776D01*
X215076312Y-223146394D01*
X215114028Y-222968954D01*
X215185491Y-222802217D01*
X215287978Y-222652540D01*
X215417581Y-222525623D01*
X215569378Y-222426290D01*
X215737567Y-222358337D01*
X215915758Y-222324345D01*
X216097157Y-222325612D01*
X216097157Y-222325612D01*
G37*
G36*
X150194314Y-218151229D02*
X150549711Y-218224181D01*
X150884164Y-218364772D01*
X151184944Y-218567651D01*
X151440587Y-218825085D01*
X151641358Y-219127271D01*
X151779614Y-219462703D01*
X151849946Y-219817909D01*
X151849946Y-219817925D01*
X151850079Y-219818598D01*
X151844293Y-220232988D01*
X151844141Y-220233656D01*
X151844141Y-220233675D01*
X151763919Y-220586775D01*
X151616350Y-220918221D01*
X151407222Y-221214678D01*
X151144489Y-221464876D01*
X150838157Y-221659279D01*
X150499914Y-221790475D01*
X150142616Y-221853477D01*
X149779892Y-221845878D01*
X149425550Y-221767971D01*
X149093091Y-221622723D01*
X148795175Y-221415667D01*
X148543150Y-221154687D01*
X148346614Y-220849724D01*
X148213057Y-220512396D01*
X148147564Y-220155552D01*
X148152629Y-219792787D01*
X148228061Y-219437909D01*
X148370986Y-219104439D01*
X148575959Y-218805085D01*
X148835172Y-218551245D01*
X149138752Y-218352588D01*
X149475137Y-218216679D01*
X149831517Y-218148695D01*
X150194314Y-218151229D01*
X150194314Y-218151229D01*
G37*
G36*
X218698164Y-219983655D02*
X218875864Y-220020131D01*
X219043090Y-220090426D01*
X219193482Y-220191867D01*
X219321303Y-220320583D01*
X219421688Y-220471676D01*
X219490816Y-220639394D01*
X219525914Y-220816653D01*
X219525914Y-220816669D01*
X219526047Y-220817342D01*
X219523154Y-221024537D01*
X219523002Y-221025205D01*
X219523002Y-221025224D01*
X219482969Y-221201430D01*
X219409184Y-221367153D01*
X219304618Y-221515386D01*
X219173254Y-221640483D01*
X219020085Y-221737686D01*
X218850967Y-221803283D01*
X218672315Y-221834784D01*
X218490953Y-221830985D01*
X218313781Y-221792031D01*
X218147551Y-221719407D01*
X217998593Y-221615879D01*
X217872580Y-221485388D01*
X217774312Y-221332906D01*
X217707533Y-221164241D01*
X217674786Y-220985819D01*
X217677319Y-220804437D01*
X217715035Y-220626997D01*
X217786498Y-220460260D01*
X217888985Y-220310583D01*
X218018588Y-220183666D01*
X218170385Y-220084333D01*
X218338574Y-220016380D01*
X218516765Y-219982388D01*
X218698164Y-219983655D01*
X218698164Y-219983655D01*
G37*
G36*
X79189114Y-217676619D02*
X79366814Y-217713095D01*
X79534040Y-217783390D01*
X79684432Y-217884831D01*
X79812253Y-218013547D01*
X79912638Y-218164640D01*
X79981766Y-218332358D01*
X80016864Y-218509617D01*
X80016864Y-218509633D01*
X80016997Y-218510306D01*
X80014104Y-218717501D01*
X80013952Y-218718169D01*
X80013952Y-218718188D01*
X79973919Y-218894394D01*
X79900134Y-219060117D01*
X79795568Y-219208350D01*
X79664204Y-219333447D01*
X79511035Y-219430650D01*
X79341917Y-219496247D01*
X79163265Y-219527748D01*
X78981903Y-219523949D01*
X78804731Y-219484995D01*
X78638501Y-219412371D01*
X78489543Y-219308843D01*
X78363530Y-219178352D01*
X78265262Y-219025870D01*
X78198483Y-218857205D01*
X78165736Y-218678783D01*
X78168269Y-218497401D01*
X78205985Y-218319961D01*
X78277448Y-218153224D01*
X78379935Y-218003547D01*
X78509538Y-217876630D01*
X78661335Y-217777297D01*
X78829524Y-217709344D01*
X79007715Y-217675352D01*
X79189114Y-217676619D01*
X79189114Y-217676619D01*
G37*
G36*
X223347157Y-215075612D02*
X223524857Y-215112088D01*
X223692083Y-215182383D01*
X223842475Y-215283824D01*
X223970296Y-215412540D01*
X224070681Y-215563633D01*
X224139809Y-215731351D01*
X224174907Y-215908610D01*
X224174907Y-215908626D01*
X224175040Y-215909299D01*
X224172147Y-216116494D01*
X224171995Y-216117162D01*
X224171995Y-216117181D01*
X224131962Y-216293387D01*
X224058177Y-216459110D01*
X223953611Y-216607343D01*
X223822247Y-216732440D01*
X223669078Y-216829643D01*
X223499960Y-216895240D01*
X223321308Y-216926741D01*
X223139946Y-216922942D01*
X222962774Y-216883988D01*
X222796544Y-216811364D01*
X222647586Y-216707836D01*
X222521573Y-216577345D01*
X222423305Y-216424863D01*
X222356526Y-216256198D01*
X222323779Y-216077776D01*
X222326312Y-215896394D01*
X222364028Y-215718954D01*
X222435491Y-215552217D01*
X222537978Y-215402540D01*
X222667581Y-215275623D01*
X222819378Y-215176290D01*
X222987567Y-215108337D01*
X223165758Y-215074345D01*
X223347157Y-215075612D01*
X223347157Y-215075612D01*
G37*
G36*
X76847157Y-215075612D02*
X77024857Y-215112088D01*
X77192083Y-215182383D01*
X77342475Y-215283824D01*
X77470296Y-215412540D01*
X77570681Y-215563633D01*
X77639809Y-215731351D01*
X77674907Y-215908610D01*
X77674907Y-215908626D01*
X77675040Y-215909299D01*
X77672147Y-216116494D01*
X77671995Y-216117162D01*
X77671995Y-216117181D01*
X77631962Y-216293387D01*
X77558177Y-216459110D01*
X77453611Y-216607343D01*
X77322247Y-216732440D01*
X77169078Y-216829643D01*
X76999960Y-216895240D01*
X76821308Y-216926741D01*
X76639946Y-216922942D01*
X76462774Y-216883988D01*
X76296544Y-216811364D01*
X76147586Y-216707836D01*
X76021573Y-216577345D01*
X75923305Y-216424863D01*
X75856526Y-216256198D01*
X75823779Y-216077776D01*
X75826312Y-215896394D01*
X75864028Y-215718954D01*
X75935491Y-215552217D01*
X76037978Y-215402540D01*
X76167581Y-215275623D01*
X76319378Y-215176290D01*
X76487567Y-215108337D01*
X76665758Y-215074345D01*
X76847157Y-215075612D01*
X76847157Y-215075612D01*
G37*
G36*
X150194314Y-212651229D02*
X150549711Y-212724181D01*
X150884164Y-212864772D01*
X151184944Y-213067651D01*
X151440587Y-213325085D01*
X151641358Y-213627271D01*
X151779614Y-213962703D01*
X151849946Y-214317909D01*
X151849946Y-214317925D01*
X151850079Y-214318598D01*
X151844293Y-214732988D01*
X151844141Y-214733656D01*
X151844141Y-214733675D01*
X151763919Y-215086775D01*
X151616350Y-215418221D01*
X151407222Y-215714678D01*
X151144489Y-215964876D01*
X150838157Y-216159279D01*
X150499914Y-216290475D01*
X150142616Y-216353477D01*
X149779892Y-216345878D01*
X149425550Y-216267971D01*
X149093091Y-216122723D01*
X148795175Y-215915667D01*
X148543150Y-215654687D01*
X148346614Y-215349724D01*
X148213057Y-215012396D01*
X148147564Y-214655552D01*
X148152629Y-214292787D01*
X148228061Y-213937909D01*
X148370986Y-213604439D01*
X148575959Y-213305085D01*
X148835172Y-213051245D01*
X149138752Y-212852588D01*
X149475137Y-212716679D01*
X149831517Y-212648695D01*
X150194314Y-212651229D01*
X150194314Y-212651229D01*
G37*
G36*
X225689114Y-212474605D02*
X225866814Y-212511081D01*
X226034040Y-212581376D01*
X226184432Y-212682817D01*
X226312253Y-212811533D01*
X226412638Y-212962626D01*
X226481766Y-213130344D01*
X226516864Y-213307603D01*
X226516864Y-213307619D01*
X226516997Y-213308292D01*
X226514104Y-213515487D01*
X226513952Y-213516155D01*
X226513952Y-213516174D01*
X226473919Y-213692380D01*
X226400134Y-213858103D01*
X226295568Y-214006336D01*
X226164204Y-214131433D01*
X226011035Y-214228636D01*
X225841917Y-214294233D01*
X225663265Y-214325734D01*
X225481903Y-214321935D01*
X225304731Y-214282981D01*
X225138501Y-214210357D01*
X224989543Y-214106829D01*
X224863530Y-213976338D01*
X224765262Y-213823856D01*
X224698483Y-213655191D01*
X224665736Y-213476769D01*
X224668269Y-213295387D01*
X224705985Y-213117947D01*
X224777448Y-212951210D01*
X224879935Y-212801533D01*
X225009538Y-212674616D01*
X225161335Y-212575283D01*
X225329524Y-212507330D01*
X225507715Y-212473338D01*
X225689114Y-212474605D01*
X225689114Y-212474605D01*
G37*
G36*
X72404405Y-209907171D02*
X72582105Y-209943647D01*
X72749331Y-210013942D01*
X72899723Y-210115383D01*
X73027544Y-210244099D01*
X73127929Y-210395192D01*
X73197057Y-210562910D01*
X73232155Y-210740169D01*
X73232155Y-210740185D01*
X73232288Y-210740858D01*
X73229395Y-210948053D01*
X73229243Y-210948721D01*
X73229243Y-210948740D01*
X73189210Y-211124946D01*
X73115425Y-211290669D01*
X73010859Y-211438902D01*
X72879495Y-211563999D01*
X72726326Y-211661202D01*
X72557208Y-211726799D01*
X72378556Y-211758300D01*
X72197194Y-211754501D01*
X72020022Y-211715547D01*
X71853792Y-211642923D01*
X71704834Y-211539395D01*
X71578821Y-211408904D01*
X71480553Y-211256422D01*
X71413774Y-211087757D01*
X71381027Y-210909335D01*
X71383560Y-210727953D01*
X71421276Y-210550513D01*
X71492739Y-210383776D01*
X71595226Y-210234099D01*
X71724829Y-210107182D01*
X71876626Y-210007849D01*
X72044815Y-209939896D01*
X72223006Y-209905904D01*
X72404405Y-209907171D01*
X72404405Y-209907171D01*
G37*
G36*
X70347157Y-207075612D02*
X70524857Y-207112088D01*
X70692083Y-207182383D01*
X70842475Y-207283824D01*
X70970296Y-207412540D01*
X71070681Y-207563633D01*
X71139809Y-207731351D01*
X71174907Y-207908610D01*
X71174907Y-207908626D01*
X71175040Y-207909299D01*
X71172147Y-208116494D01*
X71171995Y-208117162D01*
X71171995Y-208117181D01*
X71131962Y-208293387D01*
X71058177Y-208459110D01*
X70953611Y-208607343D01*
X70822247Y-208732440D01*
X70669078Y-208829643D01*
X70499960Y-208895240D01*
X70321308Y-208926741D01*
X70139946Y-208922942D01*
X69962774Y-208883988D01*
X69796544Y-208811364D01*
X69647586Y-208707836D01*
X69521573Y-208577345D01*
X69423305Y-208424863D01*
X69356526Y-208256198D01*
X69323779Y-208077776D01*
X69326312Y-207896394D01*
X69364028Y-207718954D01*
X69435491Y-207552217D01*
X69537978Y-207402540D01*
X69667581Y-207275623D01*
X69819378Y-207176290D01*
X69987567Y-207108337D01*
X70165758Y-207074345D01*
X70347157Y-207075612D01*
X70347157Y-207075612D01*
G37*
G36*
X229847157Y-207075612D02*
X230024857Y-207112088D01*
X230192083Y-207182383D01*
X230342475Y-207283824D01*
X230470296Y-207412540D01*
X230570681Y-207563633D01*
X230639809Y-207731351D01*
X230674907Y-207908610D01*
X230674907Y-207908626D01*
X230675040Y-207909299D01*
X230672147Y-208116494D01*
X230671995Y-208117162D01*
X230671995Y-208117181D01*
X230631962Y-208293387D01*
X230558177Y-208459110D01*
X230453611Y-208607343D01*
X230322247Y-208732440D01*
X230169078Y-208829643D01*
X229999960Y-208895240D01*
X229821308Y-208926741D01*
X229639946Y-208922942D01*
X229462774Y-208883988D01*
X229296544Y-208811364D01*
X229147586Y-208707836D01*
X229021573Y-208577345D01*
X228923305Y-208424863D01*
X228856526Y-208256198D01*
X228823779Y-208077776D01*
X228826312Y-207896394D01*
X228864028Y-207718954D01*
X228935491Y-207552217D01*
X229037978Y-207402540D01*
X229167581Y-207275623D01*
X229319378Y-207176290D01*
X229487567Y-207108337D01*
X229665758Y-207074345D01*
X229847157Y-207075612D01*
X229847157Y-207075612D01*
G37*
G36*
X231904405Y-204244053D02*
X232082105Y-204280529D01*
X232249331Y-204350824D01*
X232399723Y-204452265D01*
X232527544Y-204580981D01*
X232627929Y-204732074D01*
X232697057Y-204899792D01*
X232732155Y-205077051D01*
X232732155Y-205077067D01*
X232732288Y-205077740D01*
X232729395Y-205284935D01*
X232729243Y-205285603D01*
X232729243Y-205285622D01*
X232689210Y-205461828D01*
X232615425Y-205627551D01*
X232510859Y-205775784D01*
X232379495Y-205900881D01*
X232226326Y-205998084D01*
X232057208Y-206063681D01*
X231878556Y-206095182D01*
X231697194Y-206091383D01*
X231520022Y-206052429D01*
X231353792Y-205979805D01*
X231204834Y-205876277D01*
X231078821Y-205745786D01*
X230980553Y-205593304D01*
X230913774Y-205424639D01*
X230881027Y-205246217D01*
X230883560Y-205064835D01*
X230921276Y-204887395D01*
X230992739Y-204720658D01*
X231095226Y-204570981D01*
X231224829Y-204444064D01*
X231376626Y-204344731D01*
X231544815Y-204276778D01*
X231723006Y-204242786D01*
X231904405Y-204244053D01*
X231904405Y-204244053D01*
G37*
G36*
X66597157Y-201356701D02*
X66774857Y-201393177D01*
X66942083Y-201463472D01*
X67092475Y-201564913D01*
X67220296Y-201693629D01*
X67320681Y-201844722D01*
X67389809Y-202012440D01*
X67424907Y-202189699D01*
X67424907Y-202189715D01*
X67425040Y-202190388D01*
X67422147Y-202397583D01*
X67421995Y-202398251D01*
X67421995Y-202398270D01*
X67381962Y-202574476D01*
X67308177Y-202740199D01*
X67203611Y-202888432D01*
X67072247Y-203013529D01*
X66919078Y-203110732D01*
X66749960Y-203176329D01*
X66571308Y-203207830D01*
X66389946Y-203204031D01*
X66212774Y-203165077D01*
X66046544Y-203092453D01*
X65897586Y-202988925D01*
X65771573Y-202858434D01*
X65673305Y-202705952D01*
X65606526Y-202537287D01*
X65573779Y-202358865D01*
X65576312Y-202177483D01*
X65614028Y-202000043D01*
X65685491Y-201833306D01*
X65787978Y-201683629D01*
X65917581Y-201556712D01*
X66069378Y-201457379D01*
X66237567Y-201389426D01*
X66415758Y-201355434D01*
X66597157Y-201356701D01*
X66597157Y-201356701D01*
G37*
G36*
X148878776Y-199350496D02*
X149022858Y-199380071D01*
X149158446Y-199437067D01*
X149280385Y-199519317D01*
X149384024Y-199623681D01*
X149465418Y-199746188D01*
X149521469Y-199882180D01*
X149549900Y-200025765D01*
X149549900Y-200025791D01*
X149550032Y-200026459D01*
X149547686Y-200194455D01*
X149547535Y-200195118D01*
X149547535Y-200195142D01*
X149515105Y-200337881D01*
X149455278Y-200472256D01*
X149370498Y-200592438D01*
X149263984Y-200693870D01*
X149139793Y-200772684D01*
X149002669Y-200825871D01*
X148857817Y-200851413D01*
X148710767Y-200848332D01*
X148567114Y-200816748D01*
X148432333Y-200757863D01*
X148311556Y-200673922D01*
X148209383Y-200568118D01*
X148129706Y-200444483D01*
X148075561Y-200307728D01*
X148049009Y-200163062D01*
X148051063Y-200015996D01*
X148081644Y-199872120D01*
X148139584Y-199736936D01*
X148222684Y-199615573D01*
X148327771Y-199512664D01*
X148450843Y-199432128D01*
X148587215Y-199377029D01*
X148731696Y-199349468D01*
X148878776Y-199350496D01*
X148878776Y-199350496D01*
G37*
G36*
X152050000Y-200850000D02*
X150550000Y-200850000D01*
X150550000Y-199350000D01*
X152050000Y-199350000D01*
X152050000Y-200850000D01*
X152050000Y-200850000D01*
G37*
G36*
X64847157Y-198325612D02*
X65024857Y-198362088D01*
X65192083Y-198432383D01*
X65342475Y-198533824D01*
X65470296Y-198662540D01*
X65570681Y-198813633D01*
X65639809Y-198981351D01*
X65674907Y-199158610D01*
X65674907Y-199158626D01*
X65675040Y-199159299D01*
X65672147Y-199366494D01*
X65671995Y-199367162D01*
X65671995Y-199367181D01*
X65631962Y-199543387D01*
X65558177Y-199709110D01*
X65453611Y-199857343D01*
X65322247Y-199982440D01*
X65169078Y-200079643D01*
X64999960Y-200145240D01*
X64821308Y-200176741D01*
X64639946Y-200172942D01*
X64462774Y-200133988D01*
X64296544Y-200061364D01*
X64147586Y-199957836D01*
X64021573Y-199827345D01*
X63923305Y-199674863D01*
X63856526Y-199506198D01*
X63823779Y-199327776D01*
X63826312Y-199146394D01*
X63864028Y-198968954D01*
X63935491Y-198802217D01*
X64037978Y-198652540D01*
X64167581Y-198525623D01*
X64319378Y-198426290D01*
X64487567Y-198358337D01*
X64665758Y-198324345D01*
X64847157Y-198325612D01*
X64847157Y-198325612D01*
G37*
G36*
X235347157Y-198325612D02*
X235524857Y-198362088D01*
X235692083Y-198432383D01*
X235842475Y-198533824D01*
X235970296Y-198662540D01*
X236070681Y-198813633D01*
X236139809Y-198981351D01*
X236174907Y-199158610D01*
X236174907Y-199158626D01*
X236175040Y-199159299D01*
X236172147Y-199366494D01*
X236171995Y-199367162D01*
X236171995Y-199367181D01*
X236131962Y-199543387D01*
X236058177Y-199709110D01*
X235953611Y-199857343D01*
X235822247Y-199982440D01*
X235669078Y-200079643D01*
X235499960Y-200145240D01*
X235321308Y-200176741D01*
X235139946Y-200172942D01*
X234962774Y-200133988D01*
X234796544Y-200061364D01*
X234647586Y-199957836D01*
X234521573Y-199827345D01*
X234423305Y-199674863D01*
X234356526Y-199506198D01*
X234323779Y-199327776D01*
X234326312Y-199146394D01*
X234364028Y-198968954D01*
X234435491Y-198802217D01*
X234537978Y-198652540D01*
X234667581Y-198525623D01*
X234819378Y-198426290D01*
X234987567Y-198358337D01*
X235165758Y-198324345D01*
X235347157Y-198325612D01*
X235347157Y-198325612D01*
G37*
G36*
X237097157Y-195294523D02*
X237274857Y-195330999D01*
X237442083Y-195401294D01*
X237592475Y-195502735D01*
X237720296Y-195631451D01*
X237820681Y-195782544D01*
X237889809Y-195950262D01*
X237924907Y-196127521D01*
X237924907Y-196127537D01*
X237925040Y-196128210D01*
X237922147Y-196335405D01*
X237921995Y-196336073D01*
X237921995Y-196336092D01*
X237881962Y-196512298D01*
X237808177Y-196678021D01*
X237703611Y-196826254D01*
X237572247Y-196951351D01*
X237419078Y-197048554D01*
X237249960Y-197114151D01*
X237071308Y-197145652D01*
X236889946Y-197141853D01*
X236712774Y-197102899D01*
X236546544Y-197030275D01*
X236397586Y-196926747D01*
X236271573Y-196796256D01*
X236173305Y-196643774D01*
X236106526Y-196475109D01*
X236073779Y-196296687D01*
X236076312Y-196115305D01*
X236114028Y-195937865D01*
X236185491Y-195771128D01*
X236287978Y-195621451D01*
X236417581Y-195494534D01*
X236569378Y-195395201D01*
X236737567Y-195327248D01*
X236915758Y-195293256D01*
X237097157Y-195294523D01*
X237097157Y-195294523D01*
G37*
G36*
X61520735Y-192273021D02*
X61698435Y-192309497D01*
X61865661Y-192379792D01*
X62016053Y-192481233D01*
X62143874Y-192609949D01*
X62244259Y-192761042D01*
X62313387Y-192928760D01*
X62348485Y-193106019D01*
X62348485Y-193106035D01*
X62348618Y-193106708D01*
X62345725Y-193313903D01*
X62345573Y-193314571D01*
X62345573Y-193314590D01*
X62305540Y-193490796D01*
X62231755Y-193656519D01*
X62127189Y-193804752D01*
X61995825Y-193929849D01*
X61842656Y-194027052D01*
X61673538Y-194092649D01*
X61494886Y-194124150D01*
X61313524Y-194120351D01*
X61136352Y-194081397D01*
X60970122Y-194008773D01*
X60821164Y-193905245D01*
X60695151Y-193774754D01*
X60596883Y-193622272D01*
X60530104Y-193453607D01*
X60497357Y-193275185D01*
X60499890Y-193093803D01*
X60537606Y-192916363D01*
X60609069Y-192749626D01*
X60711556Y-192599949D01*
X60841159Y-192473032D01*
X60992956Y-192373699D01*
X61161145Y-192305746D01*
X61339336Y-192271754D01*
X61520735Y-192273021D01*
X61520735Y-192273021D01*
G37*
G36*
X240097157Y-189075612D02*
X240274857Y-189112088D01*
X240442083Y-189182383D01*
X240592475Y-189283824D01*
X240720296Y-189412540D01*
X240820681Y-189563633D01*
X240889809Y-189731351D01*
X240924907Y-189908610D01*
X240924907Y-189908626D01*
X240925040Y-189909299D01*
X240922147Y-190116494D01*
X240921995Y-190117162D01*
X240921995Y-190117181D01*
X240881962Y-190293387D01*
X240808177Y-190459110D01*
X240703611Y-190607343D01*
X240572247Y-190732440D01*
X240419078Y-190829643D01*
X240249960Y-190895240D01*
X240071308Y-190926741D01*
X239889946Y-190922942D01*
X239712774Y-190883988D01*
X239546544Y-190811364D01*
X239397586Y-190707836D01*
X239271573Y-190577345D01*
X239173305Y-190424863D01*
X239106526Y-190256198D01*
X239073779Y-190077776D01*
X239076312Y-189896394D01*
X239114028Y-189718954D01*
X239185491Y-189552217D01*
X239287978Y-189402540D01*
X239417581Y-189275623D01*
X239569378Y-189176290D01*
X239737567Y-189108337D01*
X239915758Y-189074345D01*
X240097157Y-189075612D01*
X240097157Y-189075612D01*
G37*
G36*
X60097157Y-189075612D02*
X60274857Y-189112088D01*
X60442083Y-189182383D01*
X60592475Y-189283824D01*
X60720296Y-189412540D01*
X60820681Y-189563633D01*
X60889809Y-189731351D01*
X60924907Y-189908610D01*
X60924907Y-189908626D01*
X60925040Y-189909299D01*
X60922147Y-190116494D01*
X60921995Y-190117162D01*
X60921995Y-190117181D01*
X60881962Y-190293387D01*
X60808177Y-190459110D01*
X60703611Y-190607343D01*
X60572247Y-190732440D01*
X60419078Y-190829643D01*
X60249960Y-190895240D01*
X60071308Y-190926741D01*
X59889946Y-190922942D01*
X59712774Y-190883988D01*
X59546544Y-190811364D01*
X59397586Y-190707836D01*
X59271573Y-190577345D01*
X59173305Y-190424863D01*
X59106526Y-190256198D01*
X59073779Y-190077776D01*
X59076312Y-189896394D01*
X59114028Y-189718954D01*
X59185491Y-189552217D01*
X59287978Y-189402540D01*
X59417581Y-189275623D01*
X59569378Y-189176290D01*
X59737567Y-189108337D01*
X59915758Y-189074345D01*
X60097157Y-189075612D01*
X60097157Y-189075612D01*
G37*
G36*
X241520735Y-185878203D02*
X241698435Y-185914679D01*
X241865661Y-185984974D01*
X242016053Y-186086415D01*
X242143874Y-186215131D01*
X242244259Y-186366224D01*
X242313387Y-186533942D01*
X242348485Y-186711201D01*
X242348485Y-186711217D01*
X242348618Y-186711890D01*
X242345725Y-186919085D01*
X242345573Y-186919753D01*
X242345573Y-186919772D01*
X242305540Y-187095978D01*
X242231755Y-187261701D01*
X242127189Y-187409934D01*
X241995825Y-187535031D01*
X241842656Y-187632234D01*
X241673538Y-187697831D01*
X241494886Y-187729332D01*
X241313524Y-187725533D01*
X241136352Y-187686579D01*
X240970122Y-187613955D01*
X240821164Y-187510427D01*
X240695151Y-187379936D01*
X240596883Y-187227454D01*
X240530104Y-187058789D01*
X240497357Y-186880367D01*
X240499890Y-186698985D01*
X240537606Y-186521545D01*
X240609069Y-186354808D01*
X240711556Y-186205131D01*
X240841159Y-186078214D01*
X240992956Y-185978881D01*
X241161145Y-185910928D01*
X241339336Y-185876936D01*
X241520735Y-185878203D01*
X241520735Y-185878203D01*
G37*
G36*
X57428716Y-182904310D02*
X57606416Y-182940786D01*
X57773642Y-183011081D01*
X57924034Y-183112522D01*
X58051855Y-183241238D01*
X58152240Y-183392331D01*
X58221368Y-183560049D01*
X58256466Y-183737308D01*
X58256466Y-183737324D01*
X58256599Y-183737997D01*
X58253706Y-183945192D01*
X58253554Y-183945860D01*
X58253554Y-183945879D01*
X58213521Y-184122085D01*
X58139736Y-184287808D01*
X58035170Y-184436041D01*
X57903806Y-184561138D01*
X57750637Y-184658341D01*
X57581519Y-184723938D01*
X57402867Y-184755439D01*
X57221505Y-184751640D01*
X57044333Y-184712686D01*
X56878103Y-184640062D01*
X56729145Y-184536534D01*
X56603132Y-184406043D01*
X56504864Y-184253561D01*
X56438085Y-184084896D01*
X56405338Y-183906474D01*
X56407871Y-183725092D01*
X56445587Y-183547652D01*
X56517050Y-183380915D01*
X56619537Y-183231238D01*
X56749140Y-183104321D01*
X56900937Y-183004988D01*
X57069126Y-182937035D01*
X57247317Y-182903043D01*
X57428716Y-182904310D01*
X57428716Y-182904310D01*
G37*
G36*
X56347157Y-179575612D02*
X56524857Y-179612088D01*
X56692083Y-179682383D01*
X56842475Y-179783824D01*
X56970296Y-179912540D01*
X57070681Y-180063633D01*
X57139809Y-180231351D01*
X57174907Y-180408610D01*
X57174907Y-180408626D01*
X57175040Y-180409299D01*
X57172147Y-180616494D01*
X57171995Y-180617162D01*
X57171995Y-180617181D01*
X57131962Y-180793387D01*
X57058177Y-180959110D01*
X56953611Y-181107343D01*
X56822247Y-181232440D01*
X56669078Y-181329643D01*
X56499960Y-181395240D01*
X56321308Y-181426741D01*
X56139946Y-181422942D01*
X55962774Y-181383988D01*
X55796544Y-181311364D01*
X55647586Y-181207836D01*
X55521573Y-181077345D01*
X55423305Y-180924863D01*
X55356526Y-180756198D01*
X55323779Y-180577776D01*
X55326312Y-180396394D01*
X55364028Y-180218954D01*
X55435491Y-180052217D01*
X55537978Y-179902540D01*
X55667581Y-179775623D01*
X55819378Y-179676290D01*
X55987567Y-179608337D01*
X56165758Y-179574345D01*
X56347157Y-179575612D01*
X56347157Y-179575612D01*
G37*
G36*
X243847157Y-179575612D02*
X244024857Y-179612088D01*
X244192083Y-179682383D01*
X244342475Y-179783824D01*
X244470296Y-179912540D01*
X244570681Y-180063633D01*
X244639809Y-180231351D01*
X244674907Y-180408610D01*
X244674907Y-180408626D01*
X244675040Y-180409299D01*
X244672147Y-180616494D01*
X244671995Y-180617162D01*
X244671995Y-180617181D01*
X244631962Y-180793387D01*
X244558177Y-180959110D01*
X244453611Y-181107343D01*
X244322247Y-181232440D01*
X244169078Y-181329643D01*
X243999960Y-181395240D01*
X243821308Y-181426741D01*
X243639946Y-181422942D01*
X243462774Y-181383988D01*
X243296544Y-181311364D01*
X243147586Y-181207836D01*
X243021573Y-181077345D01*
X242923305Y-180924863D01*
X242856526Y-180756198D01*
X242823779Y-180577776D01*
X242826312Y-180396394D01*
X242864028Y-180218954D01*
X242935491Y-180052217D01*
X243037978Y-179902540D01*
X243167581Y-179775623D01*
X243319378Y-179676290D01*
X243487567Y-179608337D01*
X243665758Y-179574345D01*
X243847157Y-179575612D01*
X243847157Y-179575612D01*
G37*
G36*
X221062409Y-179125646D02*
X221249714Y-179164094D01*
X221425979Y-179238189D01*
X221584497Y-179345111D01*
X221719232Y-179480789D01*
X221825041Y-179640046D01*
X221897907Y-179816833D01*
X221934909Y-180003704D01*
X221934909Y-180003723D01*
X221935042Y-180004396D01*
X221931993Y-180222791D01*
X221931840Y-180223464D01*
X221931840Y-180223478D01*
X221889634Y-180409250D01*
X221811864Y-180583922D01*
X221701643Y-180740172D01*
X221563178Y-180872029D01*
X221401730Y-180974487D01*
X221223470Y-181043630D01*
X221035162Y-181076834D01*
X220843997Y-181072829D01*
X220657249Y-181031770D01*
X220482034Y-180955221D01*
X220325024Y-180846096D01*
X220192200Y-180708552D01*
X220088621Y-180547829D01*
X220018230Y-180370045D01*
X219983714Y-180181981D01*
X219986384Y-179990794D01*
X220026139Y-179803758D01*
X220101462Y-179628017D01*
X220209491Y-179470246D01*
X220346103Y-179336465D01*
X220506097Y-179231768D01*
X220683381Y-179160140D01*
X220871205Y-179124311D01*
X221062409Y-179125646D01*
X221062409Y-179125646D01*
G37*
G36*
X179682409Y-179125646D02*
X179869714Y-179164094D01*
X180045979Y-179238189D01*
X180204497Y-179345111D01*
X180339232Y-179480789D01*
X180445041Y-179640046D01*
X180517907Y-179816833D01*
X180554909Y-180003704D01*
X180554909Y-180003723D01*
X180555042Y-180004396D01*
X180551993Y-180222791D01*
X180551840Y-180223464D01*
X180551840Y-180223478D01*
X180509634Y-180409250D01*
X180431864Y-180583922D01*
X180321643Y-180740172D01*
X180183178Y-180872029D01*
X180021730Y-180974487D01*
X179843470Y-181043630D01*
X179655162Y-181076834D01*
X179463997Y-181072829D01*
X179277249Y-181031770D01*
X179102034Y-180955221D01*
X178945024Y-180846096D01*
X178812200Y-180708552D01*
X178708621Y-180547829D01*
X178638230Y-180370045D01*
X178603714Y-180181981D01*
X178606384Y-179990794D01*
X178646139Y-179803758D01*
X178721462Y-179628017D01*
X178829491Y-179470246D01*
X178966103Y-179336465D01*
X179126097Y-179231768D01*
X179303381Y-179160140D01*
X179491205Y-179124311D01*
X179682409Y-179125646D01*
X179682409Y-179125646D01*
G37*
G36*
X228682409Y-179125646D02*
X228869714Y-179164094D01*
X229045979Y-179238189D01*
X229204497Y-179345111D01*
X229339232Y-179480789D01*
X229445041Y-179640046D01*
X229517907Y-179816833D01*
X229554909Y-180003704D01*
X229554909Y-180003723D01*
X229555042Y-180004396D01*
X229551993Y-180222791D01*
X229551840Y-180223464D01*
X229551840Y-180223478D01*
X229509634Y-180409250D01*
X229431864Y-180583922D01*
X229321643Y-180740172D01*
X229183178Y-180872029D01*
X229021730Y-180974487D01*
X228843470Y-181043630D01*
X228655162Y-181076834D01*
X228463997Y-181072829D01*
X228277249Y-181031770D01*
X228102034Y-180955221D01*
X227945024Y-180846096D01*
X227812200Y-180708552D01*
X227708621Y-180547829D01*
X227638230Y-180370045D01*
X227603714Y-180181981D01*
X227606384Y-179990794D01*
X227646139Y-179803758D01*
X227721462Y-179628017D01*
X227829491Y-179470246D01*
X227966103Y-179336465D01*
X228126097Y-179231768D01*
X228303381Y-179160140D01*
X228491205Y-179124311D01*
X228682409Y-179125646D01*
X228682409Y-179125646D01*
G37*
G36*
X169522409Y-179125646D02*
X169709714Y-179164094D01*
X169885979Y-179238189D01*
X170044497Y-179345111D01*
X170179232Y-179480789D01*
X170285041Y-179640046D01*
X170357907Y-179816833D01*
X170394909Y-180003704D01*
X170394909Y-180003723D01*
X170395042Y-180004396D01*
X170391993Y-180222791D01*
X170391840Y-180223464D01*
X170391840Y-180223478D01*
X170349634Y-180409250D01*
X170271864Y-180583922D01*
X170161643Y-180740172D01*
X170023178Y-180872029D01*
X169861730Y-180974487D01*
X169683470Y-181043630D01*
X169495162Y-181076834D01*
X169303997Y-181072829D01*
X169117249Y-181031770D01*
X168942034Y-180955221D01*
X168785024Y-180846096D01*
X168652200Y-180708552D01*
X168548621Y-180547829D01*
X168478230Y-180370045D01*
X168443714Y-180181981D01*
X168446384Y-179990794D01*
X168486139Y-179803758D01*
X168561462Y-179628017D01*
X168669491Y-179470246D01*
X168806103Y-179336465D01*
X168966097Y-179231768D01*
X169143381Y-179160140D01*
X169331205Y-179124311D01*
X169522409Y-179125646D01*
X169522409Y-179125646D01*
G37*
G36*
X218522409Y-179125646D02*
X218709714Y-179164094D01*
X218885979Y-179238189D01*
X219044497Y-179345111D01*
X219179232Y-179480789D01*
X219285041Y-179640046D01*
X219357907Y-179816833D01*
X219394909Y-180003704D01*
X219394909Y-180003723D01*
X219395042Y-180004396D01*
X219391993Y-180222791D01*
X219391840Y-180223464D01*
X219391840Y-180223478D01*
X219349634Y-180409250D01*
X219271864Y-180583922D01*
X219161643Y-180740172D01*
X219023178Y-180872029D01*
X218861730Y-180974487D01*
X218683470Y-181043630D01*
X218495162Y-181076834D01*
X218303997Y-181072829D01*
X218117249Y-181031770D01*
X217942034Y-180955221D01*
X217785024Y-180846096D01*
X217652200Y-180708552D01*
X217548621Y-180547829D01*
X217478230Y-180370045D01*
X217443714Y-180181981D01*
X217446384Y-179990794D01*
X217486139Y-179803758D01*
X217561462Y-179628017D01*
X217669491Y-179470246D01*
X217806103Y-179336465D01*
X217966097Y-179231768D01*
X218143381Y-179160140D01*
X218331205Y-179124311D01*
X218522409Y-179125646D01*
X218522409Y-179125646D01*
G37*
G36*
X174602409Y-179125646D02*
X174789714Y-179164094D01*
X174965979Y-179238189D01*
X175124497Y-179345111D01*
X175259232Y-179480789D01*
X175365041Y-179640046D01*
X175437907Y-179816833D01*
X175474909Y-180003704D01*
X175474909Y-180003723D01*
X175475042Y-180004396D01*
X175471993Y-180222791D01*
X175471840Y-180223464D01*
X175471840Y-180223478D01*
X175429634Y-180409250D01*
X175351864Y-180583922D01*
X175241643Y-180740172D01*
X175103178Y-180872029D01*
X174941730Y-180974487D01*
X174763470Y-181043630D01*
X174575162Y-181076834D01*
X174383997Y-181072829D01*
X174197249Y-181031770D01*
X174022034Y-180955221D01*
X173865024Y-180846096D01*
X173732200Y-180708552D01*
X173628621Y-180547829D01*
X173558230Y-180370045D01*
X173523714Y-180181981D01*
X173526384Y-179990794D01*
X173566139Y-179803758D01*
X173641462Y-179628017D01*
X173749491Y-179470246D01*
X173886103Y-179336465D01*
X174046097Y-179231768D01*
X174223381Y-179160140D01*
X174411205Y-179124311D01*
X174602409Y-179125646D01*
X174602409Y-179125646D01*
G37*
G36*
X172062409Y-179125646D02*
X172249714Y-179164094D01*
X172425979Y-179238189D01*
X172584497Y-179345111D01*
X172719232Y-179480789D01*
X172825041Y-179640046D01*
X172897907Y-179816833D01*
X172934909Y-180003704D01*
X172934909Y-180003723D01*
X172935042Y-180004396D01*
X172931993Y-180222791D01*
X172931840Y-180223464D01*
X172931840Y-180223478D01*
X172889634Y-180409250D01*
X172811864Y-180583922D01*
X172701643Y-180740172D01*
X172563178Y-180872029D01*
X172401730Y-180974487D01*
X172223470Y-181043630D01*
X172035162Y-181076834D01*
X171843997Y-181072829D01*
X171657249Y-181031770D01*
X171482034Y-180955221D01*
X171325024Y-180846096D01*
X171192200Y-180708552D01*
X171088621Y-180547829D01*
X171018230Y-180370045D01*
X170983714Y-180181981D01*
X170986384Y-179990794D01*
X171026139Y-179803758D01*
X171101462Y-179628017D01*
X171209491Y-179470246D01*
X171346103Y-179336465D01*
X171506097Y-179231768D01*
X171683381Y-179160140D01*
X171871205Y-179124311D01*
X172062409Y-179125646D01*
X172062409Y-179125646D01*
G37*
G36*
X71522409Y-179125646D02*
X71709714Y-179164094D01*
X71885979Y-179238189D01*
X72044497Y-179345111D01*
X72179232Y-179480789D01*
X72285041Y-179640046D01*
X72357907Y-179816833D01*
X72394909Y-180003704D01*
X72394909Y-180003723D01*
X72395042Y-180004396D01*
X72391993Y-180222791D01*
X72391840Y-180223464D01*
X72391840Y-180223478D01*
X72349634Y-180409250D01*
X72271864Y-180583922D01*
X72161643Y-180740172D01*
X72023178Y-180872029D01*
X71861730Y-180974487D01*
X71683470Y-181043630D01*
X71495162Y-181076834D01*
X71303997Y-181072829D01*
X71117249Y-181031770D01*
X70942034Y-180955221D01*
X70785024Y-180846096D01*
X70652200Y-180708552D01*
X70548621Y-180547829D01*
X70478230Y-180370045D01*
X70443714Y-180181981D01*
X70446384Y-179990794D01*
X70486139Y-179803758D01*
X70561462Y-179628017D01*
X70669491Y-179470246D01*
X70806103Y-179336465D01*
X70966097Y-179231768D01*
X71143381Y-179160140D01*
X71331205Y-179124311D01*
X71522409Y-179125646D01*
X71522409Y-179125646D01*
G37*
G36*
X130682409Y-179125646D02*
X130869714Y-179164094D01*
X131045979Y-179238189D01*
X131204497Y-179345111D01*
X131339232Y-179480789D01*
X131445041Y-179640046D01*
X131517907Y-179816833D01*
X131554909Y-180003704D01*
X131554909Y-180003723D01*
X131555042Y-180004396D01*
X131551993Y-180222791D01*
X131551840Y-180223464D01*
X131551840Y-180223478D01*
X131509634Y-180409250D01*
X131431864Y-180583922D01*
X131321643Y-180740172D01*
X131183178Y-180872029D01*
X131021730Y-180974487D01*
X130843470Y-181043630D01*
X130655162Y-181076834D01*
X130463997Y-181072829D01*
X130277249Y-181031770D01*
X130102034Y-180955221D01*
X129945024Y-180846096D01*
X129812200Y-180708552D01*
X129708621Y-180547829D01*
X129638230Y-180370045D01*
X129603714Y-180181981D01*
X129606384Y-179990794D01*
X129646139Y-179803758D01*
X129721462Y-179628017D01*
X129829491Y-179470246D01*
X129966103Y-179336465D01*
X130126097Y-179231768D01*
X130303381Y-179160140D01*
X130491205Y-179124311D01*
X130682409Y-179125646D01*
X130682409Y-179125646D01*
G37*
G36*
X128142409Y-179125646D02*
X128329714Y-179164094D01*
X128505979Y-179238189D01*
X128664497Y-179345111D01*
X128799232Y-179480789D01*
X128905041Y-179640046D01*
X128977907Y-179816833D01*
X129014909Y-180003704D01*
X129014909Y-180003723D01*
X129015042Y-180004396D01*
X129011993Y-180222791D01*
X129011840Y-180223464D01*
X129011840Y-180223478D01*
X128969634Y-180409250D01*
X128891864Y-180583922D01*
X128781643Y-180740172D01*
X128643178Y-180872029D01*
X128481730Y-180974487D01*
X128303470Y-181043630D01*
X128115162Y-181076834D01*
X127923997Y-181072829D01*
X127737249Y-181031770D01*
X127562034Y-180955221D01*
X127405024Y-180846096D01*
X127272200Y-180708552D01*
X127168621Y-180547829D01*
X127098230Y-180370045D01*
X127063714Y-180181981D01*
X127066384Y-179990794D01*
X127106139Y-179803758D01*
X127181462Y-179628017D01*
X127289491Y-179470246D01*
X127426103Y-179336465D01*
X127586097Y-179231768D01*
X127763381Y-179160140D01*
X127951205Y-179124311D01*
X128142409Y-179125646D01*
X128142409Y-179125646D01*
G37*
G36*
X123062409Y-179125646D02*
X123249714Y-179164094D01*
X123425979Y-179238189D01*
X123584497Y-179345111D01*
X123719232Y-179480789D01*
X123825041Y-179640046D01*
X123897907Y-179816833D01*
X123934909Y-180003704D01*
X123934909Y-180003723D01*
X123935042Y-180004396D01*
X123931993Y-180222791D01*
X123931840Y-180223464D01*
X123931840Y-180223478D01*
X123889634Y-180409250D01*
X123811864Y-180583922D01*
X123701643Y-180740172D01*
X123563178Y-180872029D01*
X123401730Y-180974487D01*
X123223470Y-181043630D01*
X123035162Y-181076834D01*
X122843997Y-181072829D01*
X122657249Y-181031770D01*
X122482034Y-180955221D01*
X122325024Y-180846096D01*
X122192200Y-180708552D01*
X122088621Y-180547829D01*
X122018230Y-180370045D01*
X121983714Y-180181981D01*
X121986384Y-179990794D01*
X122026139Y-179803758D01*
X122101462Y-179628017D01*
X122209491Y-179470246D01*
X122346103Y-179336465D01*
X122506097Y-179231768D01*
X122683381Y-179160140D01*
X122871205Y-179124311D01*
X123062409Y-179125646D01*
X123062409Y-179125646D01*
G37*
G36*
X120522409Y-179125646D02*
X120709714Y-179164094D01*
X120885979Y-179238189D01*
X121044497Y-179345111D01*
X121179232Y-179480789D01*
X121285041Y-179640046D01*
X121357907Y-179816833D01*
X121394909Y-180003704D01*
X121394909Y-180003723D01*
X121395042Y-180004396D01*
X121391993Y-180222791D01*
X121391840Y-180223464D01*
X121391840Y-180223478D01*
X121349634Y-180409250D01*
X121271864Y-180583922D01*
X121161643Y-180740172D01*
X121023178Y-180872029D01*
X120861730Y-180974487D01*
X120683470Y-181043630D01*
X120495162Y-181076834D01*
X120303997Y-181072829D01*
X120117249Y-181031770D01*
X119942034Y-180955221D01*
X119785024Y-180846096D01*
X119652200Y-180708552D01*
X119548621Y-180547829D01*
X119478230Y-180370045D01*
X119443714Y-180181981D01*
X119446384Y-179990794D01*
X119486139Y-179803758D01*
X119561462Y-179628017D01*
X119669491Y-179470246D01*
X119806103Y-179336465D01*
X119966097Y-179231768D01*
X120143381Y-179160140D01*
X120331205Y-179124311D01*
X120522409Y-179125646D01*
X120522409Y-179125646D01*
G37*
G36*
X81682409Y-179125646D02*
X81869714Y-179164094D01*
X82045979Y-179238189D01*
X82204497Y-179345111D01*
X82339232Y-179480789D01*
X82445041Y-179640046D01*
X82517907Y-179816833D01*
X82554909Y-180003704D01*
X82554909Y-180003723D01*
X82555042Y-180004396D01*
X82551993Y-180222791D01*
X82551840Y-180223464D01*
X82551840Y-180223478D01*
X82509634Y-180409250D01*
X82431864Y-180583922D01*
X82321643Y-180740172D01*
X82183178Y-180872029D01*
X82021730Y-180974487D01*
X81843470Y-181043630D01*
X81655162Y-181076834D01*
X81463997Y-181072829D01*
X81277249Y-181031770D01*
X81102034Y-180955221D01*
X80945024Y-180846096D01*
X80812200Y-180708552D01*
X80708621Y-180547829D01*
X80638230Y-180370045D01*
X80603714Y-180181981D01*
X80606384Y-179990794D01*
X80646139Y-179803758D01*
X80721462Y-179628017D01*
X80829491Y-179470246D01*
X80966103Y-179336465D01*
X81126097Y-179231768D01*
X81303381Y-179160140D01*
X81491205Y-179124311D01*
X81682409Y-179125646D01*
X81682409Y-179125646D01*
G37*
G36*
X79142409Y-179125646D02*
X79329714Y-179164094D01*
X79505979Y-179238189D01*
X79664497Y-179345111D01*
X79799232Y-179480789D01*
X79905041Y-179640046D01*
X79977907Y-179816833D01*
X80014909Y-180003704D01*
X80014909Y-180003723D01*
X80015042Y-180004396D01*
X80011993Y-180222791D01*
X80011840Y-180223464D01*
X80011840Y-180223478D01*
X79969634Y-180409250D01*
X79891864Y-180583922D01*
X79781643Y-180740172D01*
X79643178Y-180872029D01*
X79481730Y-180974487D01*
X79303470Y-181043630D01*
X79115162Y-181076834D01*
X78923997Y-181072829D01*
X78737249Y-181031770D01*
X78562034Y-180955221D01*
X78405024Y-180846096D01*
X78272200Y-180708552D01*
X78168621Y-180547829D01*
X78098230Y-180370045D01*
X78063714Y-180181981D01*
X78066384Y-179990794D01*
X78106139Y-179803758D01*
X78181462Y-179628017D01*
X78289491Y-179470246D01*
X78426103Y-179336465D01*
X78586097Y-179231768D01*
X78763381Y-179160140D01*
X78951205Y-179124311D01*
X79142409Y-179125646D01*
X79142409Y-179125646D01*
G37*
G36*
X177142409Y-179125646D02*
X177329714Y-179164094D01*
X177505979Y-179238189D01*
X177664497Y-179345111D01*
X177799232Y-179480789D01*
X177905041Y-179640046D01*
X177977907Y-179816833D01*
X178014909Y-180003704D01*
X178014909Y-180003723D01*
X178015042Y-180004396D01*
X178011993Y-180222791D01*
X178011840Y-180223464D01*
X178011840Y-180223478D01*
X177969634Y-180409250D01*
X177891864Y-180583922D01*
X177781643Y-180740172D01*
X177643178Y-180872029D01*
X177481730Y-180974487D01*
X177303470Y-181043630D01*
X177115162Y-181076834D01*
X176923997Y-181072829D01*
X176737249Y-181031770D01*
X176562034Y-180955221D01*
X176405024Y-180846096D01*
X176272200Y-180708552D01*
X176168621Y-180547829D01*
X176098230Y-180370045D01*
X176063714Y-180181981D01*
X176066384Y-179990794D01*
X176106139Y-179803758D01*
X176181462Y-179628017D01*
X176289491Y-179470246D01*
X176426103Y-179336465D01*
X176586097Y-179231768D01*
X176763381Y-179160140D01*
X176951205Y-179124311D01*
X177142409Y-179125646D01*
X177142409Y-179125646D01*
G37*
G36*
X76602409Y-179125646D02*
X76789714Y-179164094D01*
X76965979Y-179238189D01*
X77124497Y-179345111D01*
X77259232Y-179480789D01*
X77365041Y-179640046D01*
X77437907Y-179816833D01*
X77474909Y-180003704D01*
X77474909Y-180003723D01*
X77475042Y-180004396D01*
X77471993Y-180222791D01*
X77471840Y-180223464D01*
X77471840Y-180223478D01*
X77429634Y-180409250D01*
X77351864Y-180583922D01*
X77241643Y-180740172D01*
X77103178Y-180872029D01*
X76941730Y-180974487D01*
X76763470Y-181043630D01*
X76575162Y-181076834D01*
X76383997Y-181072829D01*
X76197249Y-181031770D01*
X76022034Y-180955221D01*
X75865024Y-180846096D01*
X75732200Y-180708552D01*
X75628621Y-180547829D01*
X75558230Y-180370045D01*
X75523714Y-180181981D01*
X75526384Y-179990794D01*
X75566139Y-179803758D01*
X75641462Y-179628017D01*
X75749491Y-179470246D01*
X75886103Y-179336465D01*
X76046097Y-179231768D01*
X76223381Y-179160140D01*
X76411205Y-179124311D01*
X76602409Y-179125646D01*
X76602409Y-179125646D01*
G37*
G36*
X74062409Y-179125646D02*
X74249714Y-179164094D01*
X74425979Y-179238189D01*
X74584497Y-179345111D01*
X74719232Y-179480789D01*
X74825041Y-179640046D01*
X74897907Y-179816833D01*
X74934909Y-180003704D01*
X74934909Y-180003723D01*
X74935042Y-180004396D01*
X74931993Y-180222791D01*
X74931840Y-180223464D01*
X74931840Y-180223478D01*
X74889634Y-180409250D01*
X74811864Y-180583922D01*
X74701643Y-180740172D01*
X74563178Y-180872029D01*
X74401730Y-180974487D01*
X74223470Y-181043630D01*
X74035162Y-181076834D01*
X73843997Y-181072829D01*
X73657249Y-181031770D01*
X73482034Y-180955221D01*
X73325024Y-180846096D01*
X73192200Y-180708552D01*
X73088621Y-180547829D01*
X73018230Y-180370045D01*
X72983714Y-180181981D01*
X72986384Y-179990794D01*
X73026139Y-179803758D01*
X73101462Y-179628017D01*
X73209491Y-179470246D01*
X73346103Y-179336465D01*
X73506097Y-179231768D01*
X73683381Y-179160140D01*
X73871205Y-179124311D01*
X74062409Y-179125646D01*
X74062409Y-179125646D01*
G37*
G36*
X223602409Y-179125646D02*
X223789714Y-179164094D01*
X223965979Y-179238189D01*
X224124497Y-179345111D01*
X224259232Y-179480789D01*
X224365041Y-179640046D01*
X224437907Y-179816833D01*
X224474909Y-180003704D01*
X224474909Y-180003723D01*
X224475042Y-180004396D01*
X224471993Y-180222791D01*
X224471840Y-180223464D01*
X224471840Y-180223478D01*
X224429634Y-180409250D01*
X224351864Y-180583922D01*
X224241643Y-180740172D01*
X224103178Y-180872029D01*
X223941730Y-180974487D01*
X223763470Y-181043630D01*
X223575162Y-181076834D01*
X223383997Y-181072829D01*
X223197249Y-181031770D01*
X223022034Y-180955221D01*
X222865024Y-180846096D01*
X222732200Y-180708552D01*
X222628621Y-180547829D01*
X222558230Y-180370045D01*
X222523714Y-180181981D01*
X222526384Y-179990794D01*
X222566139Y-179803758D01*
X222641462Y-179628017D01*
X222749491Y-179470246D01*
X222886103Y-179336465D01*
X223046097Y-179231768D01*
X223223381Y-179160140D01*
X223411205Y-179124311D01*
X223602409Y-179125646D01*
X223602409Y-179125646D01*
G37*
G36*
X226142409Y-179125646D02*
X226329714Y-179164094D01*
X226505979Y-179238189D01*
X226664497Y-179345111D01*
X226799232Y-179480789D01*
X226905041Y-179640046D01*
X226977907Y-179816833D01*
X227014909Y-180003704D01*
X227014909Y-180003723D01*
X227015042Y-180004396D01*
X227011993Y-180222791D01*
X227011840Y-180223464D01*
X227011840Y-180223478D01*
X226969634Y-180409250D01*
X226891864Y-180583922D01*
X226781643Y-180740172D01*
X226643178Y-180872029D01*
X226481730Y-180974487D01*
X226303470Y-181043630D01*
X226115162Y-181076834D01*
X225923997Y-181072829D01*
X225737249Y-181031770D01*
X225562034Y-180955221D01*
X225405024Y-180846096D01*
X225272200Y-180708552D01*
X225168621Y-180547829D01*
X225098230Y-180370045D01*
X225063714Y-180181981D01*
X225066384Y-179990794D01*
X225106139Y-179803758D01*
X225181462Y-179628017D01*
X225289491Y-179470246D01*
X225426103Y-179336465D01*
X225586097Y-179231768D01*
X225763381Y-179160140D01*
X225951205Y-179124311D01*
X226142409Y-179125646D01*
X226142409Y-179125646D01*
G37*
G36*
X125602409Y-179125646D02*
X125789714Y-179164094D01*
X125965979Y-179238189D01*
X126124497Y-179345111D01*
X126259232Y-179480789D01*
X126365041Y-179640046D01*
X126437907Y-179816833D01*
X126474909Y-180003704D01*
X126474909Y-180003723D01*
X126475042Y-180004396D01*
X126471993Y-180222791D01*
X126471840Y-180223464D01*
X126471840Y-180223478D01*
X126429634Y-180409250D01*
X126351864Y-180583922D01*
X126241643Y-180740172D01*
X126103178Y-180872029D01*
X125941730Y-180974487D01*
X125763470Y-181043630D01*
X125575162Y-181076834D01*
X125383997Y-181072829D01*
X125197249Y-181031770D01*
X125022034Y-180955221D01*
X124865024Y-180846096D01*
X124732200Y-180708552D01*
X124628621Y-180547829D01*
X124558230Y-180370045D01*
X124523714Y-180181981D01*
X124526384Y-179990794D01*
X124566139Y-179803758D01*
X124641462Y-179628017D01*
X124749491Y-179470246D01*
X124886103Y-179336465D01*
X125046097Y-179231768D01*
X125223381Y-179160140D01*
X125411205Y-179124311D01*
X125602409Y-179125646D01*
X125602409Y-179125646D01*
G37*
G36*
X244928716Y-176246914D02*
X245106416Y-176283390D01*
X245273642Y-176353685D01*
X245424034Y-176455126D01*
X245551855Y-176583842D01*
X245652240Y-176734935D01*
X245721368Y-176902653D01*
X245756466Y-177079912D01*
X245756466Y-177079928D01*
X245756599Y-177080601D01*
X245753706Y-177287796D01*
X245753554Y-177288464D01*
X245753554Y-177288483D01*
X245713521Y-177464689D01*
X245639736Y-177630412D01*
X245535170Y-177778645D01*
X245403806Y-177903742D01*
X245250637Y-178000945D01*
X245081519Y-178066542D01*
X244902867Y-178098043D01*
X244721505Y-178094244D01*
X244544333Y-178055290D01*
X244378103Y-177982666D01*
X244229145Y-177879138D01*
X244103132Y-177748647D01*
X244004864Y-177596165D01*
X243938085Y-177427500D01*
X243905338Y-177249078D01*
X243907871Y-177067696D01*
X243945587Y-176890256D01*
X244017050Y-176723519D01*
X244119537Y-176573842D01*
X244249140Y-176446925D01*
X244400937Y-176347592D01*
X244569126Y-176279639D01*
X244747317Y-176245647D01*
X244928716Y-176246914D01*
X244928716Y-176246914D01*
G37*
G36*
X54324848Y-172999129D02*
X54502548Y-173035605D01*
X54669774Y-173105900D01*
X54820166Y-173207341D01*
X54947987Y-173336057D01*
X55048372Y-173487150D01*
X55117500Y-173654868D01*
X55152598Y-173832127D01*
X55152598Y-173832143D01*
X55152731Y-173832816D01*
X55149838Y-174040011D01*
X55149686Y-174040679D01*
X55149686Y-174040698D01*
X55109653Y-174216904D01*
X55035868Y-174382627D01*
X54931302Y-174530860D01*
X54799938Y-174655957D01*
X54646769Y-174753160D01*
X54477651Y-174818757D01*
X54298999Y-174850258D01*
X54117637Y-174846459D01*
X53940465Y-174807505D01*
X53774235Y-174734881D01*
X53625277Y-174631353D01*
X53499264Y-174500862D01*
X53400996Y-174348380D01*
X53334217Y-174179715D01*
X53301470Y-174001293D01*
X53304003Y-173819911D01*
X53341719Y-173642471D01*
X53413182Y-173475734D01*
X53515669Y-173326057D01*
X53645272Y-173199140D01*
X53797069Y-173099807D01*
X53965258Y-173031854D01*
X54143449Y-172997862D01*
X54324848Y-172999129D01*
X54324848Y-172999129D01*
G37*
G36*
X53597157Y-169575612D02*
X53774857Y-169612088D01*
X53942083Y-169682383D01*
X54092475Y-169783824D01*
X54220296Y-169912540D01*
X54320681Y-170063633D01*
X54389809Y-170231351D01*
X54424907Y-170408610D01*
X54424907Y-170408626D01*
X54425040Y-170409299D01*
X54422147Y-170616494D01*
X54421995Y-170617162D01*
X54421995Y-170617181D01*
X54381962Y-170793387D01*
X54308177Y-170959110D01*
X54203611Y-171107343D01*
X54072247Y-171232440D01*
X53919078Y-171329643D01*
X53749960Y-171395240D01*
X53571308Y-171426741D01*
X53389946Y-171422942D01*
X53212774Y-171383988D01*
X53046544Y-171311364D01*
X52897586Y-171207836D01*
X52771573Y-171077345D01*
X52673305Y-170924863D01*
X52606526Y-170756198D01*
X52573779Y-170577776D01*
X52576312Y-170396394D01*
X52614028Y-170218954D01*
X52685491Y-170052217D01*
X52787978Y-169902540D01*
X52917581Y-169775623D01*
X53069378Y-169676290D01*
X53237567Y-169608337D01*
X53415758Y-169574345D01*
X53597157Y-169575612D01*
X53597157Y-169575612D01*
G37*
G36*
X246347157Y-169575612D02*
X246524857Y-169612088D01*
X246692083Y-169682383D01*
X246842475Y-169783824D01*
X246970296Y-169912540D01*
X247070681Y-170063633D01*
X247139809Y-170231351D01*
X247174907Y-170408610D01*
X247174907Y-170408626D01*
X247175040Y-170409299D01*
X247172147Y-170616494D01*
X247171995Y-170617162D01*
X247171995Y-170617181D01*
X247131962Y-170793387D01*
X247058177Y-170959110D01*
X246953611Y-171107343D01*
X246822247Y-171232440D01*
X246669078Y-171329643D01*
X246499960Y-171395240D01*
X246321308Y-171426741D01*
X246139946Y-171422942D01*
X245962774Y-171383988D01*
X245796544Y-171311364D01*
X245647586Y-171207836D01*
X245521573Y-171077345D01*
X245423305Y-170924863D01*
X245356526Y-170756198D01*
X245323779Y-170577776D01*
X245326312Y-170396394D01*
X245364028Y-170218954D01*
X245435491Y-170052217D01*
X245537978Y-169902540D01*
X245667581Y-169775623D01*
X245819378Y-169676290D01*
X245987567Y-169608337D01*
X246165758Y-169574345D01*
X246347157Y-169575612D01*
X246347157Y-169575612D01*
G37*
G36*
X247074848Y-166152095D02*
X247252548Y-166188571D01*
X247419774Y-166258866D01*
X247570166Y-166360307D01*
X247697987Y-166489023D01*
X247798372Y-166640116D01*
X247867500Y-166807834D01*
X247902598Y-166985093D01*
X247902598Y-166985109D01*
X247902731Y-166985782D01*
X247899838Y-167192977D01*
X247899686Y-167193645D01*
X247899686Y-167193664D01*
X247859653Y-167369870D01*
X247785868Y-167535593D01*
X247681302Y-167683826D01*
X247549938Y-167808923D01*
X247396769Y-167906126D01*
X247227651Y-167971723D01*
X247048999Y-168003224D01*
X246867637Y-167999425D01*
X246690465Y-167960471D01*
X246524235Y-167887847D01*
X246375277Y-167784319D01*
X246249264Y-167653828D01*
X246150996Y-167501346D01*
X246084217Y-167332681D01*
X246051470Y-167154259D01*
X246054003Y-166972877D01*
X246091719Y-166795437D01*
X246163182Y-166628700D01*
X246265669Y-166479023D01*
X246395272Y-166352106D01*
X246547069Y-166252773D01*
X246715258Y-166184820D01*
X246893449Y-166150828D01*
X247074848Y-166152095D01*
X247074848Y-166152095D01*
G37*
G36*
X52463007Y-162806439D02*
X52640707Y-162842915D01*
X52807933Y-162913210D01*
X52958325Y-163014651D01*
X53086146Y-163143367D01*
X53186531Y-163294460D01*
X53255659Y-163462178D01*
X53290757Y-163639437D01*
X53290757Y-163639453D01*
X53290890Y-163640126D01*
X53287997Y-163847321D01*
X53287845Y-163847989D01*
X53287845Y-163848008D01*
X53247812Y-164024214D01*
X53174027Y-164189937D01*
X53069461Y-164338170D01*
X52938097Y-164463267D01*
X52784928Y-164560470D01*
X52615810Y-164626067D01*
X52437158Y-164657568D01*
X52255796Y-164653769D01*
X52078624Y-164614815D01*
X51912394Y-164542191D01*
X51763436Y-164438663D01*
X51637423Y-164308172D01*
X51539155Y-164155690D01*
X51472376Y-163987025D01*
X51439629Y-163808603D01*
X51442162Y-163627221D01*
X51479878Y-163449781D01*
X51551341Y-163283044D01*
X51653828Y-163133367D01*
X51783431Y-163006450D01*
X51935228Y-162907117D01*
X52103417Y-162839164D01*
X52281608Y-162805172D01*
X52463007Y-162806439D01*
X52463007Y-162806439D01*
G37*
G36*
X248097157Y-159325612D02*
X248274857Y-159362088D01*
X248442083Y-159432383D01*
X248592475Y-159533824D01*
X248720296Y-159662540D01*
X248820681Y-159813633D01*
X248889809Y-159981351D01*
X248924907Y-160158610D01*
X248924907Y-160158626D01*
X248925040Y-160159299D01*
X248922147Y-160366494D01*
X248921995Y-160367162D01*
X248921995Y-160367181D01*
X248881962Y-160543387D01*
X248808177Y-160709110D01*
X248703611Y-160857343D01*
X248572247Y-160982440D01*
X248419078Y-161079643D01*
X248249960Y-161145240D01*
X248071308Y-161176741D01*
X247889946Y-161172942D01*
X247712774Y-161133988D01*
X247546544Y-161061364D01*
X247397586Y-160957836D01*
X247271573Y-160827345D01*
X247173305Y-160674863D01*
X247106526Y-160506198D01*
X247073779Y-160327776D01*
X247076312Y-160146394D01*
X247114028Y-159968954D01*
X247185491Y-159802217D01*
X247287978Y-159652540D01*
X247417581Y-159525623D01*
X247569378Y-159426290D01*
X247737567Y-159358337D01*
X247915758Y-159324345D01*
X248097157Y-159325612D01*
X248097157Y-159325612D01*
G37*
G36*
X52097157Y-159325612D02*
X52274857Y-159362088D01*
X52442083Y-159432383D01*
X52592475Y-159533824D01*
X52720296Y-159662540D01*
X52820681Y-159813633D01*
X52889809Y-159981351D01*
X52924907Y-160158610D01*
X52924907Y-160158626D01*
X52925040Y-160159299D01*
X52922147Y-160366494D01*
X52921995Y-160367162D01*
X52921995Y-160367181D01*
X52881962Y-160543387D01*
X52808177Y-160709110D01*
X52703611Y-160857343D01*
X52572247Y-160982440D01*
X52419078Y-161079643D01*
X52249960Y-161145240D01*
X52071308Y-161176741D01*
X51889946Y-161172942D01*
X51712774Y-161133988D01*
X51546544Y-161061364D01*
X51397586Y-160957836D01*
X51271573Y-160827345D01*
X51173305Y-160674863D01*
X51106526Y-160506198D01*
X51073779Y-160327776D01*
X51076312Y-160146394D01*
X51114028Y-159968954D01*
X51185491Y-159802217D01*
X51287978Y-159652540D01*
X51417581Y-159525623D01*
X51569378Y-159426290D01*
X51737567Y-159358337D01*
X51915758Y-159324345D01*
X52097157Y-159325612D01*
X52097157Y-159325612D01*
G37*
G36*
X117064058Y-156726465D02*
X117064064Y-156726466D01*
X117068116Y-156726494D01*
X117255006Y-156747457D01*
X117434264Y-156804321D01*
X117599064Y-156894921D01*
X117743128Y-157015804D01*
X117860968Y-157162368D01*
X117948096Y-157329029D01*
X118001194Y-157509439D01*
X118001200Y-157509500D01*
X118001208Y-157509529D01*
X118018243Y-157696722D01*
X117998595Y-157883662D01*
X117998589Y-157883681D01*
X117998581Y-157883759D01*
X117942969Y-158063410D01*
X117853523Y-158228838D01*
X117733648Y-158373742D01*
X117587910Y-158492603D01*
X117421861Y-158580893D01*
X117241826Y-158635248D01*
X117054662Y-158653600D01*
X117045268Y-158653600D01*
X117035942Y-158653535D01*
X117035936Y-158653534D01*
X117031884Y-158653506D01*
X116844994Y-158632543D01*
X116665736Y-158575679D01*
X116500936Y-158485079D01*
X116356872Y-158364196D01*
X116239032Y-158217632D01*
X116151904Y-158050971D01*
X116098806Y-157870561D01*
X116098800Y-157870500D01*
X116098792Y-157870471D01*
X116081757Y-157683278D01*
X116101405Y-157496338D01*
X116101411Y-157496319D01*
X116101419Y-157496241D01*
X116157031Y-157316590D01*
X116246477Y-157151162D01*
X116366352Y-157006258D01*
X116512090Y-156887397D01*
X116678139Y-156799107D01*
X116858174Y-156744752D01*
X117045338Y-156726400D01*
X117054732Y-156726400D01*
X117064058Y-156726465D01*
X117064058Y-156726465D01*
G37*
G36*
X119604058Y-156726465D02*
X119604064Y-156726466D01*
X119608116Y-156726494D01*
X119795006Y-156747457D01*
X119974264Y-156804321D01*
X120139064Y-156894921D01*
X120283128Y-157015804D01*
X120400968Y-157162368D01*
X120488096Y-157329029D01*
X120541194Y-157509439D01*
X120541200Y-157509500D01*
X120541208Y-157509529D01*
X120558243Y-157696722D01*
X120538595Y-157883662D01*
X120538589Y-157883681D01*
X120538581Y-157883759D01*
X120482969Y-158063410D01*
X120393523Y-158228838D01*
X120273648Y-158373742D01*
X120127910Y-158492603D01*
X119961861Y-158580893D01*
X119781826Y-158635248D01*
X119594662Y-158653600D01*
X119585268Y-158653600D01*
X119575942Y-158653535D01*
X119575936Y-158653534D01*
X119571884Y-158653506D01*
X119384994Y-158632543D01*
X119205736Y-158575679D01*
X119040936Y-158485079D01*
X118896872Y-158364196D01*
X118779032Y-158217632D01*
X118691904Y-158050971D01*
X118638806Y-157870561D01*
X118638800Y-157870500D01*
X118638792Y-157870471D01*
X118621757Y-157683278D01*
X118641405Y-157496338D01*
X118641411Y-157496319D01*
X118641419Y-157496241D01*
X118697031Y-157316590D01*
X118786477Y-157151162D01*
X118906352Y-157006258D01*
X119052090Y-156887397D01*
X119218139Y-156799107D01*
X119398174Y-156744752D01*
X119585338Y-156726400D01*
X119594732Y-156726400D01*
X119604058Y-156726465D01*
X119604058Y-156726465D01*
G37*
G36*
X248463007Y-155844785D02*
X248640707Y-155881261D01*
X248807933Y-155951556D01*
X248958325Y-156052997D01*
X249086146Y-156181713D01*
X249186531Y-156332806D01*
X249255659Y-156500524D01*
X249290757Y-156677783D01*
X249290757Y-156677799D01*
X249290890Y-156678472D01*
X249287997Y-156885667D01*
X249287845Y-156886335D01*
X249287845Y-156886354D01*
X249247812Y-157062560D01*
X249174027Y-157228283D01*
X249069461Y-157376516D01*
X248938097Y-157501613D01*
X248784928Y-157598816D01*
X248615810Y-157664413D01*
X248437158Y-157695914D01*
X248255796Y-157692115D01*
X248078624Y-157653161D01*
X247912394Y-157580537D01*
X247763436Y-157477009D01*
X247637423Y-157346518D01*
X247539155Y-157194036D01*
X247472376Y-157025371D01*
X247439629Y-156846949D01*
X247442162Y-156665567D01*
X247479878Y-156488127D01*
X247551341Y-156321390D01*
X247653828Y-156171713D01*
X247783431Y-156044796D01*
X247935228Y-155945463D01*
X248103417Y-155877510D01*
X248281608Y-155843518D01*
X248463007Y-155844785D01*
X248463007Y-155844785D01*
G37*
G36*
X119604058Y-154186465D02*
X119604064Y-154186466D01*
X119608116Y-154186494D01*
X119795006Y-154207457D01*
X119974264Y-154264321D01*
X120139064Y-154354921D01*
X120283128Y-154475804D01*
X120400968Y-154622368D01*
X120488096Y-154789029D01*
X120541194Y-154969439D01*
X120541200Y-154969500D01*
X120541208Y-154969529D01*
X120558243Y-155156722D01*
X120538595Y-155343662D01*
X120538589Y-155343681D01*
X120538581Y-155343759D01*
X120482969Y-155523410D01*
X120393523Y-155688838D01*
X120273648Y-155833742D01*
X120127910Y-155952603D01*
X119961861Y-156040893D01*
X119781826Y-156095248D01*
X119594662Y-156113600D01*
X119585268Y-156113600D01*
X119575942Y-156113535D01*
X119575936Y-156113534D01*
X119571884Y-156113506D01*
X119384994Y-156092543D01*
X119205736Y-156035679D01*
X119040936Y-155945079D01*
X118896872Y-155824196D01*
X118779032Y-155677632D01*
X118691904Y-155510971D01*
X118638806Y-155330561D01*
X118638800Y-155330500D01*
X118638792Y-155330471D01*
X118621757Y-155143278D01*
X118641405Y-154956338D01*
X118641411Y-154956319D01*
X118641419Y-154956241D01*
X118697031Y-154776590D01*
X118786477Y-154611162D01*
X118906352Y-154466258D01*
X119052090Y-154347397D01*
X119218139Y-154259107D01*
X119398174Y-154204752D01*
X119585338Y-154186400D01*
X119594732Y-154186400D01*
X119604058Y-154186465D01*
X119604058Y-154186465D01*
G37*
G36*
X117064058Y-154186465D02*
X117064064Y-154186466D01*
X117068116Y-154186494D01*
X117255006Y-154207457D01*
X117434264Y-154264321D01*
X117599064Y-154354921D01*
X117743128Y-154475804D01*
X117860968Y-154622368D01*
X117948096Y-154789029D01*
X118001194Y-154969439D01*
X118001200Y-154969500D01*
X118001208Y-154969529D01*
X118018243Y-155156722D01*
X117998595Y-155343662D01*
X117998589Y-155343681D01*
X117998581Y-155343759D01*
X117942969Y-155523410D01*
X117853523Y-155688838D01*
X117733648Y-155833742D01*
X117587910Y-155952603D01*
X117421861Y-156040893D01*
X117241826Y-156095248D01*
X117054662Y-156113600D01*
X117045268Y-156113600D01*
X117035942Y-156113535D01*
X117035936Y-156113534D01*
X117031884Y-156113506D01*
X116844994Y-156092543D01*
X116665736Y-156035679D01*
X116500936Y-155945079D01*
X116356872Y-155824196D01*
X116239032Y-155677632D01*
X116151904Y-155510971D01*
X116098806Y-155330561D01*
X116098800Y-155330500D01*
X116098792Y-155330471D01*
X116081757Y-155143278D01*
X116101405Y-154956338D01*
X116101411Y-154956319D01*
X116101419Y-154956241D01*
X116157031Y-154776590D01*
X116246477Y-154611162D01*
X116366352Y-154466258D01*
X116512090Y-154347397D01*
X116678139Y-154259107D01*
X116858174Y-154204752D01*
X117045338Y-154186400D01*
X117054732Y-154186400D01*
X117064058Y-154186465D01*
X117064058Y-154186465D01*
G37*
G36*
X51597157Y-152575612D02*
X51774857Y-152612088D01*
X51942083Y-152682383D01*
X52092475Y-152783824D01*
X52220296Y-152912540D01*
X52320681Y-153063633D01*
X52389809Y-153231351D01*
X52424907Y-153408610D01*
X52424907Y-153408626D01*
X52425040Y-153409299D01*
X52422147Y-153616494D01*
X52421995Y-153617162D01*
X52421995Y-153617181D01*
X52381962Y-153793387D01*
X52308177Y-153959110D01*
X52203611Y-154107343D01*
X52072247Y-154232440D01*
X51919078Y-154329643D01*
X51749960Y-154395240D01*
X51571308Y-154426741D01*
X51389946Y-154422942D01*
X51212774Y-154383988D01*
X51046544Y-154311364D01*
X50897586Y-154207836D01*
X50771573Y-154077345D01*
X50673305Y-153924863D01*
X50606526Y-153756198D01*
X50573779Y-153577776D01*
X50576312Y-153396394D01*
X50614028Y-153218954D01*
X50685491Y-153052217D01*
X50787978Y-152902540D01*
X50917581Y-152775623D01*
X51069378Y-152676290D01*
X51237567Y-152608337D01*
X51415758Y-152574345D01*
X51597157Y-152575612D01*
X51597157Y-152575612D01*
G37*
G36*
X119604058Y-151646465D02*
X119604064Y-151646466D01*
X119608116Y-151646494D01*
X119795006Y-151667457D01*
X119974264Y-151724321D01*
X120139064Y-151814921D01*
X120283128Y-151935804D01*
X120400968Y-152082368D01*
X120488096Y-152249029D01*
X120541194Y-152429439D01*
X120541200Y-152429500D01*
X120541208Y-152429529D01*
X120558243Y-152616722D01*
X120538595Y-152803662D01*
X120538589Y-152803681D01*
X120538581Y-152803759D01*
X120482969Y-152983410D01*
X120393523Y-153148838D01*
X120273648Y-153293742D01*
X120127910Y-153412603D01*
X119961861Y-153500893D01*
X119781826Y-153555248D01*
X119594662Y-153573600D01*
X119585268Y-153573600D01*
X119575942Y-153573535D01*
X119575936Y-153573534D01*
X119571884Y-153573506D01*
X119384994Y-153552543D01*
X119205736Y-153495679D01*
X119040936Y-153405079D01*
X118896872Y-153284196D01*
X118779032Y-153137632D01*
X118691904Y-152970971D01*
X118638806Y-152790561D01*
X118638800Y-152790500D01*
X118638792Y-152790471D01*
X118621757Y-152603278D01*
X118641405Y-152416338D01*
X118641411Y-152416319D01*
X118641419Y-152416241D01*
X118697031Y-152236590D01*
X118786477Y-152071162D01*
X118906352Y-151926258D01*
X119052090Y-151807397D01*
X119218139Y-151719107D01*
X119398174Y-151664752D01*
X119585338Y-151646400D01*
X119594732Y-151646400D01*
X119604058Y-151646465D01*
X119604058Y-151646465D01*
G37*
G36*
X117064058Y-151646465D02*
X117064064Y-151646466D01*
X117068116Y-151646494D01*
X117255006Y-151667457D01*
X117434264Y-151724321D01*
X117599064Y-151814921D01*
X117743128Y-151935804D01*
X117860968Y-152082368D01*
X117948096Y-152249029D01*
X118001194Y-152429439D01*
X118001200Y-152429500D01*
X118001208Y-152429529D01*
X118018243Y-152616722D01*
X117998595Y-152803662D01*
X117998589Y-152803681D01*
X117998581Y-152803759D01*
X117942969Y-152983410D01*
X117853523Y-153148838D01*
X117733648Y-153293742D01*
X117587910Y-153412603D01*
X117421861Y-153500893D01*
X117241826Y-153555248D01*
X117054662Y-153573600D01*
X117045268Y-153573600D01*
X117035942Y-153573535D01*
X117035936Y-153573534D01*
X117031884Y-153573506D01*
X116844994Y-153552543D01*
X116665736Y-153495679D01*
X116500936Y-153405079D01*
X116356872Y-153284196D01*
X116239032Y-153137632D01*
X116151904Y-152970971D01*
X116098806Y-152790561D01*
X116098800Y-152790500D01*
X116098792Y-152790471D01*
X116081757Y-152603278D01*
X116101405Y-152416338D01*
X116101411Y-152416319D01*
X116101419Y-152416241D01*
X116157031Y-152236590D01*
X116246477Y-152071162D01*
X116366352Y-151926258D01*
X116512090Y-151807397D01*
X116678139Y-151719107D01*
X116858174Y-151664752D01*
X117045338Y-151646400D01*
X117054732Y-151646400D01*
X117064058Y-151646465D01*
X117064058Y-151646465D01*
G37*
G36*
X119604058Y-149106465D02*
X119604064Y-149106466D01*
X119608116Y-149106494D01*
X119795006Y-149127457D01*
X119974264Y-149184321D01*
X120139064Y-149274921D01*
X120283128Y-149395804D01*
X120400968Y-149542368D01*
X120488096Y-149709029D01*
X120541194Y-149889439D01*
X120541200Y-149889500D01*
X120541208Y-149889529D01*
X120558243Y-150076722D01*
X120538595Y-150263662D01*
X120538589Y-150263681D01*
X120538581Y-150263759D01*
X120482969Y-150443410D01*
X120393523Y-150608838D01*
X120273648Y-150753742D01*
X120127910Y-150872603D01*
X119961861Y-150960893D01*
X119781826Y-151015248D01*
X119594662Y-151033600D01*
X119585268Y-151033600D01*
X119575942Y-151033535D01*
X119575936Y-151033534D01*
X119571884Y-151033506D01*
X119384994Y-151012543D01*
X119205736Y-150955679D01*
X119040936Y-150865079D01*
X118896872Y-150744196D01*
X118779032Y-150597632D01*
X118691904Y-150430971D01*
X118638806Y-150250561D01*
X118638800Y-150250500D01*
X118638792Y-150250471D01*
X118621757Y-150063278D01*
X118641405Y-149876338D01*
X118641411Y-149876319D01*
X118641419Y-149876241D01*
X118697031Y-149696590D01*
X118786477Y-149531162D01*
X118906352Y-149386258D01*
X119052090Y-149267397D01*
X119218139Y-149179107D01*
X119398174Y-149124752D01*
X119585338Y-149106400D01*
X119594732Y-149106400D01*
X119604058Y-149106465D01*
X119604058Y-149106465D01*
G37*
G36*
X117064058Y-149106465D02*
X117064064Y-149106466D01*
X117068116Y-149106494D01*
X117255006Y-149127457D01*
X117434264Y-149184321D01*
X117599064Y-149274921D01*
X117743128Y-149395804D01*
X117860968Y-149542368D01*
X117948096Y-149709029D01*
X118001194Y-149889439D01*
X118001200Y-149889500D01*
X118001208Y-149889529D01*
X118018243Y-150076722D01*
X117998595Y-150263662D01*
X117998589Y-150263681D01*
X117998581Y-150263759D01*
X117942969Y-150443410D01*
X117853523Y-150608838D01*
X117733648Y-150753742D01*
X117587910Y-150872603D01*
X117421861Y-150960893D01*
X117241826Y-151015248D01*
X117054662Y-151033600D01*
X117045268Y-151033600D01*
X117035942Y-151033535D01*
X117035936Y-151033534D01*
X117031884Y-151033506D01*
X116844994Y-151012543D01*
X116665736Y-150955679D01*
X116500936Y-150865079D01*
X116356872Y-150744196D01*
X116239032Y-150597632D01*
X116151904Y-150430971D01*
X116098806Y-150250561D01*
X116098800Y-150250500D01*
X116098792Y-150250471D01*
X116081757Y-150063278D01*
X116101405Y-149876338D01*
X116101411Y-149876319D01*
X116101419Y-149876241D01*
X116157031Y-149696590D01*
X116246477Y-149531162D01*
X116366352Y-149386258D01*
X116512090Y-149267397D01*
X116678139Y-149179107D01*
X116858174Y-149124752D01*
X117045338Y-149106400D01*
X117054732Y-149106400D01*
X117064058Y-149106465D01*
X117064058Y-149106465D01*
G37*
G36*
X51597157Y-149075612D02*
X51774857Y-149112088D01*
X51942083Y-149182383D01*
X52092475Y-149283824D01*
X52220296Y-149412540D01*
X52320681Y-149563633D01*
X52389809Y-149731351D01*
X52424907Y-149908610D01*
X52424907Y-149908626D01*
X52425040Y-149909299D01*
X52422147Y-150116494D01*
X52421995Y-150117162D01*
X52421995Y-150117181D01*
X52381962Y-150293387D01*
X52308177Y-150459110D01*
X52203611Y-150607343D01*
X52072247Y-150732440D01*
X51919078Y-150829643D01*
X51749960Y-150895240D01*
X51571308Y-150926741D01*
X51389946Y-150922942D01*
X51212774Y-150883988D01*
X51046544Y-150811364D01*
X50897586Y-150707836D01*
X50771573Y-150577345D01*
X50673305Y-150424863D01*
X50606526Y-150256198D01*
X50573779Y-150077776D01*
X50576312Y-149896394D01*
X50614028Y-149718954D01*
X50685491Y-149552217D01*
X50787978Y-149402540D01*
X50917581Y-149275623D01*
X51069378Y-149176290D01*
X51237567Y-149108337D01*
X51415758Y-149074345D01*
X51597157Y-149075612D01*
X51597157Y-149075612D01*
G37*
G36*
X248597157Y-149075612D02*
X248774857Y-149112088D01*
X248942083Y-149182383D01*
X249092475Y-149283824D01*
X249220296Y-149412540D01*
X249320681Y-149563633D01*
X249389809Y-149731351D01*
X249424907Y-149908610D01*
X249424907Y-149908626D01*
X249425040Y-149909299D01*
X249422147Y-150116494D01*
X249421995Y-150117162D01*
X249421995Y-150117181D01*
X249381962Y-150293387D01*
X249308177Y-150459110D01*
X249203611Y-150607343D01*
X249072247Y-150732440D01*
X248919078Y-150829643D01*
X248749960Y-150895240D01*
X248571308Y-150926741D01*
X248389946Y-150922942D01*
X248212774Y-150883988D01*
X248046544Y-150811364D01*
X247897586Y-150707836D01*
X247771573Y-150577345D01*
X247673305Y-150424863D01*
X247606526Y-150256198D01*
X247573779Y-150077776D01*
X247576312Y-149896394D01*
X247614028Y-149718954D01*
X247685491Y-149552217D01*
X247787978Y-149402540D01*
X247917581Y-149275623D01*
X248069378Y-149176290D01*
X248237567Y-149108337D01*
X248415758Y-149074345D01*
X248597157Y-149075612D01*
X248597157Y-149075612D01*
G37*
G36*
X55090540Y-149138570D02*
X55256138Y-149172562D01*
X55411975Y-149238070D01*
X55552118Y-149332599D01*
X55671240Y-149452554D01*
X55764786Y-149593353D01*
X55829206Y-149749647D01*
X55861905Y-149914788D01*
X55861905Y-149914809D01*
X55862037Y-149915477D01*
X55859341Y-150108560D01*
X55859190Y-150109223D01*
X55859190Y-150109247D01*
X55821894Y-150273405D01*
X55753133Y-150427845D01*
X55655692Y-150565975D01*
X55533272Y-150682555D01*
X55390535Y-150773138D01*
X55232936Y-150834267D01*
X55066451Y-150863623D01*
X54897440Y-150860082D01*
X54732338Y-150823783D01*
X54577428Y-150756104D01*
X54438616Y-150659627D01*
X54321185Y-150538024D01*
X54229609Y-150395926D01*
X54167379Y-150238749D01*
X54136862Y-150072479D01*
X54139222Y-149903451D01*
X54174370Y-149738091D01*
X54240963Y-149582718D01*
X54336472Y-149443232D01*
X54457248Y-149324959D01*
X54598707Y-149232391D01*
X54755440Y-149169066D01*
X54921496Y-149137389D01*
X55090540Y-149138570D01*
X55090540Y-149138570D01*
G37*
G36*
X241313026Y-149400396D02*
X241428285Y-149424055D01*
X241536755Y-149469652D01*
X241634310Y-149535453D01*
X241717220Y-149618944D01*
X241782334Y-149716950D01*
X241827176Y-149825744D01*
X241849893Y-149940474D01*
X241849893Y-149940494D01*
X241850026Y-149941167D01*
X241848149Y-150075564D01*
X241847998Y-150076227D01*
X241847998Y-150076251D01*
X241822084Y-150190309D01*
X241774226Y-150297798D01*
X241706396Y-150393954D01*
X241621186Y-150475098D01*
X241521837Y-150538146D01*
X241412136Y-150580697D01*
X241296253Y-150601131D01*
X241178612Y-150598666D01*
X241063691Y-150573400D01*
X240955866Y-150526292D01*
X240859245Y-150459138D01*
X240777506Y-150374495D01*
X240713764Y-150275587D01*
X240670448Y-150166183D01*
X240649207Y-150050450D01*
X240650850Y-149932797D01*
X240675314Y-149817700D01*
X240721669Y-149709545D01*
X240788147Y-149612458D01*
X240872216Y-149530131D01*
X240970674Y-149465702D01*
X241079772Y-149421623D01*
X241195356Y-149399574D01*
X241313026Y-149400396D01*
X241313026Y-149400396D01*
G37*
G36*
X119604058Y-146566465D02*
X119604064Y-146566466D01*
X119608116Y-146566494D01*
X119795006Y-146587457D01*
X119974264Y-146644321D01*
X120139064Y-146734921D01*
X120283128Y-146855804D01*
X120400968Y-147002368D01*
X120488096Y-147169029D01*
X120541194Y-147349439D01*
X120541200Y-147349500D01*
X120541208Y-147349529D01*
X120558243Y-147536722D01*
X120538595Y-147723662D01*
X120538589Y-147723681D01*
X120538581Y-147723759D01*
X120482969Y-147903410D01*
X120393523Y-148068838D01*
X120273648Y-148213742D01*
X120127910Y-148332603D01*
X119961861Y-148420893D01*
X119781826Y-148475248D01*
X119594662Y-148493600D01*
X119585268Y-148493600D01*
X119575942Y-148493535D01*
X119575936Y-148493534D01*
X119571884Y-148493506D01*
X119384994Y-148472543D01*
X119205736Y-148415679D01*
X119040936Y-148325079D01*
X118896872Y-148204196D01*
X118779032Y-148057632D01*
X118691904Y-147890971D01*
X118638806Y-147710561D01*
X118638800Y-147710500D01*
X118638792Y-147710471D01*
X118621757Y-147523278D01*
X118641405Y-147336338D01*
X118641411Y-147336319D01*
X118641419Y-147336241D01*
X118697031Y-147156590D01*
X118786477Y-146991162D01*
X118906352Y-146846258D01*
X119052090Y-146727397D01*
X119218139Y-146639107D01*
X119398174Y-146584752D01*
X119585338Y-146566400D01*
X119594732Y-146566400D01*
X119604058Y-146566465D01*
X119604058Y-146566465D01*
G37*
G36*
X117064058Y-146566465D02*
X117064064Y-146566466D01*
X117068116Y-146566494D01*
X117255006Y-146587457D01*
X117434264Y-146644321D01*
X117599064Y-146734921D01*
X117743128Y-146855804D01*
X117860968Y-147002368D01*
X117948096Y-147169029D01*
X118001194Y-147349439D01*
X118001200Y-147349500D01*
X118001208Y-147349529D01*
X118018243Y-147536722D01*
X117998595Y-147723662D01*
X117998589Y-147723681D01*
X117998581Y-147723759D01*
X117942969Y-147903410D01*
X117853523Y-148068838D01*
X117733648Y-148213742D01*
X117587910Y-148332603D01*
X117421861Y-148420893D01*
X117241826Y-148475248D01*
X117054662Y-148493600D01*
X117045268Y-148493600D01*
X117035942Y-148493535D01*
X117035936Y-148493534D01*
X117031884Y-148493506D01*
X116844994Y-148472543D01*
X116665736Y-148415679D01*
X116500936Y-148325079D01*
X116356872Y-148204196D01*
X116239032Y-148057632D01*
X116151904Y-147890971D01*
X116098806Y-147710561D01*
X116098800Y-147710500D01*
X116098792Y-147710471D01*
X116081757Y-147523278D01*
X116101405Y-147336338D01*
X116101411Y-147336319D01*
X116101419Y-147336241D01*
X116157031Y-147156590D01*
X116246477Y-146991162D01*
X116366352Y-146846258D01*
X116512090Y-146727397D01*
X116678139Y-146639107D01*
X116858174Y-146584752D01*
X117045338Y-146566400D01*
X117054732Y-146566400D01*
X117064058Y-146566465D01*
X117064058Y-146566465D01*
G37*
G36*
X248597157Y-145575612D02*
X248774857Y-145612088D01*
X248942083Y-145682383D01*
X249092475Y-145783824D01*
X249220296Y-145912540D01*
X249320681Y-146063633D01*
X249389809Y-146231351D01*
X249424907Y-146408610D01*
X249424907Y-146408626D01*
X249425040Y-146409299D01*
X249422147Y-146616494D01*
X249421995Y-146617162D01*
X249421995Y-146617181D01*
X249381962Y-146793387D01*
X249308177Y-146959110D01*
X249203611Y-147107343D01*
X249072247Y-147232440D01*
X248919078Y-147329643D01*
X248749960Y-147395240D01*
X248571308Y-147426741D01*
X248389946Y-147422942D01*
X248212774Y-147383988D01*
X248046544Y-147311364D01*
X247897586Y-147207836D01*
X247771573Y-147077345D01*
X247673305Y-146924863D01*
X247606526Y-146756198D01*
X247573779Y-146577776D01*
X247576312Y-146396394D01*
X247614028Y-146218954D01*
X247685491Y-146052217D01*
X247787978Y-145902540D01*
X247917581Y-145775623D01*
X248069378Y-145676290D01*
X248237567Y-145608337D01*
X248415758Y-145574345D01*
X248597157Y-145575612D01*
X248597157Y-145575612D01*
G37*
G36*
X119604058Y-144026465D02*
X119604064Y-144026466D01*
X119608116Y-144026494D01*
X119795006Y-144047457D01*
X119974264Y-144104321D01*
X120139064Y-144194921D01*
X120283128Y-144315804D01*
X120400968Y-144462368D01*
X120488096Y-144629029D01*
X120541194Y-144809439D01*
X120541200Y-144809500D01*
X120541208Y-144809529D01*
X120558243Y-144996722D01*
X120538595Y-145183662D01*
X120538589Y-145183681D01*
X120538581Y-145183759D01*
X120482969Y-145363410D01*
X120393523Y-145528838D01*
X120273648Y-145673742D01*
X120127910Y-145792603D01*
X119961861Y-145880893D01*
X119781826Y-145935248D01*
X119594662Y-145953600D01*
X119585268Y-145953600D01*
X119575942Y-145953535D01*
X119575936Y-145953534D01*
X119571884Y-145953506D01*
X119384994Y-145932543D01*
X119205736Y-145875679D01*
X119040936Y-145785079D01*
X118896872Y-145664196D01*
X118779032Y-145517632D01*
X118691904Y-145350971D01*
X118638806Y-145170561D01*
X118638800Y-145170500D01*
X118638792Y-145170471D01*
X118621757Y-144983278D01*
X118641405Y-144796338D01*
X118641411Y-144796319D01*
X118641419Y-144796241D01*
X118697031Y-144616590D01*
X118786477Y-144451162D01*
X118906352Y-144306258D01*
X119052090Y-144187397D01*
X119218139Y-144099107D01*
X119398174Y-144044752D01*
X119585338Y-144026400D01*
X119594732Y-144026400D01*
X119604058Y-144026465D01*
X119604058Y-144026465D01*
G37*
G36*
X117064058Y-144026465D02*
X117064064Y-144026466D01*
X117068116Y-144026494D01*
X117255006Y-144047457D01*
X117434264Y-144104321D01*
X117599064Y-144194921D01*
X117743128Y-144315804D01*
X117860968Y-144462368D01*
X117948096Y-144629029D01*
X118001194Y-144809439D01*
X118001200Y-144809500D01*
X118001208Y-144809529D01*
X118018243Y-144996722D01*
X117998595Y-145183662D01*
X117998589Y-145183681D01*
X117998581Y-145183759D01*
X117942969Y-145363410D01*
X117853523Y-145528838D01*
X117733648Y-145673742D01*
X117587910Y-145792603D01*
X117421861Y-145880893D01*
X117241826Y-145935248D01*
X117054662Y-145953600D01*
X117045268Y-145953600D01*
X117035942Y-145953535D01*
X117035936Y-145953534D01*
X117031884Y-145953506D01*
X116844994Y-145932543D01*
X116665736Y-145875679D01*
X116500936Y-145785079D01*
X116356872Y-145664196D01*
X116239032Y-145517632D01*
X116151904Y-145350971D01*
X116098806Y-145170561D01*
X116098800Y-145170500D01*
X116098792Y-145170471D01*
X116081757Y-144983278D01*
X116101405Y-144796338D01*
X116101411Y-144796319D01*
X116101419Y-144796241D01*
X116157031Y-144616590D01*
X116246477Y-144451162D01*
X116366352Y-144306258D01*
X116512090Y-144187397D01*
X116678139Y-144099107D01*
X116858174Y-144044752D01*
X117045338Y-144026400D01*
X117054732Y-144026400D01*
X117064058Y-144026465D01*
X117064058Y-144026465D01*
G37*
G36*
X51731307Y-142306439D02*
X51909007Y-142342915D01*
X52076233Y-142413210D01*
X52226625Y-142514651D01*
X52354446Y-142643367D01*
X52454831Y-142794460D01*
X52523959Y-142962178D01*
X52559057Y-143139437D01*
X52559057Y-143139453D01*
X52559190Y-143140126D01*
X52556297Y-143347321D01*
X52556145Y-143347989D01*
X52556145Y-143348008D01*
X52516112Y-143524214D01*
X52442327Y-143689937D01*
X52337761Y-143838170D01*
X52206397Y-143963267D01*
X52053228Y-144060470D01*
X51884110Y-144126067D01*
X51705458Y-144157568D01*
X51524096Y-144153769D01*
X51346924Y-144114815D01*
X51180694Y-144042191D01*
X51031736Y-143938663D01*
X50905723Y-143808172D01*
X50807455Y-143655690D01*
X50740676Y-143487025D01*
X50707929Y-143308603D01*
X50710462Y-143127221D01*
X50748178Y-142949781D01*
X50819641Y-142783044D01*
X50922128Y-142633367D01*
X51051731Y-142506450D01*
X51203528Y-142407117D01*
X51371717Y-142339164D01*
X51549908Y-142305172D01*
X51731307Y-142306439D01*
X51731307Y-142306439D01*
G37*
G36*
X119604058Y-141486465D02*
X119604064Y-141486466D01*
X119608116Y-141486494D01*
X119795006Y-141507457D01*
X119974264Y-141564321D01*
X120139064Y-141654921D01*
X120283128Y-141775804D01*
X120400968Y-141922368D01*
X120488096Y-142089029D01*
X120541194Y-142269439D01*
X120541200Y-142269500D01*
X120541208Y-142269529D01*
X120558243Y-142456722D01*
X120538595Y-142643662D01*
X120538589Y-142643681D01*
X120538581Y-142643759D01*
X120482969Y-142823410D01*
X120393523Y-142988838D01*
X120273648Y-143133742D01*
X120127910Y-143252603D01*
X119961861Y-143340893D01*
X119781826Y-143395248D01*
X119594662Y-143413600D01*
X119585268Y-143413600D01*
X119575942Y-143413535D01*
X119575936Y-143413534D01*
X119571884Y-143413506D01*
X119384994Y-143392543D01*
X119205736Y-143335679D01*
X119040936Y-143245079D01*
X118896872Y-143124196D01*
X118779032Y-142977632D01*
X118691904Y-142810971D01*
X118638806Y-142630561D01*
X118638800Y-142630500D01*
X118638792Y-142630471D01*
X118621757Y-142443278D01*
X118641405Y-142256338D01*
X118641411Y-142256319D01*
X118641419Y-142256241D01*
X118697031Y-142076590D01*
X118786477Y-141911162D01*
X118906352Y-141766258D01*
X119052090Y-141647397D01*
X119218139Y-141559107D01*
X119398174Y-141504752D01*
X119585338Y-141486400D01*
X119594732Y-141486400D01*
X119604058Y-141486465D01*
X119604058Y-141486465D01*
G37*
G36*
X118013600Y-143413600D02*
X116086400Y-143413600D01*
X116086400Y-141486400D01*
X118013600Y-141486400D01*
X118013600Y-143413600D01*
X118013600Y-143413600D01*
G37*
G36*
X248097157Y-138825612D02*
X248274857Y-138862088D01*
X248442083Y-138932383D01*
X248592475Y-139033824D01*
X248720296Y-139162540D01*
X248820681Y-139313633D01*
X248889809Y-139481351D01*
X248924907Y-139658610D01*
X248924907Y-139658626D01*
X248925040Y-139659299D01*
X248922147Y-139866494D01*
X248921995Y-139867162D01*
X248921995Y-139867181D01*
X248881962Y-140043387D01*
X248808177Y-140209110D01*
X248703611Y-140357343D01*
X248572247Y-140482440D01*
X248419078Y-140579643D01*
X248249960Y-140645240D01*
X248071308Y-140676741D01*
X247889946Y-140672942D01*
X247712774Y-140633988D01*
X247546544Y-140561364D01*
X247397586Y-140457836D01*
X247271573Y-140327345D01*
X247173305Y-140174863D01*
X247106526Y-140006198D01*
X247073779Y-139827776D01*
X247076312Y-139646394D01*
X247114028Y-139468954D01*
X247185491Y-139302217D01*
X247287978Y-139152540D01*
X247417581Y-139025623D01*
X247569378Y-138926290D01*
X247737567Y-138858337D01*
X247915758Y-138824345D01*
X248097157Y-138825612D01*
X248097157Y-138825612D01*
G37*
G36*
X52097157Y-138825612D02*
X52274857Y-138862088D01*
X52442083Y-138932383D01*
X52592475Y-139033824D01*
X52720296Y-139162540D01*
X52820681Y-139313633D01*
X52889809Y-139481351D01*
X52924907Y-139658610D01*
X52924907Y-139658626D01*
X52925040Y-139659299D01*
X52922147Y-139866494D01*
X52921995Y-139867162D01*
X52921995Y-139867181D01*
X52881962Y-140043387D01*
X52808177Y-140209110D01*
X52703611Y-140357343D01*
X52572247Y-140482440D01*
X52419078Y-140579643D01*
X52249960Y-140645240D01*
X52071308Y-140676741D01*
X51889946Y-140672942D01*
X51712774Y-140633988D01*
X51546544Y-140561364D01*
X51397586Y-140457836D01*
X51271573Y-140327345D01*
X51173305Y-140174863D01*
X51106526Y-140006198D01*
X51073779Y-139827776D01*
X51076312Y-139646394D01*
X51114028Y-139468954D01*
X51185491Y-139302217D01*
X51287978Y-139152540D01*
X51417581Y-139025623D01*
X51569378Y-138926290D01*
X51737567Y-138858337D01*
X51915758Y-138824345D01*
X52097157Y-138825612D01*
X52097157Y-138825612D01*
G37*
G36*
X247731307Y-135344785D02*
X247909007Y-135381261D01*
X248076233Y-135451556D01*
X248226625Y-135552997D01*
X248354446Y-135681713D01*
X248454831Y-135832806D01*
X248523959Y-136000524D01*
X248559057Y-136177783D01*
X248559057Y-136177799D01*
X248559190Y-136178472D01*
X248556297Y-136385667D01*
X248556145Y-136386335D01*
X248556145Y-136386354D01*
X248516112Y-136562560D01*
X248442327Y-136728283D01*
X248337761Y-136876516D01*
X248206397Y-137001613D01*
X248053228Y-137098816D01*
X247884110Y-137164413D01*
X247705458Y-137195914D01*
X247524096Y-137192115D01*
X247346924Y-137153161D01*
X247180694Y-137080537D01*
X247031736Y-136977009D01*
X246905723Y-136846518D01*
X246807455Y-136694036D01*
X246740676Y-136525371D01*
X246707929Y-136346949D01*
X246710462Y-136165567D01*
X246748178Y-135988127D01*
X246819641Y-135821390D01*
X246922128Y-135671713D01*
X247051731Y-135544796D01*
X247203528Y-135445463D01*
X247371717Y-135377510D01*
X247549908Y-135343518D01*
X247731307Y-135344785D01*
X247731307Y-135344785D01*
G37*
G36*
X53119466Y-131999129D02*
X53297166Y-132035605D01*
X53464392Y-132105900D01*
X53614784Y-132207341D01*
X53742605Y-132336057D01*
X53842990Y-132487150D01*
X53912118Y-132654868D01*
X53947216Y-132832127D01*
X53947216Y-132832143D01*
X53947349Y-132832816D01*
X53944456Y-133040011D01*
X53944304Y-133040679D01*
X53944304Y-133040698D01*
X53904271Y-133216904D01*
X53830486Y-133382627D01*
X53725920Y-133530860D01*
X53594556Y-133655957D01*
X53441387Y-133753160D01*
X53272269Y-133818757D01*
X53093617Y-133850258D01*
X52912255Y-133846459D01*
X52735083Y-133807505D01*
X52568853Y-133734881D01*
X52419895Y-133631353D01*
X52293882Y-133500862D01*
X52195614Y-133348380D01*
X52128835Y-133179715D01*
X52096088Y-133001293D01*
X52098621Y-132819911D01*
X52136337Y-132642471D01*
X52207800Y-132475734D01*
X52310287Y-132326057D01*
X52439890Y-132199140D01*
X52591687Y-132099807D01*
X52759876Y-132031854D01*
X52938067Y-131997862D01*
X53119466Y-131999129D01*
X53119466Y-131999129D01*
G37*
G36*
X246597157Y-128575612D02*
X246774857Y-128612088D01*
X246942083Y-128682383D01*
X247092475Y-128783824D01*
X247220296Y-128912540D01*
X247320681Y-129063633D01*
X247389809Y-129231351D01*
X247424907Y-129408610D01*
X247424907Y-129408626D01*
X247425040Y-129409299D01*
X247422147Y-129616494D01*
X247421995Y-129617162D01*
X247421995Y-129617181D01*
X247381962Y-129793387D01*
X247308177Y-129959110D01*
X247203611Y-130107343D01*
X247072247Y-130232440D01*
X246919078Y-130329643D01*
X246749960Y-130395240D01*
X246571308Y-130426741D01*
X246389946Y-130422942D01*
X246212774Y-130383988D01*
X246046544Y-130311364D01*
X245897586Y-130207836D01*
X245771573Y-130077345D01*
X245673305Y-129924863D01*
X245606526Y-129756198D01*
X245573779Y-129577776D01*
X245576312Y-129396394D01*
X245614028Y-129218954D01*
X245685491Y-129052217D01*
X245787978Y-128902540D01*
X245917581Y-128775623D01*
X246069378Y-128676290D01*
X246237567Y-128608337D01*
X246415758Y-128574345D01*
X246597157Y-128575612D01*
X246597157Y-128575612D01*
G37*
G36*
X53847157Y-128575612D02*
X54024857Y-128612088D01*
X54192083Y-128682383D01*
X54342475Y-128783824D01*
X54470296Y-128912540D01*
X54570681Y-129063633D01*
X54639809Y-129231351D01*
X54674907Y-129408610D01*
X54674907Y-129408626D01*
X54675040Y-129409299D01*
X54672147Y-129616494D01*
X54671995Y-129617162D01*
X54671995Y-129617181D01*
X54631962Y-129793387D01*
X54558177Y-129959110D01*
X54453611Y-130107343D01*
X54322247Y-130232440D01*
X54169078Y-130329643D01*
X53999960Y-130395240D01*
X53821308Y-130426741D01*
X53639946Y-130422942D01*
X53462774Y-130383988D01*
X53296544Y-130311364D01*
X53147586Y-130207836D01*
X53021573Y-130077345D01*
X52923305Y-129924863D01*
X52856526Y-129756198D01*
X52823779Y-129577776D01*
X52826312Y-129396394D01*
X52864028Y-129218954D01*
X52935491Y-129052217D01*
X53037978Y-128902540D01*
X53167581Y-128775623D01*
X53319378Y-128676290D01*
X53487567Y-128608337D01*
X53665758Y-128574345D01*
X53847157Y-128575612D01*
X53847157Y-128575612D01*
G37*
G36*
X245869466Y-125152095D02*
X246047166Y-125188571D01*
X246214392Y-125258866D01*
X246364784Y-125360307D01*
X246492605Y-125489023D01*
X246592990Y-125640116D01*
X246662118Y-125807834D01*
X246697216Y-125985093D01*
X246697216Y-125985109D01*
X246697349Y-125985782D01*
X246694456Y-126192977D01*
X246694304Y-126193645D01*
X246694304Y-126193664D01*
X246654271Y-126369870D01*
X246580486Y-126535593D01*
X246475920Y-126683826D01*
X246344556Y-126808923D01*
X246191387Y-126906126D01*
X246022269Y-126971723D01*
X245843617Y-127003224D01*
X245662255Y-126999425D01*
X245485083Y-126960471D01*
X245318853Y-126887847D01*
X245169895Y-126784319D01*
X245043882Y-126653828D01*
X244945614Y-126501346D01*
X244878835Y-126332681D01*
X244846088Y-126154259D01*
X244848621Y-125972877D01*
X244886337Y-125795437D01*
X244957800Y-125628700D01*
X245060287Y-125479023D01*
X245189890Y-125352106D01*
X245341687Y-125252773D01*
X245509876Y-125184820D01*
X245688067Y-125150828D01*
X245869466Y-125152095D01*
X245869466Y-125152095D01*
G37*
G36*
X55265598Y-121904310D02*
X55443298Y-121940786D01*
X55610524Y-122011081D01*
X55760916Y-122112522D01*
X55888737Y-122241238D01*
X55989122Y-122392331D01*
X56058250Y-122560049D01*
X56093348Y-122737308D01*
X56093348Y-122737324D01*
X56093481Y-122737997D01*
X56090588Y-122945192D01*
X56090436Y-122945860D01*
X56090436Y-122945879D01*
X56050403Y-123122085D01*
X55976618Y-123287808D01*
X55872052Y-123436041D01*
X55740688Y-123561138D01*
X55587519Y-123658341D01*
X55418401Y-123723938D01*
X55239749Y-123755439D01*
X55058387Y-123751640D01*
X54881215Y-123712686D01*
X54714985Y-123640062D01*
X54566027Y-123536534D01*
X54440014Y-123406043D01*
X54341746Y-123253561D01*
X54274967Y-123084896D01*
X54242220Y-122906474D01*
X54244753Y-122725092D01*
X54282469Y-122547652D01*
X54353932Y-122380915D01*
X54456419Y-122231238D01*
X54586022Y-122104321D01*
X54737819Y-122004988D01*
X54906008Y-121937035D01*
X55084199Y-121903043D01*
X55265598Y-121904310D01*
X55265598Y-121904310D01*
G37*
G36*
X169522409Y-118925646D02*
X169709714Y-118964094D01*
X169885979Y-119038189D01*
X170044497Y-119145111D01*
X170179232Y-119280789D01*
X170285041Y-119440046D01*
X170357907Y-119616833D01*
X170394909Y-119803704D01*
X170394909Y-119803723D01*
X170395042Y-119804396D01*
X170391993Y-120022791D01*
X170391840Y-120023464D01*
X170391840Y-120023478D01*
X170349634Y-120209250D01*
X170271864Y-120383922D01*
X170161643Y-120540172D01*
X170023178Y-120672029D01*
X169861730Y-120774487D01*
X169683470Y-120843630D01*
X169495162Y-120876834D01*
X169303997Y-120872829D01*
X169117249Y-120831770D01*
X168942034Y-120755221D01*
X168785024Y-120646096D01*
X168652200Y-120508552D01*
X168548621Y-120347829D01*
X168478230Y-120170045D01*
X168443714Y-119981981D01*
X168446384Y-119790794D01*
X168486139Y-119603758D01*
X168561462Y-119428017D01*
X168669491Y-119270246D01*
X168806103Y-119136465D01*
X168966097Y-119031768D01*
X169143381Y-118960140D01*
X169331205Y-118924311D01*
X169522409Y-118925646D01*
X169522409Y-118925646D01*
G37*
G36*
X228682409Y-118925646D02*
X228869714Y-118964094D01*
X229045979Y-119038189D01*
X229204497Y-119145111D01*
X229339232Y-119280789D01*
X229445041Y-119440046D01*
X229517907Y-119616833D01*
X229554909Y-119803704D01*
X229554909Y-119803723D01*
X229555042Y-119804396D01*
X229551993Y-120022791D01*
X229551840Y-120023464D01*
X229551840Y-120023478D01*
X229509634Y-120209250D01*
X229431864Y-120383922D01*
X229321643Y-120540172D01*
X229183178Y-120672029D01*
X229021730Y-120774487D01*
X228843470Y-120843630D01*
X228655162Y-120876834D01*
X228463997Y-120872829D01*
X228277249Y-120831770D01*
X228102034Y-120755221D01*
X227945024Y-120646096D01*
X227812200Y-120508552D01*
X227708621Y-120347829D01*
X227638230Y-120170045D01*
X227603714Y-119981981D01*
X227606384Y-119790794D01*
X227646139Y-119603758D01*
X227721462Y-119428017D01*
X227829491Y-119270246D01*
X227966103Y-119136465D01*
X228126097Y-119031768D01*
X228303381Y-118960140D01*
X228491205Y-118924311D01*
X228682409Y-118925646D01*
X228682409Y-118925646D01*
G37*
G36*
X226142409Y-118925646D02*
X226329714Y-118964094D01*
X226505979Y-119038189D01*
X226664497Y-119145111D01*
X226799232Y-119280789D01*
X226905041Y-119440046D01*
X226977907Y-119616833D01*
X227014909Y-119803704D01*
X227014909Y-119803723D01*
X227015042Y-119804396D01*
X227011993Y-120022791D01*
X227011840Y-120023464D01*
X227011840Y-120023478D01*
X226969634Y-120209250D01*
X226891864Y-120383922D01*
X226781643Y-120540172D01*
X226643178Y-120672029D01*
X226481730Y-120774487D01*
X226303470Y-120843630D01*
X226115162Y-120876834D01*
X225923997Y-120872829D01*
X225737249Y-120831770D01*
X225562034Y-120755221D01*
X225405024Y-120646096D01*
X225272200Y-120508552D01*
X225168621Y-120347829D01*
X225098230Y-120170045D01*
X225063714Y-119981981D01*
X225066384Y-119790794D01*
X225106139Y-119603758D01*
X225181462Y-119428017D01*
X225289491Y-119270246D01*
X225426103Y-119136465D01*
X225586097Y-119031768D01*
X225763381Y-118960140D01*
X225951205Y-118924311D01*
X226142409Y-118925646D01*
X226142409Y-118925646D01*
G37*
G36*
X223602409Y-118925646D02*
X223789714Y-118964094D01*
X223965979Y-119038189D01*
X224124497Y-119145111D01*
X224259232Y-119280789D01*
X224365041Y-119440046D01*
X224437907Y-119616833D01*
X224474909Y-119803704D01*
X224474909Y-119803723D01*
X224475042Y-119804396D01*
X224471993Y-120022791D01*
X224471840Y-120023464D01*
X224471840Y-120023478D01*
X224429634Y-120209250D01*
X224351864Y-120383922D01*
X224241643Y-120540172D01*
X224103178Y-120672029D01*
X223941730Y-120774487D01*
X223763470Y-120843630D01*
X223575162Y-120876834D01*
X223383997Y-120872829D01*
X223197249Y-120831770D01*
X223022034Y-120755221D01*
X222865024Y-120646096D01*
X222732200Y-120508552D01*
X222628621Y-120347829D01*
X222558230Y-120170045D01*
X222523714Y-119981981D01*
X222526384Y-119790794D01*
X222566139Y-119603758D01*
X222641462Y-119428017D01*
X222749491Y-119270246D01*
X222886103Y-119136465D01*
X223046097Y-119031768D01*
X223223381Y-118960140D01*
X223411205Y-118924311D01*
X223602409Y-118925646D01*
X223602409Y-118925646D01*
G37*
G36*
X74062409Y-118925646D02*
X74249714Y-118964094D01*
X74425979Y-119038189D01*
X74584497Y-119145111D01*
X74719232Y-119280789D01*
X74825041Y-119440046D01*
X74897907Y-119616833D01*
X74934909Y-119803704D01*
X74934909Y-119803723D01*
X74935042Y-119804396D01*
X74931993Y-120022791D01*
X74931840Y-120023464D01*
X74931840Y-120023478D01*
X74889634Y-120209250D01*
X74811864Y-120383922D01*
X74701643Y-120540172D01*
X74563178Y-120672029D01*
X74401730Y-120774487D01*
X74223470Y-120843630D01*
X74035162Y-120876834D01*
X73843997Y-120872829D01*
X73657249Y-120831770D01*
X73482034Y-120755221D01*
X73325024Y-120646096D01*
X73192200Y-120508552D01*
X73088621Y-120347829D01*
X73018230Y-120170045D01*
X72983714Y-119981981D01*
X72986384Y-119790794D01*
X73026139Y-119603758D01*
X73101462Y-119428017D01*
X73209491Y-119270246D01*
X73346103Y-119136465D01*
X73506097Y-119031768D01*
X73683381Y-118960140D01*
X73871205Y-118924311D01*
X74062409Y-118925646D01*
X74062409Y-118925646D01*
G37*
G36*
X76602409Y-118925646D02*
X76789714Y-118964094D01*
X76965979Y-119038189D01*
X77124497Y-119145111D01*
X77259232Y-119280789D01*
X77365041Y-119440046D01*
X77437907Y-119616833D01*
X77474909Y-119803704D01*
X77474909Y-119803723D01*
X77475042Y-119804396D01*
X77471993Y-120022791D01*
X77471840Y-120023464D01*
X77471840Y-120023478D01*
X77429634Y-120209250D01*
X77351864Y-120383922D01*
X77241643Y-120540172D01*
X77103178Y-120672029D01*
X76941730Y-120774487D01*
X76763470Y-120843630D01*
X76575162Y-120876834D01*
X76383997Y-120872829D01*
X76197249Y-120831770D01*
X76022034Y-120755221D01*
X75865024Y-120646096D01*
X75732200Y-120508552D01*
X75628621Y-120347829D01*
X75558230Y-120170045D01*
X75523714Y-119981981D01*
X75526384Y-119790794D01*
X75566139Y-119603758D01*
X75641462Y-119428017D01*
X75749491Y-119270246D01*
X75886103Y-119136465D01*
X76046097Y-119031768D01*
X76223381Y-118960140D01*
X76411205Y-118924311D01*
X76602409Y-118925646D01*
X76602409Y-118925646D01*
G37*
G36*
X71522409Y-118925646D02*
X71709714Y-118964094D01*
X71885979Y-119038189D01*
X72044497Y-119145111D01*
X72179232Y-119280789D01*
X72285041Y-119440046D01*
X72357907Y-119616833D01*
X72394909Y-119803704D01*
X72394909Y-119803723D01*
X72395042Y-119804396D01*
X72391993Y-120022791D01*
X72391840Y-120023464D01*
X72391840Y-120023478D01*
X72349634Y-120209250D01*
X72271864Y-120383922D01*
X72161643Y-120540172D01*
X72023178Y-120672029D01*
X71861730Y-120774487D01*
X71683470Y-120843630D01*
X71495162Y-120876834D01*
X71303997Y-120872829D01*
X71117249Y-120831770D01*
X70942034Y-120755221D01*
X70785024Y-120646096D01*
X70652200Y-120508552D01*
X70548621Y-120347829D01*
X70478230Y-120170045D01*
X70443714Y-119981981D01*
X70446384Y-119790794D01*
X70486139Y-119603758D01*
X70561462Y-119428017D01*
X70669491Y-119270246D01*
X70806103Y-119136465D01*
X70966097Y-119031768D01*
X71143381Y-118960140D01*
X71331205Y-118924311D01*
X71522409Y-118925646D01*
X71522409Y-118925646D01*
G37*
G36*
X79142409Y-118925646D02*
X79329714Y-118964094D01*
X79505979Y-119038189D01*
X79664497Y-119145111D01*
X79799232Y-119280789D01*
X79905041Y-119440046D01*
X79977907Y-119616833D01*
X80014909Y-119803704D01*
X80014909Y-119803723D01*
X80015042Y-119804396D01*
X80011993Y-120022791D01*
X80011840Y-120023464D01*
X80011840Y-120023478D01*
X79969634Y-120209250D01*
X79891864Y-120383922D01*
X79781643Y-120540172D01*
X79643178Y-120672029D01*
X79481730Y-120774487D01*
X79303470Y-120843630D01*
X79115162Y-120876834D01*
X78923997Y-120872829D01*
X78737249Y-120831770D01*
X78562034Y-120755221D01*
X78405024Y-120646096D01*
X78272200Y-120508552D01*
X78168621Y-120347829D01*
X78098230Y-120170045D01*
X78063714Y-119981981D01*
X78066384Y-119790794D01*
X78106139Y-119603758D01*
X78181462Y-119428017D01*
X78289491Y-119270246D01*
X78426103Y-119136465D01*
X78586097Y-119031768D01*
X78763381Y-118960140D01*
X78951205Y-118924311D01*
X79142409Y-118925646D01*
X79142409Y-118925646D01*
G37*
G36*
X81682409Y-118925646D02*
X81869714Y-118964094D01*
X82045979Y-119038189D01*
X82204497Y-119145111D01*
X82339232Y-119280789D01*
X82445041Y-119440046D01*
X82517907Y-119616833D01*
X82554909Y-119803704D01*
X82554909Y-119803723D01*
X82555042Y-119804396D01*
X82551993Y-120022791D01*
X82551840Y-120023464D01*
X82551840Y-120023478D01*
X82509634Y-120209250D01*
X82431864Y-120383922D01*
X82321643Y-120540172D01*
X82183178Y-120672029D01*
X82021730Y-120774487D01*
X81843470Y-120843630D01*
X81655162Y-120876834D01*
X81463997Y-120872829D01*
X81277249Y-120831770D01*
X81102034Y-120755221D01*
X80945024Y-120646096D01*
X80812200Y-120508552D01*
X80708621Y-120347829D01*
X80638230Y-120170045D01*
X80603714Y-119981981D01*
X80606384Y-119790794D01*
X80646139Y-119603758D01*
X80721462Y-119428017D01*
X80829491Y-119270246D01*
X80966103Y-119136465D01*
X81126097Y-119031768D01*
X81303381Y-118960140D01*
X81491205Y-118924311D01*
X81682409Y-118925646D01*
X81682409Y-118925646D01*
G37*
G36*
X221062409Y-118925646D02*
X221249714Y-118964094D01*
X221425979Y-119038189D01*
X221584497Y-119145111D01*
X221719232Y-119280789D01*
X221825041Y-119440046D01*
X221897907Y-119616833D01*
X221934909Y-119803704D01*
X221934909Y-119803723D01*
X221935042Y-119804396D01*
X221931993Y-120022791D01*
X221931840Y-120023464D01*
X221931840Y-120023478D01*
X221889634Y-120209250D01*
X221811864Y-120383922D01*
X221701643Y-120540172D01*
X221563178Y-120672029D01*
X221401730Y-120774487D01*
X221223470Y-120843630D01*
X221035162Y-120876834D01*
X220843997Y-120872829D01*
X220657249Y-120831770D01*
X220482034Y-120755221D01*
X220325024Y-120646096D01*
X220192200Y-120508552D01*
X220088621Y-120347829D01*
X220018230Y-120170045D01*
X219983714Y-119981981D01*
X219986384Y-119790794D01*
X220026139Y-119603758D01*
X220101462Y-119428017D01*
X220209491Y-119270246D01*
X220346103Y-119136465D01*
X220506097Y-119031768D01*
X220683381Y-118960140D01*
X220871205Y-118924311D01*
X221062409Y-118925646D01*
X221062409Y-118925646D01*
G37*
G36*
X177142409Y-118925646D02*
X177329714Y-118964094D01*
X177505979Y-119038189D01*
X177664497Y-119145111D01*
X177799232Y-119280789D01*
X177905041Y-119440046D01*
X177977907Y-119616833D01*
X178014909Y-119803704D01*
X178014909Y-119803723D01*
X178015042Y-119804396D01*
X178011993Y-120022791D01*
X178011840Y-120023464D01*
X178011840Y-120023478D01*
X177969634Y-120209250D01*
X177891864Y-120383922D01*
X177781643Y-120540172D01*
X177643178Y-120672029D01*
X177481730Y-120774487D01*
X177303470Y-120843630D01*
X177115162Y-120876834D01*
X176923997Y-120872829D01*
X176737249Y-120831770D01*
X176562034Y-120755221D01*
X176405024Y-120646096D01*
X176272200Y-120508552D01*
X176168621Y-120347829D01*
X176098230Y-120170045D01*
X176063714Y-119981981D01*
X176066384Y-119790794D01*
X176106139Y-119603758D01*
X176181462Y-119428017D01*
X176289491Y-119270246D01*
X176426103Y-119136465D01*
X176586097Y-119031768D01*
X176763381Y-118960140D01*
X176951205Y-118924311D01*
X177142409Y-118925646D01*
X177142409Y-118925646D01*
G37*
G36*
X125602409Y-118925646D02*
X125789714Y-118964094D01*
X125965979Y-119038189D01*
X126124497Y-119145111D01*
X126259232Y-119280789D01*
X126365041Y-119440046D01*
X126437907Y-119616833D01*
X126474909Y-119803704D01*
X126474909Y-119803723D01*
X126475042Y-119804396D01*
X126471993Y-120022791D01*
X126471840Y-120023464D01*
X126471840Y-120023478D01*
X126429634Y-120209250D01*
X126351864Y-120383922D01*
X126241643Y-120540172D01*
X126103178Y-120672029D01*
X125941730Y-120774487D01*
X125763470Y-120843630D01*
X125575162Y-120876834D01*
X125383997Y-120872829D01*
X125197249Y-120831770D01*
X125022034Y-120755221D01*
X124865024Y-120646096D01*
X124732200Y-120508552D01*
X124628621Y-120347829D01*
X124558230Y-120170045D01*
X124523714Y-119981981D01*
X124526384Y-119790794D01*
X124566139Y-119603758D01*
X124641462Y-119428017D01*
X124749491Y-119270246D01*
X124886103Y-119136465D01*
X125046097Y-119031768D01*
X125223381Y-118960140D01*
X125411205Y-118924311D01*
X125602409Y-118925646D01*
X125602409Y-118925646D01*
G37*
G36*
X120522409Y-118925646D02*
X120709714Y-118964094D01*
X120885979Y-119038189D01*
X121044497Y-119145111D01*
X121179232Y-119280789D01*
X121285041Y-119440046D01*
X121357907Y-119616833D01*
X121394909Y-119803704D01*
X121394909Y-119803723D01*
X121395042Y-119804396D01*
X121391993Y-120022791D01*
X121391840Y-120023464D01*
X121391840Y-120023478D01*
X121349634Y-120209250D01*
X121271864Y-120383922D01*
X121161643Y-120540172D01*
X121023178Y-120672029D01*
X120861730Y-120774487D01*
X120683470Y-120843630D01*
X120495162Y-120876834D01*
X120303997Y-120872829D01*
X120117249Y-120831770D01*
X119942034Y-120755221D01*
X119785024Y-120646096D01*
X119652200Y-120508552D01*
X119548621Y-120347829D01*
X119478230Y-120170045D01*
X119443714Y-119981981D01*
X119446384Y-119790794D01*
X119486139Y-119603758D01*
X119561462Y-119428017D01*
X119669491Y-119270246D01*
X119806103Y-119136465D01*
X119966097Y-119031768D01*
X120143381Y-118960140D01*
X120331205Y-118924311D01*
X120522409Y-118925646D01*
X120522409Y-118925646D01*
G37*
G36*
X123062409Y-118925646D02*
X123249714Y-118964094D01*
X123425979Y-119038189D01*
X123584497Y-119145111D01*
X123719232Y-119280789D01*
X123825041Y-119440046D01*
X123897907Y-119616833D01*
X123934909Y-119803704D01*
X123934909Y-119803723D01*
X123935042Y-119804396D01*
X123931993Y-120022791D01*
X123931840Y-120023464D01*
X123931840Y-120023478D01*
X123889634Y-120209250D01*
X123811864Y-120383922D01*
X123701643Y-120540172D01*
X123563178Y-120672029D01*
X123401730Y-120774487D01*
X123223470Y-120843630D01*
X123035162Y-120876834D01*
X122843997Y-120872829D01*
X122657249Y-120831770D01*
X122482034Y-120755221D01*
X122325024Y-120646096D01*
X122192200Y-120508552D01*
X122088621Y-120347829D01*
X122018230Y-120170045D01*
X121983714Y-119981981D01*
X121986384Y-119790794D01*
X122026139Y-119603758D01*
X122101462Y-119428017D01*
X122209491Y-119270246D01*
X122346103Y-119136465D01*
X122506097Y-119031768D01*
X122683381Y-118960140D01*
X122871205Y-118924311D01*
X123062409Y-118925646D01*
X123062409Y-118925646D01*
G37*
G36*
X218522409Y-118925646D02*
X218709714Y-118964094D01*
X218885979Y-119038189D01*
X219044497Y-119145111D01*
X219179232Y-119280789D01*
X219285041Y-119440046D01*
X219357907Y-119616833D01*
X219394909Y-119803704D01*
X219394909Y-119803723D01*
X219395042Y-119804396D01*
X219391993Y-120022791D01*
X219391840Y-120023464D01*
X219391840Y-120023478D01*
X219349634Y-120209250D01*
X219271864Y-120383922D01*
X219161643Y-120540172D01*
X219023178Y-120672029D01*
X218861730Y-120774487D01*
X218683470Y-120843630D01*
X218495162Y-120876834D01*
X218303997Y-120872829D01*
X218117249Y-120831770D01*
X217942034Y-120755221D01*
X217785024Y-120646096D01*
X217652200Y-120508552D01*
X217548621Y-120347829D01*
X217478230Y-120170045D01*
X217443714Y-119981981D01*
X217446384Y-119790794D01*
X217486139Y-119603758D01*
X217561462Y-119428017D01*
X217669491Y-119270246D01*
X217806103Y-119136465D01*
X217966097Y-119031768D01*
X218143381Y-118960140D01*
X218331205Y-118924311D01*
X218522409Y-118925646D01*
X218522409Y-118925646D01*
G37*
G36*
X128142409Y-118925646D02*
X128329714Y-118964094D01*
X128505979Y-119038189D01*
X128664497Y-119145111D01*
X128799232Y-119280789D01*
X128905041Y-119440046D01*
X128977907Y-119616833D01*
X129014909Y-119803704D01*
X129014909Y-119803723D01*
X129015042Y-119804396D01*
X129011993Y-120022791D01*
X129011840Y-120023464D01*
X129011840Y-120023478D01*
X128969634Y-120209250D01*
X128891864Y-120383922D01*
X128781643Y-120540172D01*
X128643178Y-120672029D01*
X128481730Y-120774487D01*
X128303470Y-120843630D01*
X128115162Y-120876834D01*
X127923997Y-120872829D01*
X127737249Y-120831770D01*
X127562034Y-120755221D01*
X127405024Y-120646096D01*
X127272200Y-120508552D01*
X127168621Y-120347829D01*
X127098230Y-120170045D01*
X127063714Y-119981981D01*
X127066384Y-119790794D01*
X127106139Y-119603758D01*
X127181462Y-119428017D01*
X127289491Y-119270246D01*
X127426103Y-119136465D01*
X127586097Y-119031768D01*
X127763381Y-118960140D01*
X127951205Y-118924311D01*
X128142409Y-118925646D01*
X128142409Y-118925646D01*
G37*
G36*
X130682409Y-118925646D02*
X130869714Y-118964094D01*
X131045979Y-119038189D01*
X131204497Y-119145111D01*
X131339232Y-119280789D01*
X131445041Y-119440046D01*
X131517907Y-119616833D01*
X131554909Y-119803704D01*
X131554909Y-119803723D01*
X131555042Y-119804396D01*
X131551993Y-120022791D01*
X131551840Y-120023464D01*
X131551840Y-120023478D01*
X131509634Y-120209250D01*
X131431864Y-120383922D01*
X131321643Y-120540172D01*
X131183178Y-120672029D01*
X131021730Y-120774487D01*
X130843470Y-120843630D01*
X130655162Y-120876834D01*
X130463997Y-120872829D01*
X130277249Y-120831770D01*
X130102034Y-120755221D01*
X129945024Y-120646096D01*
X129812200Y-120508552D01*
X129708621Y-120347829D01*
X129638230Y-120170045D01*
X129603714Y-119981981D01*
X129606384Y-119790794D01*
X129646139Y-119603758D01*
X129721462Y-119428017D01*
X129829491Y-119270246D01*
X129966103Y-119136465D01*
X130126097Y-119031768D01*
X130303381Y-118960140D01*
X130491205Y-118924311D01*
X130682409Y-118925646D01*
X130682409Y-118925646D01*
G37*
G36*
X172062409Y-118925646D02*
X172249714Y-118964094D01*
X172425979Y-119038189D01*
X172584497Y-119145111D01*
X172719232Y-119280789D01*
X172825041Y-119440046D01*
X172897907Y-119616833D01*
X172934909Y-119803704D01*
X172934909Y-119803723D01*
X172935042Y-119804396D01*
X172931993Y-120022791D01*
X172931840Y-120023464D01*
X172931840Y-120023478D01*
X172889634Y-120209250D01*
X172811864Y-120383922D01*
X172701643Y-120540172D01*
X172563178Y-120672029D01*
X172401730Y-120774487D01*
X172223470Y-120843630D01*
X172035162Y-120876834D01*
X171843997Y-120872829D01*
X171657249Y-120831770D01*
X171482034Y-120755221D01*
X171325024Y-120646096D01*
X171192200Y-120508552D01*
X171088621Y-120347829D01*
X171018230Y-120170045D01*
X170983714Y-119981981D01*
X170986384Y-119790794D01*
X171026139Y-119603758D01*
X171101462Y-119428017D01*
X171209491Y-119270246D01*
X171346103Y-119136465D01*
X171506097Y-119031768D01*
X171683381Y-118960140D01*
X171871205Y-118924311D01*
X172062409Y-118925646D01*
X172062409Y-118925646D01*
G37*
G36*
X174602409Y-118925646D02*
X174789714Y-118964094D01*
X174965979Y-119038189D01*
X175124497Y-119145111D01*
X175259232Y-119280789D01*
X175365041Y-119440046D01*
X175437907Y-119616833D01*
X175474909Y-119803704D01*
X175474909Y-119803723D01*
X175475042Y-119804396D01*
X175471993Y-120022791D01*
X175471840Y-120023464D01*
X175471840Y-120023478D01*
X175429634Y-120209250D01*
X175351864Y-120383922D01*
X175241643Y-120540172D01*
X175103178Y-120672029D01*
X174941730Y-120774487D01*
X174763470Y-120843630D01*
X174575162Y-120876834D01*
X174383997Y-120872829D01*
X174197249Y-120831770D01*
X174022034Y-120755221D01*
X173865024Y-120646096D01*
X173732200Y-120508552D01*
X173628621Y-120347829D01*
X173558230Y-120170045D01*
X173523714Y-119981981D01*
X173526384Y-119790794D01*
X173566139Y-119603758D01*
X173641462Y-119428017D01*
X173749491Y-119270246D01*
X173886103Y-119136465D01*
X174046097Y-119031768D01*
X174223381Y-118960140D01*
X174411205Y-118924311D01*
X174602409Y-118925646D01*
X174602409Y-118925646D01*
G37*
G36*
X179682409Y-118925646D02*
X179869714Y-118964094D01*
X180045979Y-119038189D01*
X180204497Y-119145111D01*
X180339232Y-119280789D01*
X180445041Y-119440046D01*
X180517907Y-119616833D01*
X180554909Y-119803704D01*
X180554909Y-119803723D01*
X180555042Y-119804396D01*
X180551993Y-120022791D01*
X180551840Y-120023464D01*
X180551840Y-120023478D01*
X180509634Y-120209250D01*
X180431864Y-120383922D01*
X180321643Y-120540172D01*
X180183178Y-120672029D01*
X180021730Y-120774487D01*
X179843470Y-120843630D01*
X179655162Y-120876834D01*
X179463997Y-120872829D01*
X179277249Y-120831770D01*
X179102034Y-120755221D01*
X178945024Y-120646096D01*
X178812200Y-120508552D01*
X178708621Y-120347829D01*
X178638230Y-120170045D01*
X178603714Y-119981981D01*
X178606384Y-119790794D01*
X178646139Y-119603758D01*
X178721462Y-119428017D01*
X178829491Y-119270246D01*
X178966103Y-119136465D01*
X179126097Y-119031768D01*
X179303381Y-118960140D01*
X179491205Y-118924311D01*
X179682409Y-118925646D01*
X179682409Y-118925646D01*
G37*
G36*
X243847157Y-118575612D02*
X244024857Y-118612088D01*
X244192083Y-118682383D01*
X244342475Y-118783824D01*
X244470296Y-118912540D01*
X244570681Y-119063633D01*
X244639809Y-119231351D01*
X244674907Y-119408610D01*
X244674907Y-119408626D01*
X244675040Y-119409299D01*
X244672147Y-119616494D01*
X244671995Y-119617162D01*
X244671995Y-119617181D01*
X244631962Y-119793387D01*
X244558177Y-119959110D01*
X244453611Y-120107343D01*
X244322247Y-120232440D01*
X244169078Y-120329643D01*
X243999960Y-120395240D01*
X243821308Y-120426741D01*
X243639946Y-120422942D01*
X243462774Y-120383988D01*
X243296544Y-120311364D01*
X243147586Y-120207836D01*
X243021573Y-120077345D01*
X242923305Y-119924863D01*
X242856526Y-119756198D01*
X242823779Y-119577776D01*
X242826312Y-119396394D01*
X242864028Y-119218954D01*
X242935491Y-119052217D01*
X243037978Y-118902540D01*
X243167581Y-118775623D01*
X243319378Y-118676290D01*
X243487567Y-118608337D01*
X243665758Y-118574345D01*
X243847157Y-118575612D01*
X243847157Y-118575612D01*
G37*
G36*
X56347157Y-118575612D02*
X56524857Y-118612088D01*
X56692083Y-118682383D01*
X56842475Y-118783824D01*
X56970296Y-118912540D01*
X57070681Y-119063633D01*
X57139809Y-119231351D01*
X57174907Y-119408610D01*
X57174907Y-119408626D01*
X57175040Y-119409299D01*
X57172147Y-119616494D01*
X57171995Y-119617162D01*
X57171995Y-119617181D01*
X57131962Y-119793387D01*
X57058177Y-119959110D01*
X56953611Y-120107343D01*
X56822247Y-120232440D01*
X56669078Y-120329643D01*
X56499960Y-120395240D01*
X56321308Y-120426741D01*
X56139946Y-120422942D01*
X55962774Y-120383988D01*
X55796544Y-120311364D01*
X55647586Y-120207836D01*
X55521573Y-120077345D01*
X55423305Y-119924863D01*
X55356526Y-119756198D01*
X55323779Y-119577776D01*
X55326312Y-119396394D01*
X55364028Y-119218954D01*
X55435491Y-119052217D01*
X55537978Y-118902540D01*
X55667581Y-118775623D01*
X55819378Y-118676290D01*
X55987567Y-118608337D01*
X56165758Y-118574345D01*
X56347157Y-118575612D01*
X56347157Y-118575612D01*
G37*
G36*
X242765598Y-115246914D02*
X242943298Y-115283390D01*
X243110524Y-115353685D01*
X243260916Y-115455126D01*
X243388737Y-115583842D01*
X243489122Y-115734935D01*
X243558250Y-115902653D01*
X243593348Y-116079912D01*
X243593348Y-116079928D01*
X243593481Y-116080601D01*
X243590588Y-116287796D01*
X243590436Y-116288464D01*
X243590436Y-116288483D01*
X243550403Y-116464689D01*
X243476618Y-116630412D01*
X243372052Y-116778645D01*
X243240688Y-116903742D01*
X243087519Y-117000945D01*
X242918401Y-117066542D01*
X242739749Y-117098043D01*
X242558387Y-117094244D01*
X242381215Y-117055290D01*
X242214985Y-116982666D01*
X242066027Y-116879138D01*
X241940014Y-116748647D01*
X241841746Y-116596165D01*
X241774967Y-116427500D01*
X241742220Y-116249078D01*
X241744753Y-116067696D01*
X241782469Y-115890256D01*
X241853932Y-115723519D01*
X241956419Y-115573842D01*
X242086022Y-115446925D01*
X242237819Y-115347592D01*
X242406008Y-115279639D01*
X242584199Y-115245647D01*
X242765598Y-115246914D01*
X242765598Y-115246914D01*
G37*
G36*
X58673579Y-112273021D02*
X58851279Y-112309497D01*
X59018505Y-112379792D01*
X59168897Y-112481233D01*
X59296718Y-112609949D01*
X59397103Y-112761042D01*
X59466231Y-112928760D01*
X59501329Y-113106019D01*
X59501329Y-113106035D01*
X59501462Y-113106708D01*
X59498569Y-113313903D01*
X59498417Y-113314571D01*
X59498417Y-113314590D01*
X59458384Y-113490796D01*
X59384599Y-113656519D01*
X59280033Y-113804752D01*
X59148669Y-113929849D01*
X58995500Y-114027052D01*
X58826382Y-114092649D01*
X58647730Y-114124150D01*
X58466368Y-114120351D01*
X58289196Y-114081397D01*
X58122966Y-114008773D01*
X57974008Y-113905245D01*
X57847995Y-113774754D01*
X57749727Y-113622272D01*
X57682948Y-113453607D01*
X57650201Y-113275185D01*
X57652734Y-113093803D01*
X57690450Y-112916363D01*
X57761913Y-112749626D01*
X57864400Y-112599949D01*
X57994003Y-112473032D01*
X58145800Y-112373699D01*
X58313989Y-112305746D01*
X58492180Y-112271754D01*
X58673579Y-112273021D01*
X58673579Y-112273021D01*
G37*
G36*
X240097157Y-109075612D02*
X240274857Y-109112088D01*
X240442083Y-109182383D01*
X240592475Y-109283824D01*
X240720296Y-109412540D01*
X240820681Y-109563633D01*
X240889809Y-109731351D01*
X240924907Y-109908610D01*
X240924907Y-109908626D01*
X240925040Y-109909299D01*
X240922147Y-110116494D01*
X240921995Y-110117162D01*
X240921995Y-110117181D01*
X240881962Y-110293387D01*
X240808177Y-110459110D01*
X240703611Y-110607343D01*
X240572247Y-110732440D01*
X240419078Y-110829643D01*
X240249960Y-110895240D01*
X240071308Y-110926741D01*
X239889946Y-110922942D01*
X239712774Y-110883988D01*
X239546544Y-110811364D01*
X239397586Y-110707836D01*
X239271573Y-110577345D01*
X239173305Y-110424863D01*
X239106526Y-110256198D01*
X239073779Y-110077776D01*
X239076312Y-109896394D01*
X239114028Y-109718954D01*
X239185491Y-109552217D01*
X239287978Y-109402540D01*
X239417581Y-109275623D01*
X239569378Y-109176290D01*
X239737567Y-109108337D01*
X239915758Y-109074345D01*
X240097157Y-109075612D01*
X240097157Y-109075612D01*
G37*
G36*
X60097157Y-109075612D02*
X60274857Y-109112088D01*
X60442083Y-109182383D01*
X60592475Y-109283824D01*
X60720296Y-109412540D01*
X60820681Y-109563633D01*
X60889809Y-109731351D01*
X60924907Y-109908610D01*
X60924907Y-109908626D01*
X60925040Y-109909299D01*
X60922147Y-110116494D01*
X60921995Y-110117162D01*
X60921995Y-110117181D01*
X60881962Y-110293387D01*
X60808177Y-110459110D01*
X60703611Y-110607343D01*
X60572247Y-110732440D01*
X60419078Y-110829643D01*
X60249960Y-110895240D01*
X60071308Y-110926741D01*
X59889946Y-110922942D01*
X59712774Y-110883988D01*
X59546544Y-110811364D01*
X59397586Y-110707836D01*
X59271573Y-110577345D01*
X59173305Y-110424863D01*
X59106526Y-110256198D01*
X59073779Y-110077776D01*
X59076312Y-109896394D01*
X59114028Y-109718954D01*
X59185491Y-109552217D01*
X59287978Y-109402540D01*
X59417581Y-109275623D01*
X59569378Y-109176290D01*
X59737567Y-109108337D01*
X59915758Y-109074345D01*
X60097157Y-109075612D01*
X60097157Y-109075612D01*
G37*
G36*
X238673579Y-105878203D02*
X238851279Y-105914679D01*
X239018505Y-105984974D01*
X239168897Y-106086415D01*
X239296718Y-106215131D01*
X239397103Y-106366224D01*
X239466231Y-106533942D01*
X239501329Y-106711201D01*
X239501329Y-106711217D01*
X239501462Y-106711890D01*
X239498569Y-106919085D01*
X239498417Y-106919753D01*
X239498417Y-106919772D01*
X239458384Y-107095978D01*
X239384599Y-107261701D01*
X239280033Y-107409934D01*
X239148669Y-107535031D01*
X238995500Y-107632234D01*
X238826382Y-107697831D01*
X238647730Y-107729332D01*
X238466368Y-107725533D01*
X238289196Y-107686579D01*
X238122966Y-107613955D01*
X237974008Y-107510427D01*
X237847995Y-107379936D01*
X237749727Y-107227454D01*
X237682948Y-107058789D01*
X237650201Y-106880367D01*
X237652734Y-106698985D01*
X237690450Y-106521545D01*
X237761913Y-106354808D01*
X237864400Y-106205131D01*
X237994003Y-106078214D01*
X238145800Y-105978881D01*
X238313989Y-105910928D01*
X238492180Y-105876936D01*
X238673579Y-105878203D01*
X238673579Y-105878203D01*
G37*
G36*
X63097157Y-102856701D02*
X63274857Y-102893177D01*
X63442083Y-102963472D01*
X63592475Y-103064913D01*
X63720296Y-103193629D01*
X63820681Y-103344722D01*
X63889809Y-103512440D01*
X63924907Y-103689699D01*
X63924907Y-103689715D01*
X63925040Y-103690388D01*
X63922147Y-103897583D01*
X63921995Y-103898251D01*
X63921995Y-103898270D01*
X63881962Y-104074476D01*
X63808177Y-104240199D01*
X63703611Y-104388432D01*
X63572247Y-104513529D01*
X63419078Y-104610732D01*
X63249960Y-104676329D01*
X63071308Y-104707830D01*
X62889946Y-104704031D01*
X62712774Y-104665077D01*
X62546544Y-104592453D01*
X62397586Y-104488925D01*
X62271573Y-104358434D01*
X62173305Y-104205952D01*
X62106526Y-104037287D01*
X62073779Y-103858865D01*
X62076312Y-103677483D01*
X62114028Y-103500043D01*
X62185491Y-103333306D01*
X62287978Y-103183629D01*
X62417581Y-103056712D01*
X62569378Y-102957379D01*
X62737567Y-102889426D01*
X62915758Y-102855434D01*
X63097157Y-102856701D01*
X63097157Y-102856701D01*
G37*
G36*
X235347157Y-99825612D02*
X235524857Y-99862088D01*
X235692083Y-99932383D01*
X235842475Y-100033824D01*
X235970296Y-100162540D01*
X236070681Y-100313633D01*
X236139809Y-100481351D01*
X236174907Y-100658610D01*
X236174907Y-100658626D01*
X236175040Y-100659299D01*
X236172147Y-100866494D01*
X236171995Y-100867162D01*
X236171995Y-100867181D01*
X236131962Y-101043387D01*
X236058177Y-101209110D01*
X235953611Y-101357343D01*
X235822247Y-101482440D01*
X235669078Y-101579643D01*
X235499960Y-101645240D01*
X235321308Y-101676741D01*
X235139946Y-101672942D01*
X234962774Y-101633988D01*
X234796544Y-101561364D01*
X234647586Y-101457836D01*
X234521573Y-101327345D01*
X234423305Y-101174863D01*
X234356526Y-101006198D01*
X234323779Y-100827776D01*
X234326312Y-100646394D01*
X234364028Y-100468954D01*
X234435491Y-100302217D01*
X234537978Y-100152540D01*
X234667581Y-100025623D01*
X234819378Y-99926290D01*
X234987567Y-99858337D01*
X235165758Y-99824345D01*
X235347157Y-99825612D01*
X235347157Y-99825612D01*
G37*
G36*
X64847157Y-99825612D02*
X65024857Y-99862088D01*
X65192083Y-99932383D01*
X65342475Y-100033824D01*
X65470296Y-100162540D01*
X65570681Y-100313633D01*
X65639809Y-100481351D01*
X65674907Y-100658610D01*
X65674907Y-100658626D01*
X65675040Y-100659299D01*
X65672147Y-100866494D01*
X65671995Y-100867162D01*
X65671995Y-100867181D01*
X65631962Y-101043387D01*
X65558177Y-101209110D01*
X65453611Y-101357343D01*
X65322247Y-101482440D01*
X65169078Y-101579643D01*
X64999960Y-101645240D01*
X64821308Y-101676741D01*
X64639946Y-101672942D01*
X64462774Y-101633988D01*
X64296544Y-101561364D01*
X64147586Y-101457836D01*
X64021573Y-101327345D01*
X63923305Y-101174863D01*
X63856526Y-101006198D01*
X63823779Y-100827776D01*
X63826312Y-100646394D01*
X63864028Y-100468954D01*
X63935491Y-100302217D01*
X64037978Y-100152540D01*
X64167581Y-100025623D01*
X64319378Y-99926290D01*
X64487567Y-99858337D01*
X64665758Y-99824345D01*
X64847157Y-99825612D01*
X64847157Y-99825612D01*
G37*
G36*
X233597157Y-96794523D02*
X233774857Y-96830999D01*
X233942083Y-96901294D01*
X234092475Y-97002735D01*
X234220296Y-97131451D01*
X234320681Y-97282544D01*
X234389809Y-97450262D01*
X234424907Y-97627521D01*
X234424907Y-97627537D01*
X234425040Y-97628210D01*
X234422147Y-97835405D01*
X234421995Y-97836073D01*
X234421995Y-97836092D01*
X234381962Y-98012298D01*
X234308177Y-98178021D01*
X234203611Y-98326254D01*
X234072247Y-98451351D01*
X233919078Y-98548554D01*
X233749960Y-98614151D01*
X233571308Y-98645652D01*
X233389946Y-98641853D01*
X233212774Y-98602899D01*
X233046544Y-98530275D01*
X232897586Y-98426747D01*
X232771573Y-98296256D01*
X232673305Y-98143774D01*
X232606526Y-97975109D01*
X232573779Y-97796687D01*
X232576312Y-97615305D01*
X232614028Y-97437865D01*
X232685491Y-97271128D01*
X232787978Y-97121451D01*
X232917581Y-96994534D01*
X233069378Y-96895201D01*
X233237567Y-96827248D01*
X233415758Y-96793256D01*
X233597157Y-96794523D01*
X233597157Y-96794523D01*
G37*
G36*
X68289909Y-94157171D02*
X68467609Y-94193647D01*
X68634835Y-94263942D01*
X68785227Y-94365383D01*
X68913048Y-94494099D01*
X69013433Y-94645192D01*
X69082561Y-94812910D01*
X69117659Y-94990169D01*
X69117659Y-94990185D01*
X69117792Y-94990858D01*
X69114899Y-95198053D01*
X69114747Y-95198721D01*
X69114747Y-95198740D01*
X69074714Y-95374946D01*
X69000929Y-95540669D01*
X68896363Y-95688902D01*
X68764999Y-95813999D01*
X68611830Y-95911202D01*
X68442712Y-95976799D01*
X68264060Y-96008300D01*
X68082698Y-96004501D01*
X67905526Y-95965547D01*
X67739296Y-95892923D01*
X67590338Y-95789395D01*
X67464325Y-95658904D01*
X67366057Y-95506422D01*
X67299278Y-95337757D01*
X67266531Y-95159335D01*
X67269064Y-94977953D01*
X67306780Y-94800513D01*
X67378243Y-94633776D01*
X67480730Y-94484099D01*
X67610333Y-94357182D01*
X67762130Y-94257849D01*
X67930319Y-94189896D01*
X68108510Y-94155904D01*
X68289909Y-94157171D01*
X68289909Y-94157171D01*
G37*
G36*
X70347157Y-91325612D02*
X70524857Y-91362088D01*
X70692083Y-91432383D01*
X70842475Y-91533824D01*
X70970296Y-91662540D01*
X71070681Y-91813633D01*
X71139809Y-91981351D01*
X71174907Y-92158610D01*
X71174907Y-92158626D01*
X71175040Y-92159299D01*
X71172147Y-92366494D01*
X71171995Y-92367162D01*
X71171995Y-92367181D01*
X71131962Y-92543387D01*
X71058177Y-92709110D01*
X70953611Y-92857343D01*
X70822247Y-92982440D01*
X70669078Y-93079643D01*
X70499960Y-93145240D01*
X70321308Y-93176741D01*
X70139946Y-93172942D01*
X69962774Y-93133988D01*
X69796544Y-93061364D01*
X69647586Y-92957836D01*
X69521573Y-92827345D01*
X69423305Y-92674863D01*
X69356526Y-92506198D01*
X69323779Y-92327776D01*
X69326312Y-92146394D01*
X69364028Y-91968954D01*
X69435491Y-91802217D01*
X69537978Y-91652540D01*
X69667581Y-91525623D01*
X69819378Y-91426290D01*
X69987567Y-91358337D01*
X70165758Y-91324345D01*
X70347157Y-91325612D01*
X70347157Y-91325612D01*
G37*
G36*
X229847157Y-91075612D02*
X230024857Y-91112088D01*
X230192083Y-91182383D01*
X230342475Y-91283824D01*
X230470296Y-91412540D01*
X230570681Y-91563633D01*
X230639809Y-91731351D01*
X230674907Y-91908610D01*
X230674907Y-91908626D01*
X230675040Y-91909299D01*
X230672147Y-92116494D01*
X230671995Y-92117162D01*
X230671995Y-92117181D01*
X230631962Y-92293387D01*
X230558177Y-92459110D01*
X230453611Y-92607343D01*
X230322247Y-92732440D01*
X230169078Y-92829643D01*
X229999960Y-92895240D01*
X229821308Y-92926741D01*
X229639946Y-92922942D01*
X229462774Y-92883988D01*
X229296544Y-92811364D01*
X229147586Y-92707836D01*
X229021573Y-92577345D01*
X228923305Y-92424863D01*
X228856526Y-92256198D01*
X228823779Y-92077776D01*
X228826312Y-91896394D01*
X228864028Y-91718954D01*
X228935491Y-91552217D01*
X229037978Y-91402540D01*
X229167581Y-91275623D01*
X229319378Y-91176290D01*
X229487567Y-91108337D01*
X229665758Y-91074345D01*
X229847157Y-91075612D01*
X229847157Y-91075612D01*
G37*
G36*
X168567196Y-89356465D02*
X168567202Y-89356466D01*
X168571254Y-89356494D01*
X168758144Y-89377457D01*
X168937402Y-89434321D01*
X169102202Y-89524921D01*
X169246266Y-89645804D01*
X169364106Y-89792368D01*
X169451234Y-89959029D01*
X169504332Y-90139439D01*
X169504338Y-90139500D01*
X169504346Y-90139529D01*
X169521381Y-90326722D01*
X169501733Y-90513662D01*
X169501727Y-90513681D01*
X169501719Y-90513759D01*
X169446107Y-90693410D01*
X169356661Y-90858838D01*
X169236786Y-91003742D01*
X169091048Y-91122603D01*
X168924999Y-91210893D01*
X168744964Y-91265248D01*
X168557800Y-91283600D01*
X168242130Y-91283600D01*
X168232804Y-91283535D01*
X168232798Y-91283534D01*
X168228746Y-91283506D01*
X168041856Y-91262543D01*
X167862598Y-91205679D01*
X167697798Y-91115079D01*
X167553734Y-90994196D01*
X167435894Y-90847632D01*
X167348766Y-90680971D01*
X167295668Y-90500561D01*
X167295662Y-90500500D01*
X167295654Y-90500471D01*
X167278619Y-90313278D01*
X167298267Y-90126338D01*
X167298273Y-90126319D01*
X167298281Y-90126241D01*
X167353893Y-89946590D01*
X167443339Y-89781162D01*
X167563214Y-89636258D01*
X167708952Y-89517397D01*
X167875001Y-89429107D01*
X168055036Y-89374752D01*
X168242200Y-89356400D01*
X168557870Y-89356400D01*
X168567196Y-89356465D01*
X168567196Y-89356465D01*
G37*
G36*
X227789909Y-88244053D02*
X227967609Y-88280529D01*
X228134835Y-88350824D01*
X228285227Y-88452265D01*
X228413048Y-88580981D01*
X228513433Y-88732074D01*
X228582561Y-88899792D01*
X228617659Y-89077051D01*
X228617659Y-89077067D01*
X228617792Y-89077740D01*
X228614899Y-89284935D01*
X228614747Y-89285603D01*
X228614747Y-89285622D01*
X228574714Y-89461828D01*
X228500929Y-89627551D01*
X228396363Y-89775784D01*
X228264999Y-89900881D01*
X228111830Y-89998084D01*
X227942712Y-90063681D01*
X227764060Y-90095182D01*
X227582698Y-90091383D01*
X227405526Y-90052429D01*
X227239296Y-89979805D01*
X227090338Y-89876277D01*
X226964325Y-89745786D01*
X226866057Y-89593304D01*
X226799278Y-89424639D01*
X226766531Y-89246217D01*
X226769064Y-89064835D01*
X226806780Y-88887395D01*
X226878243Y-88720658D01*
X226980730Y-88570981D01*
X227110333Y-88444064D01*
X227262130Y-88344731D01*
X227430319Y-88276778D01*
X227608510Y-88242786D01*
X227789909Y-88244053D01*
X227789909Y-88244053D01*
G37*
G36*
X168567196Y-86816465D02*
X168567202Y-86816466D01*
X168571254Y-86816494D01*
X168758144Y-86837457D01*
X168937402Y-86894321D01*
X169102202Y-86984921D01*
X169246266Y-87105804D01*
X169364106Y-87252368D01*
X169451234Y-87419029D01*
X169504332Y-87599439D01*
X169504338Y-87599500D01*
X169504346Y-87599529D01*
X169521381Y-87786722D01*
X169501733Y-87973662D01*
X169501727Y-87973681D01*
X169501719Y-87973759D01*
X169446107Y-88153410D01*
X169356661Y-88318838D01*
X169236786Y-88463742D01*
X169091048Y-88582603D01*
X168924999Y-88670893D01*
X168744964Y-88725248D01*
X168557800Y-88743600D01*
X168242130Y-88743600D01*
X168232804Y-88743535D01*
X168232798Y-88743534D01*
X168228746Y-88743506D01*
X168041856Y-88722543D01*
X167862598Y-88665679D01*
X167697798Y-88575079D01*
X167553734Y-88454196D01*
X167435894Y-88307632D01*
X167348766Y-88140971D01*
X167295668Y-87960561D01*
X167295662Y-87960500D01*
X167295654Y-87960471D01*
X167278619Y-87773278D01*
X167298267Y-87586338D01*
X167298273Y-87586319D01*
X167298281Y-87586241D01*
X167353893Y-87406590D01*
X167443339Y-87241162D01*
X167563214Y-87096258D01*
X167708952Y-86977397D01*
X167875001Y-86889107D01*
X168055036Y-86834752D01*
X168242200Y-86816400D01*
X168557870Y-86816400D01*
X168567196Y-86816465D01*
X168567196Y-86816465D01*
G37*
G36*
X74505200Y-85676619D02*
X74682900Y-85713095D01*
X74850126Y-85783390D01*
X75000518Y-85884831D01*
X75128339Y-86013547D01*
X75228724Y-86164640D01*
X75297852Y-86332358D01*
X75332950Y-86509617D01*
X75332950Y-86509633D01*
X75333083Y-86510306D01*
X75330190Y-86717501D01*
X75330038Y-86718169D01*
X75330038Y-86718188D01*
X75290005Y-86894394D01*
X75216220Y-87060117D01*
X75111654Y-87208350D01*
X74980290Y-87333447D01*
X74827121Y-87430650D01*
X74658003Y-87496247D01*
X74479351Y-87527748D01*
X74297989Y-87523949D01*
X74120817Y-87484995D01*
X73954587Y-87412371D01*
X73805629Y-87308843D01*
X73679616Y-87178352D01*
X73581348Y-87025870D01*
X73514569Y-86857205D01*
X73481822Y-86678783D01*
X73484355Y-86497401D01*
X73522071Y-86319961D01*
X73593534Y-86153224D01*
X73696021Y-86003547D01*
X73825624Y-85876630D01*
X73977421Y-85777297D01*
X74145610Y-85709344D01*
X74323801Y-85675352D01*
X74505200Y-85676619D01*
X74505200Y-85676619D01*
G37*
G36*
X168567196Y-84276465D02*
X168567202Y-84276466D01*
X168571254Y-84276494D01*
X168758144Y-84297457D01*
X168937402Y-84354321D01*
X169102202Y-84444921D01*
X169246266Y-84565804D01*
X169364106Y-84712368D01*
X169451234Y-84879029D01*
X169504332Y-85059439D01*
X169504338Y-85059500D01*
X169504346Y-85059529D01*
X169521381Y-85246722D01*
X169501733Y-85433662D01*
X169501727Y-85433681D01*
X169501719Y-85433759D01*
X169446107Y-85613410D01*
X169356661Y-85778838D01*
X169236786Y-85923742D01*
X169091048Y-86042603D01*
X168924999Y-86130893D01*
X168744964Y-86185248D01*
X168557800Y-86203600D01*
X168242130Y-86203600D01*
X168232804Y-86203535D01*
X168232798Y-86203534D01*
X168228746Y-86203506D01*
X168041856Y-86182543D01*
X167862598Y-86125679D01*
X167697798Y-86035079D01*
X167553734Y-85914196D01*
X167435894Y-85767632D01*
X167348766Y-85600971D01*
X167295668Y-85420561D01*
X167295662Y-85420500D01*
X167295654Y-85420471D01*
X167278619Y-85233278D01*
X167298267Y-85046338D01*
X167298273Y-85046319D01*
X167298281Y-85046241D01*
X167353893Y-84866590D01*
X167443339Y-84701162D01*
X167563214Y-84556258D01*
X167708952Y-84437397D01*
X167875001Y-84349107D01*
X168055036Y-84294752D01*
X168242200Y-84276400D01*
X168557870Y-84276400D01*
X168567196Y-84276465D01*
X168567196Y-84276465D01*
G37*
G36*
X76847157Y-83075612D02*
X77024857Y-83112088D01*
X77192083Y-83182383D01*
X77342475Y-83283824D01*
X77470296Y-83412540D01*
X77570681Y-83563633D01*
X77639809Y-83731351D01*
X77674907Y-83908610D01*
X77674907Y-83908626D01*
X77675040Y-83909299D01*
X77672147Y-84116494D01*
X77671995Y-84117162D01*
X77671995Y-84117181D01*
X77631962Y-84293387D01*
X77558177Y-84459110D01*
X77453611Y-84607343D01*
X77322247Y-84732440D01*
X77169078Y-84829643D01*
X76999960Y-84895240D01*
X76821308Y-84926741D01*
X76639946Y-84922942D01*
X76462774Y-84883988D01*
X76296544Y-84811364D01*
X76147586Y-84707836D01*
X76021573Y-84577345D01*
X75923305Y-84424863D01*
X75856526Y-84256198D01*
X75823779Y-84077776D01*
X75826312Y-83896394D01*
X75864028Y-83718954D01*
X75935491Y-83552217D01*
X76037978Y-83402540D01*
X76167581Y-83275623D01*
X76319378Y-83176290D01*
X76487567Y-83108337D01*
X76665758Y-83074345D01*
X76847157Y-83075612D01*
X76847157Y-83075612D01*
G37*
G36*
X223347157Y-83075612D02*
X223524857Y-83112088D01*
X223692083Y-83182383D01*
X223842475Y-83283824D01*
X223970296Y-83412540D01*
X224070681Y-83563633D01*
X224139809Y-83731351D01*
X224174907Y-83908610D01*
X224174907Y-83908626D01*
X224175040Y-83909299D01*
X224172147Y-84116494D01*
X224171995Y-84117162D01*
X224171995Y-84117181D01*
X224131962Y-84293387D01*
X224058177Y-84459110D01*
X223953611Y-84607343D01*
X223822247Y-84732440D01*
X223669078Y-84829643D01*
X223499960Y-84895240D01*
X223321308Y-84926741D01*
X223139946Y-84922942D01*
X222962774Y-84883988D01*
X222796544Y-84811364D01*
X222647586Y-84707836D01*
X222521573Y-84577345D01*
X222423305Y-84424863D01*
X222356526Y-84256198D01*
X222323779Y-84077776D01*
X222326312Y-83896394D01*
X222364028Y-83718954D01*
X222435491Y-83552217D01*
X222537978Y-83402540D01*
X222667581Y-83275623D01*
X222819378Y-83176290D01*
X222987567Y-83108337D01*
X223165758Y-83074345D01*
X223347157Y-83075612D01*
X223347157Y-83075612D01*
G37*
G36*
X169516000Y-83663600D02*
X167284000Y-83663600D01*
X167284000Y-81736400D01*
X169516000Y-81736400D01*
X169516000Y-83663600D01*
X169516000Y-83663600D01*
G37*
G36*
X221005200Y-80474605D02*
X221182900Y-80511081D01*
X221350126Y-80581376D01*
X221500518Y-80682817D01*
X221628339Y-80811533D01*
X221728724Y-80962626D01*
X221797852Y-81130344D01*
X221832950Y-81307603D01*
X221832950Y-81307619D01*
X221833083Y-81308292D01*
X221830190Y-81515487D01*
X221830038Y-81516155D01*
X221830038Y-81516174D01*
X221790005Y-81692380D01*
X221716220Y-81858103D01*
X221611654Y-82006336D01*
X221480290Y-82131433D01*
X221327121Y-82228636D01*
X221158003Y-82294233D01*
X220979351Y-82325734D01*
X220797989Y-82321935D01*
X220620817Y-82282981D01*
X220454587Y-82210357D01*
X220305629Y-82106829D01*
X220179616Y-81976338D01*
X220081348Y-81823856D01*
X220014569Y-81655191D01*
X219981822Y-81476769D01*
X219984355Y-81295387D01*
X220022071Y-81117947D01*
X220093534Y-80951210D01*
X220196021Y-80801533D01*
X220325624Y-80674616D01*
X220477421Y-80575283D01*
X220645610Y-80507330D01*
X220823801Y-80473338D01*
X221005200Y-80474605D01*
X221005200Y-80474605D01*
G37*
G36*
X81496150Y-78167569D02*
X81673850Y-78204045D01*
X81841076Y-78274340D01*
X81991468Y-78375781D01*
X82119289Y-78504497D01*
X82219674Y-78655590D01*
X82288802Y-78823308D01*
X82323900Y-79000567D01*
X82323900Y-79000583D01*
X82324033Y-79001256D01*
X82321140Y-79208451D01*
X82320988Y-79209119D01*
X82320988Y-79209138D01*
X82280955Y-79385344D01*
X82207170Y-79551067D01*
X82102604Y-79699300D01*
X81971240Y-79824397D01*
X81818071Y-79921600D01*
X81648953Y-79987197D01*
X81470301Y-80018698D01*
X81288939Y-80014899D01*
X81111767Y-79975945D01*
X80945537Y-79903321D01*
X80796579Y-79799793D01*
X80670566Y-79669302D01*
X80572298Y-79516820D01*
X80505519Y-79348155D01*
X80472772Y-79169733D01*
X80475305Y-78988351D01*
X80513021Y-78810911D01*
X80584484Y-78644174D01*
X80686971Y-78494497D01*
X80816574Y-78367580D01*
X80968371Y-78268247D01*
X81136560Y-78200294D01*
X81314751Y-78166302D01*
X81496150Y-78167569D01*
X81496150Y-78167569D01*
G37*
G36*
X84097157Y-75825612D02*
X84274857Y-75862088D01*
X84442083Y-75932383D01*
X84592475Y-76033824D01*
X84720296Y-76162540D01*
X84820681Y-76313633D01*
X84889809Y-76481351D01*
X84924907Y-76658610D01*
X84924907Y-76658626D01*
X84925040Y-76659299D01*
X84922147Y-76866494D01*
X84921995Y-76867162D01*
X84921995Y-76867181D01*
X84881962Y-77043387D01*
X84808177Y-77209110D01*
X84703611Y-77357343D01*
X84572247Y-77482440D01*
X84419078Y-77579643D01*
X84249960Y-77645240D01*
X84071308Y-77676741D01*
X83889946Y-77672942D01*
X83712774Y-77633988D01*
X83546544Y-77561364D01*
X83397586Y-77457836D01*
X83271573Y-77327345D01*
X83173305Y-77174863D01*
X83106526Y-77006198D01*
X83073779Y-76827776D01*
X83076312Y-76646394D01*
X83114028Y-76468954D01*
X83185491Y-76302217D01*
X83287978Y-76152540D01*
X83417581Y-76025623D01*
X83569378Y-75926290D01*
X83737567Y-75858337D01*
X83915758Y-75824345D01*
X84097157Y-75825612D01*
X84097157Y-75825612D01*
G37*
G36*
X216097157Y-75825612D02*
X216274857Y-75862088D01*
X216442083Y-75932383D01*
X216592475Y-76033824D01*
X216720296Y-76162540D01*
X216820681Y-76313633D01*
X216889809Y-76481351D01*
X216924907Y-76658610D01*
X216924907Y-76658626D01*
X216925040Y-76659299D01*
X216922147Y-76866494D01*
X216921995Y-76867162D01*
X216921995Y-76867181D01*
X216881962Y-77043387D01*
X216808177Y-77209110D01*
X216703611Y-77357343D01*
X216572247Y-77482440D01*
X216419078Y-77579643D01*
X216249960Y-77645240D01*
X216071308Y-77676741D01*
X215889946Y-77672942D01*
X215712774Y-77633988D01*
X215546544Y-77561364D01*
X215397586Y-77457836D01*
X215271573Y-77327345D01*
X215173305Y-77174863D01*
X215106526Y-77006198D01*
X215073779Y-76827776D01*
X215076312Y-76646394D01*
X215114028Y-76468954D01*
X215185491Y-76302217D01*
X215287978Y-76152540D01*
X215417581Y-76025623D01*
X215569378Y-75926290D01*
X215737567Y-75858337D01*
X215915758Y-75824345D01*
X216097157Y-75825612D01*
X216097157Y-75825612D01*
G37*
G36*
X213496150Y-73483655D02*
X213673850Y-73520131D01*
X213841076Y-73590426D01*
X213991468Y-73691867D01*
X214119289Y-73820583D01*
X214219674Y-73971676D01*
X214288802Y-74139394D01*
X214323900Y-74316653D01*
X214323900Y-74316669D01*
X214324033Y-74317342D01*
X214321140Y-74524537D01*
X214320988Y-74525205D01*
X214320988Y-74525224D01*
X214280955Y-74701430D01*
X214207170Y-74867153D01*
X214102604Y-75015386D01*
X213971240Y-75140483D01*
X213818071Y-75237686D01*
X213648953Y-75303283D01*
X213470301Y-75334784D01*
X213288939Y-75330985D01*
X213111767Y-75292031D01*
X212945537Y-75219407D01*
X212796579Y-75115879D01*
X212670566Y-74985388D01*
X212572298Y-74832906D01*
X212505519Y-74664241D01*
X212472772Y-74485819D01*
X212475305Y-74304437D01*
X212513021Y-74126997D01*
X212584484Y-73960260D01*
X212686971Y-73810583D01*
X212816574Y-73683666D01*
X212968371Y-73584333D01*
X213136560Y-73516380D01*
X213314751Y-73482388D01*
X213496150Y-73483655D01*
X213496150Y-73483655D01*
G37*
G36*
X151164304Y-71901379D02*
X151164326Y-71901386D01*
X151164403Y-71901394D01*
X151372467Y-71965801D01*
X151564059Y-72069394D01*
X151731881Y-72208228D01*
X151869540Y-72377015D01*
X151971793Y-72569325D01*
X152034746Y-72777834D01*
X152056000Y-72994600D01*
X152056000Y-73005468D01*
X152055920Y-73016924D01*
X152055919Y-73016930D01*
X152055891Y-73020982D01*
X152031613Y-73237429D01*
X151965755Y-73445039D01*
X151860827Y-73635903D01*
X151720824Y-73802752D01*
X151551081Y-73939229D01*
X151358061Y-74040137D01*
X151149118Y-74101633D01*
X151149052Y-74101639D01*
X151149028Y-74101646D01*
X150932213Y-74121377D01*
X150715696Y-74098621D01*
X150715674Y-74098614D01*
X150715597Y-74098606D01*
X150507533Y-74034199D01*
X150315941Y-73930606D01*
X150148119Y-73791772D01*
X150010460Y-73622985D01*
X149908207Y-73430675D01*
X149845254Y-73222166D01*
X149824000Y-73005400D01*
X149824000Y-72994532D01*
X149824080Y-72983076D01*
X149824081Y-72983070D01*
X149824109Y-72979018D01*
X149848387Y-72762571D01*
X149914245Y-72554961D01*
X150019173Y-72364097D01*
X150159176Y-72197248D01*
X150328919Y-72060771D01*
X150521939Y-71959863D01*
X150730882Y-71898367D01*
X150730948Y-71898361D01*
X150730972Y-71898354D01*
X150947787Y-71878623D01*
X151164304Y-71901379D01*
X151164304Y-71901379D01*
G37*
G36*
X149516000Y-74116000D02*
X147284000Y-74116000D01*
X147284000Y-71884000D01*
X149516000Y-71884000D01*
X149516000Y-74116000D01*
X149516000Y-74116000D01*
G37*
G36*
X89265598Y-71382860D02*
X89443298Y-71419336D01*
X89610524Y-71489631D01*
X89760916Y-71591072D01*
X89888737Y-71719788D01*
X89989122Y-71870881D01*
X90058250Y-72038599D01*
X90093348Y-72215858D01*
X90093348Y-72215874D01*
X90093481Y-72216547D01*
X90090588Y-72423742D01*
X90090436Y-72424410D01*
X90090436Y-72424429D01*
X90050403Y-72600635D01*
X89976618Y-72766358D01*
X89872052Y-72914591D01*
X89740688Y-73039688D01*
X89587519Y-73136891D01*
X89418401Y-73202488D01*
X89239749Y-73233989D01*
X89058387Y-73230190D01*
X88881215Y-73191236D01*
X88714985Y-73118612D01*
X88566027Y-73015084D01*
X88440014Y-72884593D01*
X88341746Y-72732111D01*
X88274967Y-72563446D01*
X88242220Y-72385024D01*
X88244753Y-72203642D01*
X88282469Y-72026202D01*
X88353932Y-71859465D01*
X88456419Y-71709788D01*
X88586022Y-71582871D01*
X88737819Y-71483538D01*
X88906008Y-71415585D01*
X89084199Y-71381593D01*
X89265598Y-71382860D01*
X89265598Y-71382860D01*
G37*
G36*
X92097157Y-69325612D02*
X92274857Y-69362088D01*
X92442083Y-69432383D01*
X92592475Y-69533824D01*
X92720296Y-69662540D01*
X92820681Y-69813633D01*
X92889809Y-69981351D01*
X92924907Y-70158610D01*
X92924907Y-70158626D01*
X92925040Y-70159299D01*
X92922147Y-70366494D01*
X92921995Y-70367162D01*
X92921995Y-70367181D01*
X92881962Y-70543387D01*
X92808177Y-70709110D01*
X92703611Y-70857343D01*
X92572247Y-70982440D01*
X92419078Y-71079643D01*
X92249960Y-71145240D01*
X92071308Y-71176741D01*
X91889946Y-71172942D01*
X91712774Y-71133988D01*
X91546544Y-71061364D01*
X91397586Y-70957836D01*
X91271573Y-70827345D01*
X91173305Y-70674863D01*
X91106526Y-70506198D01*
X91073779Y-70327776D01*
X91076312Y-70146394D01*
X91114028Y-69968954D01*
X91185491Y-69802217D01*
X91287978Y-69652540D01*
X91417581Y-69525623D01*
X91569378Y-69426290D01*
X91737567Y-69358337D01*
X91915758Y-69324345D01*
X92097157Y-69325612D01*
X92097157Y-69325612D01*
G37*
G36*
X208097157Y-69325612D02*
X208274857Y-69362088D01*
X208442083Y-69432383D01*
X208592475Y-69533824D01*
X208720296Y-69662540D01*
X208820681Y-69813633D01*
X208889809Y-69981351D01*
X208924907Y-70158610D01*
X208924907Y-70158626D01*
X208925040Y-70159299D01*
X208922147Y-70366494D01*
X208921995Y-70367162D01*
X208921995Y-70367181D01*
X208881962Y-70543387D01*
X208808177Y-70709110D01*
X208703611Y-70857343D01*
X208572247Y-70982440D01*
X208419078Y-71079643D01*
X208249960Y-71145240D01*
X208071308Y-71176741D01*
X207889946Y-71172942D01*
X207712774Y-71133988D01*
X207546544Y-71061364D01*
X207397586Y-70957836D01*
X207271573Y-70827345D01*
X207173305Y-70674863D01*
X207106526Y-70506198D01*
X207073779Y-70327776D01*
X207076312Y-70146394D01*
X207114028Y-69968954D01*
X207185491Y-69802217D01*
X207287978Y-69652540D01*
X207417581Y-69525623D01*
X207569378Y-69426290D01*
X207737567Y-69358337D01*
X207915758Y-69324345D01*
X208097157Y-69325612D01*
X208097157Y-69325612D01*
G37*
G36*
X205265598Y-67268364D02*
X205443298Y-67304840D01*
X205610524Y-67375135D01*
X205760916Y-67476576D01*
X205888737Y-67605292D01*
X205989122Y-67756385D01*
X206058250Y-67924103D01*
X206093348Y-68101362D01*
X206093348Y-68101378D01*
X206093481Y-68102051D01*
X206090588Y-68309246D01*
X206090436Y-68309914D01*
X206090436Y-68309933D01*
X206050403Y-68486139D01*
X205976618Y-68651862D01*
X205872052Y-68800095D01*
X205740688Y-68925192D01*
X205587519Y-69022395D01*
X205418401Y-69087992D01*
X205239749Y-69119493D01*
X205058387Y-69115694D01*
X204881215Y-69076740D01*
X204714985Y-69004116D01*
X204566027Y-68900588D01*
X204440014Y-68770097D01*
X204341746Y-68617615D01*
X204274967Y-68448950D01*
X204242220Y-68270528D01*
X204244753Y-68089146D01*
X204282469Y-67911706D01*
X204353932Y-67744969D01*
X204456419Y-67595292D01*
X204586022Y-67468375D01*
X204737819Y-67369042D01*
X204906008Y-67301089D01*
X205084199Y-67267097D01*
X205265598Y-67268364D01*
X205265598Y-67268364D01*
G37*
G36*
X97816068Y-65575612D02*
X97993768Y-65612088D01*
X98160994Y-65682383D01*
X98311386Y-65783824D01*
X98439207Y-65912540D01*
X98539592Y-66063633D01*
X98608720Y-66231351D01*
X98643818Y-66408610D01*
X98643818Y-66408626D01*
X98643951Y-66409299D01*
X98641058Y-66616494D01*
X98640906Y-66617162D01*
X98640906Y-66617181D01*
X98600873Y-66793387D01*
X98527088Y-66959110D01*
X98422522Y-67107343D01*
X98291158Y-67232440D01*
X98137989Y-67329643D01*
X97968871Y-67395240D01*
X97790219Y-67426741D01*
X97608857Y-67422942D01*
X97431685Y-67383988D01*
X97265455Y-67311364D01*
X97116497Y-67207836D01*
X96990484Y-67077345D01*
X96892216Y-66924863D01*
X96825437Y-66756198D01*
X96792690Y-66577776D01*
X96795223Y-66396394D01*
X96832939Y-66218954D01*
X96904402Y-66052217D01*
X97006889Y-65902540D01*
X97136492Y-65775623D01*
X97288289Y-65676290D01*
X97456478Y-65608337D01*
X97634669Y-65574345D01*
X97816068Y-65575612D01*
X97816068Y-65575612D01*
G37*
G36*
X100847157Y-63825612D02*
X101024857Y-63862088D01*
X101192083Y-63932383D01*
X101342475Y-64033824D01*
X101470296Y-64162540D01*
X101570681Y-64313633D01*
X101639809Y-64481351D01*
X101674907Y-64658610D01*
X101674907Y-64658626D01*
X101675040Y-64659299D01*
X101672147Y-64866494D01*
X101671995Y-64867162D01*
X101671995Y-64867181D01*
X101631962Y-65043387D01*
X101558177Y-65209110D01*
X101453611Y-65357343D01*
X101322247Y-65482440D01*
X101169078Y-65579643D01*
X100999960Y-65645240D01*
X100821308Y-65676741D01*
X100639946Y-65672942D01*
X100462774Y-65633988D01*
X100296544Y-65561364D01*
X100147586Y-65457836D01*
X100021573Y-65327345D01*
X99923305Y-65174863D01*
X99856526Y-65006198D01*
X99823779Y-64827776D01*
X99826312Y-64646394D01*
X99864028Y-64468954D01*
X99935491Y-64302217D01*
X100037978Y-64152540D01*
X100167581Y-64025623D01*
X100319378Y-63926290D01*
X100487567Y-63858337D01*
X100665758Y-63824345D01*
X100847157Y-63825612D01*
X100847157Y-63825612D01*
G37*
G36*
X199347157Y-63825612D02*
X199524857Y-63862088D01*
X199692083Y-63932383D01*
X199842475Y-64033824D01*
X199970296Y-64162540D01*
X200070681Y-64313633D01*
X200139809Y-64481351D01*
X200174907Y-64658610D01*
X200174907Y-64658626D01*
X200175040Y-64659299D01*
X200172147Y-64866494D01*
X200171995Y-64867162D01*
X200171995Y-64867181D01*
X200131962Y-65043387D01*
X200058177Y-65209110D01*
X199953611Y-65357343D01*
X199822247Y-65482440D01*
X199669078Y-65579643D01*
X199499960Y-65645240D01*
X199321308Y-65676741D01*
X199139946Y-65672942D01*
X198962774Y-65633988D01*
X198796544Y-65561364D01*
X198647586Y-65457836D01*
X198521573Y-65327345D01*
X198423305Y-65174863D01*
X198356526Y-65006198D01*
X198323779Y-64827776D01*
X198326312Y-64646394D01*
X198364028Y-64468954D01*
X198435491Y-64302217D01*
X198537978Y-64152540D01*
X198667581Y-64025623D01*
X198819378Y-63926290D01*
X198987567Y-63858337D01*
X199165758Y-63824345D01*
X199347157Y-63825612D01*
X199347157Y-63825612D01*
G37*
G36*
X196316068Y-62075612D02*
X196493768Y-62112088D01*
X196660994Y-62182383D01*
X196811386Y-62283824D01*
X196939207Y-62412540D01*
X197039592Y-62563633D01*
X197108720Y-62731351D01*
X197143818Y-62908610D01*
X197143818Y-62908626D01*
X197143951Y-62909299D01*
X197141058Y-63116494D01*
X197140906Y-63117162D01*
X197140906Y-63117181D01*
X197100873Y-63293387D01*
X197027088Y-63459110D01*
X196922522Y-63607343D01*
X196791158Y-63732440D01*
X196637989Y-63829643D01*
X196468871Y-63895240D01*
X196290219Y-63926741D01*
X196108857Y-63922942D01*
X195931685Y-63883988D01*
X195765455Y-63811364D01*
X195616497Y-63707836D01*
X195490484Y-63577345D01*
X195392216Y-63424863D01*
X195325437Y-63256198D01*
X195292690Y-63077776D01*
X195295223Y-62896394D01*
X195332939Y-62718954D01*
X195404402Y-62552217D01*
X195506889Y-62402540D01*
X195636492Y-62275623D01*
X195788289Y-62176290D01*
X195956478Y-62108337D01*
X196134669Y-62074345D01*
X196316068Y-62075612D01*
X196316068Y-62075612D01*
G37*
G36*
X106899748Y-60499190D02*
X107077448Y-60535666D01*
X107244674Y-60605961D01*
X107395066Y-60707402D01*
X107522887Y-60836118D01*
X107623272Y-60987211D01*
X107692400Y-61154929D01*
X107727498Y-61332188D01*
X107727498Y-61332204D01*
X107727631Y-61332877D01*
X107724738Y-61540072D01*
X107724586Y-61540740D01*
X107724586Y-61540759D01*
X107684553Y-61716965D01*
X107610768Y-61882688D01*
X107506202Y-62030921D01*
X107374838Y-62156018D01*
X107221669Y-62253221D01*
X107052551Y-62318818D01*
X106873899Y-62350319D01*
X106692537Y-62346520D01*
X106515365Y-62307566D01*
X106349135Y-62234942D01*
X106200177Y-62131414D01*
X106074164Y-62000923D01*
X105975896Y-61848441D01*
X105909117Y-61679776D01*
X105876370Y-61501354D01*
X105878903Y-61319972D01*
X105916619Y-61142532D01*
X105988082Y-60975795D01*
X106090569Y-60826118D01*
X106220172Y-60699201D01*
X106371969Y-60599868D01*
X106540158Y-60531915D01*
X106718349Y-60497923D01*
X106899748Y-60499190D01*
X106899748Y-60499190D01*
G37*
G36*
X190097157Y-59075612D02*
X190274857Y-59112088D01*
X190442083Y-59182383D01*
X190592475Y-59283824D01*
X190720296Y-59412540D01*
X190820681Y-59563633D01*
X190889809Y-59731351D01*
X190924907Y-59908610D01*
X190924907Y-59908626D01*
X190925040Y-59909299D01*
X190922147Y-60116494D01*
X190921995Y-60117162D01*
X190921995Y-60117181D01*
X190881962Y-60293387D01*
X190808177Y-60459110D01*
X190703611Y-60607343D01*
X190572247Y-60732440D01*
X190419078Y-60829643D01*
X190249960Y-60895240D01*
X190071308Y-60926741D01*
X189889946Y-60922942D01*
X189712774Y-60883988D01*
X189546544Y-60811364D01*
X189397586Y-60707836D01*
X189271573Y-60577345D01*
X189173305Y-60424863D01*
X189106526Y-60256198D01*
X189073779Y-60077776D01*
X189076312Y-59896394D01*
X189114028Y-59718954D01*
X189185491Y-59552217D01*
X189287978Y-59402540D01*
X189417581Y-59275623D01*
X189569378Y-59176290D01*
X189737567Y-59108337D01*
X189915758Y-59074345D01*
X190097157Y-59075612D01*
X190097157Y-59075612D01*
G37*
G36*
X110097157Y-59075612D02*
X110274857Y-59112088D01*
X110442083Y-59182383D01*
X110592475Y-59283824D01*
X110720296Y-59412540D01*
X110820681Y-59563633D01*
X110889809Y-59731351D01*
X110924907Y-59908610D01*
X110924907Y-59908626D01*
X110925040Y-59909299D01*
X110922147Y-60116494D01*
X110921995Y-60117162D01*
X110921995Y-60117181D01*
X110881962Y-60293387D01*
X110808177Y-60459110D01*
X110703611Y-60607343D01*
X110572247Y-60732440D01*
X110419078Y-60829643D01*
X110249960Y-60895240D01*
X110071308Y-60926741D01*
X109889946Y-60922942D01*
X109712774Y-60883988D01*
X109546544Y-60811364D01*
X109397586Y-60707836D01*
X109271573Y-60577345D01*
X109173305Y-60424863D01*
X109106526Y-60256198D01*
X109073779Y-60077776D01*
X109076312Y-59896394D01*
X109114028Y-59718954D01*
X109185491Y-59552217D01*
X109287978Y-59402540D01*
X109417581Y-59275623D01*
X109569378Y-59176290D01*
X109737567Y-59108337D01*
X109915758Y-59074345D01*
X110097157Y-59075612D01*
X110097157Y-59075612D01*
G37*
G36*
X186899748Y-57652034D02*
X187077448Y-57688510D01*
X187244674Y-57758805D01*
X187395066Y-57860246D01*
X187522887Y-57988962D01*
X187623272Y-58140055D01*
X187692400Y-58307773D01*
X187727498Y-58485032D01*
X187727498Y-58485048D01*
X187727631Y-58485721D01*
X187724738Y-58692916D01*
X187724586Y-58693584D01*
X187724586Y-58693603D01*
X187684553Y-58869809D01*
X187610768Y-59035532D01*
X187506202Y-59183765D01*
X187374838Y-59308862D01*
X187221669Y-59406065D01*
X187052551Y-59471662D01*
X186873899Y-59503163D01*
X186692537Y-59499364D01*
X186515365Y-59460410D01*
X186349135Y-59387786D01*
X186200177Y-59284258D01*
X186074164Y-59153767D01*
X185975896Y-59001285D01*
X185909117Y-58832620D01*
X185876370Y-58654198D01*
X185878903Y-58472816D01*
X185916619Y-58295376D01*
X185988082Y-58128639D01*
X186090569Y-57978962D01*
X186220172Y-57852045D01*
X186371969Y-57752712D01*
X186540158Y-57684759D01*
X186718349Y-57650767D01*
X186899748Y-57652034D01*
X186899748Y-57652034D01*
G37*
G36*
X116268459Y-56407171D02*
X116446159Y-56443647D01*
X116613385Y-56513942D01*
X116763777Y-56615383D01*
X116891598Y-56744099D01*
X116991983Y-56895192D01*
X117061111Y-57062910D01*
X117096209Y-57240169D01*
X117096209Y-57240185D01*
X117096342Y-57240858D01*
X117093449Y-57448053D01*
X117093297Y-57448721D01*
X117093297Y-57448740D01*
X117053264Y-57624946D01*
X116979479Y-57790669D01*
X116874913Y-57938902D01*
X116743549Y-58063999D01*
X116590380Y-58161202D01*
X116421262Y-58226799D01*
X116242610Y-58258300D01*
X116061248Y-58254501D01*
X115884076Y-58215547D01*
X115717846Y-58142923D01*
X115568888Y-58039395D01*
X115442875Y-57908904D01*
X115344607Y-57756422D01*
X115277828Y-57587757D01*
X115245081Y-57409335D01*
X115247614Y-57227953D01*
X115285330Y-57050513D01*
X115356793Y-56883776D01*
X115459280Y-56734099D01*
X115588883Y-56607182D01*
X115740680Y-56507849D01*
X115908869Y-56439896D01*
X116087060Y-56405904D01*
X116268459Y-56407171D01*
X116268459Y-56407171D01*
G37*
G36*
X180597157Y-55325612D02*
X180774857Y-55362088D01*
X180942083Y-55432383D01*
X181092475Y-55533824D01*
X181220296Y-55662540D01*
X181320681Y-55813633D01*
X181389809Y-55981351D01*
X181424907Y-56158610D01*
X181424907Y-56158626D01*
X181425040Y-56159299D01*
X181422147Y-56366494D01*
X181421995Y-56367162D01*
X181421995Y-56367181D01*
X181381962Y-56543387D01*
X181308177Y-56709110D01*
X181203611Y-56857343D01*
X181072247Y-56982440D01*
X180919078Y-57079643D01*
X180749960Y-57145240D01*
X180571308Y-57176741D01*
X180389946Y-57172942D01*
X180212774Y-57133988D01*
X180046544Y-57061364D01*
X179897586Y-56957836D01*
X179771573Y-56827345D01*
X179673305Y-56674863D01*
X179606526Y-56506198D01*
X179573779Y-56327776D01*
X179576312Y-56146394D01*
X179614028Y-55968954D01*
X179685491Y-55802217D01*
X179787978Y-55652540D01*
X179917581Y-55525623D01*
X180069378Y-55426290D01*
X180237567Y-55358337D01*
X180415758Y-55324345D01*
X180597157Y-55325612D01*
X180597157Y-55325612D01*
G37*
G36*
X119597157Y-55325612D02*
X119774857Y-55362088D01*
X119942083Y-55432383D01*
X120092475Y-55533824D01*
X120220296Y-55662540D01*
X120320681Y-55813633D01*
X120389809Y-55981351D01*
X120424907Y-56158610D01*
X120424907Y-56158626D01*
X120425040Y-56159299D01*
X120422147Y-56366494D01*
X120421995Y-56367162D01*
X120421995Y-56367181D01*
X120381962Y-56543387D01*
X120308177Y-56709110D01*
X120203611Y-56857343D01*
X120072247Y-56982440D01*
X119919078Y-57079643D01*
X119749960Y-57145240D01*
X119571308Y-57176741D01*
X119389946Y-57172942D01*
X119212774Y-57133988D01*
X119046544Y-57061364D01*
X118897586Y-56957836D01*
X118771573Y-56827345D01*
X118673305Y-56674863D01*
X118606526Y-56506198D01*
X118573779Y-56327776D01*
X118576312Y-56146394D01*
X118614028Y-55968954D01*
X118685491Y-55802217D01*
X118787978Y-55652540D01*
X118917581Y-55525623D01*
X119069378Y-55426290D01*
X119237567Y-55358337D01*
X119415758Y-55324345D01*
X119597157Y-55325612D01*
X119597157Y-55325612D01*
G37*
G36*
X177268459Y-54244053D02*
X177446159Y-54280529D01*
X177613385Y-54350824D01*
X177763777Y-54452265D01*
X177891598Y-54580981D01*
X177991983Y-54732074D01*
X178061111Y-54899792D01*
X178096209Y-55077051D01*
X178096209Y-55077067D01*
X178096342Y-55077740D01*
X178093449Y-55284935D01*
X178093297Y-55285603D01*
X178093297Y-55285622D01*
X178053264Y-55461828D01*
X177979479Y-55627551D01*
X177874913Y-55775784D01*
X177743549Y-55900881D01*
X177590380Y-55998084D01*
X177421262Y-56063681D01*
X177242610Y-56095182D01*
X177061248Y-56091383D01*
X176884076Y-56052429D01*
X176717846Y-55979805D01*
X176568888Y-55876277D01*
X176442875Y-55745786D01*
X176344607Y-55593304D01*
X176277828Y-55424639D01*
X176245081Y-55246217D01*
X176247614Y-55064835D01*
X176285330Y-54887395D01*
X176356793Y-54720658D01*
X176459280Y-54570981D01*
X176588883Y-54444064D01*
X176740680Y-54344731D01*
X176908869Y-54276778D01*
X177087060Y-54242786D01*
X177268459Y-54244053D01*
X177268459Y-54244053D01*
G37*
G36*
X126173640Y-53303303D02*
X126351340Y-53339779D01*
X126518566Y-53410074D01*
X126668958Y-53511515D01*
X126796779Y-53640231D01*
X126897164Y-53791324D01*
X126966292Y-53959042D01*
X127001390Y-54136301D01*
X127001390Y-54136317D01*
X127001523Y-54136990D01*
X126998630Y-54344185D01*
X126998478Y-54344853D01*
X126998478Y-54344872D01*
X126958445Y-54521078D01*
X126884660Y-54686801D01*
X126780094Y-54835034D01*
X126648730Y-54960131D01*
X126495561Y-55057334D01*
X126326443Y-55122931D01*
X126147791Y-55154432D01*
X125966429Y-55150633D01*
X125789257Y-55111679D01*
X125623027Y-55039055D01*
X125474069Y-54935527D01*
X125348056Y-54805036D01*
X125249788Y-54652554D01*
X125183009Y-54483889D01*
X125150262Y-54305467D01*
X125152795Y-54124085D01*
X125190511Y-53946645D01*
X125261974Y-53779908D01*
X125364461Y-53630231D01*
X125494064Y-53503314D01*
X125645861Y-53403981D01*
X125814050Y-53336028D01*
X125992241Y-53302036D01*
X126173640Y-53303303D01*
X126173640Y-53303303D01*
G37*
G36*
X170597157Y-52575612D02*
X170774857Y-52612088D01*
X170942083Y-52682383D01*
X171092475Y-52783824D01*
X171220296Y-52912540D01*
X171320681Y-53063633D01*
X171389809Y-53231351D01*
X171424907Y-53408610D01*
X171424907Y-53408626D01*
X171425040Y-53409299D01*
X171422147Y-53616494D01*
X171421995Y-53617162D01*
X171421995Y-53617181D01*
X171381962Y-53793387D01*
X171308177Y-53959110D01*
X171203611Y-54107343D01*
X171072247Y-54232440D01*
X170919078Y-54329643D01*
X170749960Y-54395240D01*
X170571308Y-54426741D01*
X170389946Y-54422942D01*
X170212774Y-54383988D01*
X170046544Y-54311364D01*
X169897586Y-54207836D01*
X169771573Y-54077345D01*
X169673305Y-53924863D01*
X169606526Y-53756198D01*
X169573779Y-53577776D01*
X169576312Y-53396394D01*
X169614028Y-53218954D01*
X169685491Y-53052217D01*
X169787978Y-52902540D01*
X169917581Y-52775623D01*
X170069378Y-52676290D01*
X170237567Y-52608337D01*
X170415758Y-52574345D01*
X170597157Y-52575612D01*
X170597157Y-52575612D01*
G37*
G36*
X129597157Y-52575612D02*
X129774857Y-52612088D01*
X129942083Y-52682383D01*
X130092475Y-52783824D01*
X130220296Y-52912540D01*
X130320681Y-53063633D01*
X130389809Y-53231351D01*
X130424907Y-53408610D01*
X130424907Y-53408626D01*
X130425040Y-53409299D01*
X130422147Y-53616494D01*
X130421995Y-53617162D01*
X130421995Y-53617181D01*
X130381962Y-53793387D01*
X130308177Y-53959110D01*
X130203611Y-54107343D01*
X130072247Y-54232440D01*
X129919078Y-54329643D01*
X129749960Y-54395240D01*
X129571308Y-54426741D01*
X129389946Y-54422942D01*
X129212774Y-54383988D01*
X129046544Y-54311364D01*
X128897586Y-54207836D01*
X128771573Y-54077345D01*
X128673305Y-53924863D01*
X128606526Y-53756198D01*
X128573779Y-53577776D01*
X128576312Y-53396394D01*
X128614028Y-53218954D01*
X128685491Y-53052217D01*
X128787978Y-52902540D01*
X128917581Y-52775623D01*
X129069378Y-52676290D01*
X129237567Y-52608337D01*
X129415758Y-52574345D01*
X129597157Y-52575612D01*
X129597157Y-52575612D01*
G37*
G36*
X167173640Y-51847921D02*
X167351340Y-51884397D01*
X167518566Y-51954692D01*
X167668958Y-52056133D01*
X167796779Y-52184849D01*
X167897164Y-52335942D01*
X167966292Y-52503660D01*
X168001390Y-52680919D01*
X168001390Y-52680935D01*
X168001523Y-52681608D01*
X167998630Y-52888803D01*
X167998478Y-52889471D01*
X167998478Y-52889490D01*
X167958445Y-53065696D01*
X167884660Y-53231419D01*
X167780094Y-53379652D01*
X167648730Y-53504749D01*
X167495561Y-53601952D01*
X167326443Y-53667549D01*
X167147791Y-53699050D01*
X166966429Y-53695251D01*
X166789257Y-53656297D01*
X166623027Y-53583673D01*
X166474069Y-53480145D01*
X166348056Y-53349654D01*
X166249788Y-53197172D01*
X166183009Y-53028507D01*
X166150262Y-52850085D01*
X166152795Y-52668703D01*
X166190511Y-52491263D01*
X166261974Y-52324526D01*
X166364461Y-52174849D01*
X166494064Y-52047932D01*
X166645861Y-51948599D01*
X166814050Y-51880646D01*
X166992241Y-51846654D01*
X167173640Y-51847921D01*
X167173640Y-51847921D01*
G37*
G36*
X136366330Y-51441462D02*
X136544030Y-51477938D01*
X136711256Y-51548233D01*
X136861648Y-51649674D01*
X136989469Y-51778390D01*
X137089854Y-51929483D01*
X137158982Y-52097201D01*
X137194080Y-52274460D01*
X137194080Y-52274476D01*
X137194213Y-52275149D01*
X137191320Y-52482344D01*
X137191168Y-52483012D01*
X137191168Y-52483031D01*
X137151135Y-52659237D01*
X137077350Y-52824960D01*
X136972784Y-52973193D01*
X136841420Y-53098290D01*
X136688251Y-53195493D01*
X136519133Y-53261090D01*
X136340481Y-53292591D01*
X136159119Y-53288792D01*
X135981947Y-53249838D01*
X135815717Y-53177214D01*
X135666759Y-53073686D01*
X135540746Y-52943195D01*
X135442478Y-52790713D01*
X135375699Y-52622048D01*
X135342952Y-52443626D01*
X135345485Y-52262244D01*
X135383201Y-52084804D01*
X135454664Y-51918067D01*
X135557151Y-51768390D01*
X135686754Y-51641473D01*
X135838551Y-51542140D01*
X136006740Y-51474187D01*
X136184931Y-51440195D01*
X136366330Y-51441462D01*
X136366330Y-51441462D01*
G37*
G36*
X160347157Y-51075612D02*
X160524857Y-51112088D01*
X160692083Y-51182383D01*
X160842475Y-51283824D01*
X160970296Y-51412540D01*
X161070681Y-51563633D01*
X161139809Y-51731351D01*
X161174907Y-51908610D01*
X161174907Y-51908626D01*
X161175040Y-51909299D01*
X161172147Y-52116494D01*
X161171995Y-52117162D01*
X161171995Y-52117181D01*
X161131962Y-52293387D01*
X161058177Y-52459110D01*
X160953611Y-52607343D01*
X160822247Y-52732440D01*
X160669078Y-52829643D01*
X160499960Y-52895240D01*
X160321308Y-52926741D01*
X160139946Y-52922942D01*
X159962774Y-52883988D01*
X159796544Y-52811364D01*
X159647586Y-52707836D01*
X159521573Y-52577345D01*
X159423305Y-52424863D01*
X159356526Y-52256198D01*
X159323779Y-52077776D01*
X159326312Y-51896394D01*
X159364028Y-51718954D01*
X159435491Y-51552217D01*
X159537978Y-51402540D01*
X159667581Y-51275623D01*
X159819378Y-51176290D01*
X159987567Y-51108337D01*
X160165758Y-51074345D01*
X160347157Y-51075612D01*
X160347157Y-51075612D01*
G37*
G36*
X139847157Y-51075612D02*
X140024857Y-51112088D01*
X140192083Y-51182383D01*
X140342475Y-51283824D01*
X140470296Y-51412540D01*
X140570681Y-51563633D01*
X140639809Y-51731351D01*
X140674907Y-51908610D01*
X140674907Y-51908626D01*
X140675040Y-51909299D01*
X140672147Y-52116494D01*
X140671995Y-52117162D01*
X140671995Y-52117181D01*
X140631962Y-52293387D01*
X140558177Y-52459110D01*
X140453611Y-52607343D01*
X140322247Y-52732440D01*
X140169078Y-52829643D01*
X139999960Y-52895240D01*
X139821308Y-52926741D01*
X139639946Y-52922942D01*
X139462774Y-52883988D01*
X139296544Y-52811364D01*
X139147586Y-52707836D01*
X139021573Y-52577345D01*
X138923305Y-52424863D01*
X138856526Y-52256198D01*
X138823779Y-52077776D01*
X138826312Y-51896394D01*
X138864028Y-51718954D01*
X138935491Y-51552217D01*
X139037978Y-51402540D01*
X139167581Y-51275623D01*
X139319378Y-51176290D01*
X139487567Y-51108337D01*
X139665758Y-51074345D01*
X139847157Y-51075612D01*
X139847157Y-51075612D01*
G37*
G36*
X156866330Y-50709762D02*
X157044030Y-50746238D01*
X157211256Y-50816533D01*
X157361648Y-50917974D01*
X157489469Y-51046690D01*
X157589854Y-51197783D01*
X157658982Y-51365501D01*
X157694080Y-51542760D01*
X157694080Y-51542776D01*
X157694213Y-51543449D01*
X157691320Y-51750644D01*
X157691168Y-51751312D01*
X157691168Y-51751331D01*
X157651135Y-51927537D01*
X157577350Y-52093260D01*
X157472784Y-52241493D01*
X157341420Y-52366590D01*
X157188251Y-52463793D01*
X157019133Y-52529390D01*
X156840481Y-52560891D01*
X156659119Y-52557092D01*
X156481947Y-52518138D01*
X156315717Y-52445514D01*
X156166759Y-52341986D01*
X156040746Y-52211495D01*
X155942478Y-52059013D01*
X155875699Y-51890348D01*
X155842952Y-51711926D01*
X155845485Y-51530544D01*
X155883201Y-51353104D01*
X155954664Y-51186367D01*
X156057151Y-51036690D01*
X156186754Y-50909773D01*
X156338551Y-50810440D01*
X156506740Y-50742487D01*
X156684931Y-50708495D01*
X156866330Y-50709762D01*
X156866330Y-50709762D01*
G37*
G36*
X146597157Y-50575612D02*
X146774857Y-50612088D01*
X146942083Y-50682383D01*
X147092475Y-50783824D01*
X147220296Y-50912540D01*
X147320681Y-51063633D01*
X147389809Y-51231351D01*
X147424907Y-51408610D01*
X147424907Y-51408626D01*
X147425040Y-51409299D01*
X147422147Y-51616494D01*
X147421995Y-51617162D01*
X147421995Y-51617181D01*
X147381962Y-51793387D01*
X147308177Y-51959110D01*
X147203611Y-52107343D01*
X147072247Y-52232440D01*
X146919078Y-52329643D01*
X146749960Y-52395240D01*
X146571308Y-52426741D01*
X146389946Y-52422942D01*
X146212774Y-52383988D01*
X146046544Y-52311364D01*
X145897586Y-52207836D01*
X145771573Y-52077345D01*
X145673305Y-51924863D01*
X145606526Y-51756198D01*
X145573779Y-51577776D01*
X145576312Y-51396394D01*
X145614028Y-51218954D01*
X145685491Y-51052217D01*
X145787978Y-50902540D01*
X145917581Y-50775623D01*
X146069378Y-50676290D01*
X146237567Y-50608337D01*
X146415758Y-50574345D01*
X146597157Y-50575612D01*
X146597157Y-50575612D01*
G37*
G36*
X150097157Y-50575612D02*
X150274857Y-50612088D01*
X150442083Y-50682383D01*
X150592475Y-50783824D01*
X150720296Y-50912540D01*
X150820681Y-51063633D01*
X150889809Y-51231351D01*
X150924907Y-51408610D01*
X150924907Y-51408626D01*
X150925040Y-51409299D01*
X150922147Y-51616494D01*
X150921995Y-51617162D01*
X150921995Y-51617181D01*
X150881962Y-51793387D01*
X150808177Y-51959110D01*
X150703611Y-52107343D01*
X150572247Y-52232440D01*
X150419078Y-52329643D01*
X150249960Y-52395240D01*
X150071308Y-52426741D01*
X149889946Y-52422942D01*
X149712774Y-52383988D01*
X149546544Y-52311364D01*
X149397586Y-52207836D01*
X149271573Y-52077345D01*
X149173305Y-51924863D01*
X149106526Y-51756198D01*
X149073779Y-51577776D01*
X149076312Y-51396394D01*
X149114028Y-51218954D01*
X149185491Y-51052217D01*
X149287978Y-50902540D01*
X149417581Y-50775623D01*
X149569378Y-50676290D01*
X149737567Y-50608337D01*
X149915758Y-50574345D01*
X150097157Y-50575612D01*
X150097157Y-50575612D01*
G37*
M02*
